<?xml version="1.0" encoding="utf-8"?>
<!-- Generator: Adobe Illustrator 21.0.2, SVG Export Plug-In . SVG Version: 6.00 Build 0)  -->
<svg version="1.1" id="Layer_1" xmlns="http://www.w3.org/2000/svg" xmlns:xlink="http://www.w3.org/1999/xlink" x="0px" y="0px"
	 viewBox="0 0 50 41" style="enable-background:new 0 0 50 41;" xml:space="preserve">
<style type="text/css">
	.st0{fill:#F1ECC8;}
	.st1{display:none;}
	.st2{display:inline;}
</style>
<g>
	<g>
		<g>
			<g>
				<path class="st0" d="M49.7,6.4c0-1.7-3.4-4-7.5-4.7c-11.4-1.9-23-1.9-34.4,0c-4.2,0.7-7.5,3-7.5,4.7c0,0.1,0,0.1,0,0.1
					C0.2,6.7,0.1,6.9,0.1,7.1v5.8c0,0.8,0.7,1.5,1.5,1.5h7.6c0.8,0,1.5-0.7,1.5-1.5V7.6c9.3-1.3,18.8-1.3,28.2,0v5.7
					c0,0.8,0.7,1.5,1.5,1.5h7.6c0.8,0,1.5-0.7,1.5-1.5V7.2c0-0.2,0-0.3-0.1-0.4C49.6,6.6,49.7,6.5,49.7,6.4z"/>
				<path class="st0" d="M45.8,24.3l-8.4-2.8c-0.7-0.2-1.5-0.4-2.4-0.6v-9.3h-3.6V17H18.5v-5.4h-3.5v9.3c-0.8,0.2-1.6,0.3-2.2,0.5
					l-8.2,2.8c-1.6,0.5-2.9,2.3-2.9,4v9.4c0,1.7,1.4,3,3,3h40.8c1.7,0,3-1.4,3-3v-9.4C48.6,26.6,47.3,24.8,45.8,24.3z M24.7,37.3
					c-4.6,0-8.3-3.7-8.3-8.3c0-4.6,3.7-8.3,8.3-8.3c4.6,0,8.3,3.7,8.3,8.3C33,33.6,29.3,37.3,24.7,37.3z"/>
				<circle class="st0" cx="24.7" cy="29.1" r="4.4"/>
			</g>
		</g>
	</g>
</g>
<g class="st1">
	<g class="st2">
		<g>
			<path class="st0" d="M0.2,6.9L22,20.1l5.1-3.4L8.1,5.2C6.2,4.1,2.2,4.9,0.2,6.9z"/>
			<path class="st0" d="M36.7,3.9c-2.3,3.4-1.4,7.1,1,9L0.2,34.7c1.5,1.8,5.3,2.8,6.7,2.1c1.4-0.7,22.5-13.2,22.5-13.2l3.1-3.5
				c0,0,11.9-6.7,13.7-7.7c1.8-1,3.1-3.3,3.4-5.1c0.7-4.2-1.8-6.5-4.7-6.9C41.8,0,38.8,0.7,36.7,3.9z M28.3,21.4
				c0,0.5-0.3,0.9-0.8,0.9c-0.4,0-0.8-0.4-0.8-0.9c0-0.5,0.3-0.9,0.8-0.9C27.9,20.5,28.3,20.9,28.3,21.4z M47.4,4.5
				c0.6,1.9,0.1,4.7-2.6,6.1c-3.8,2-6.7,0.5-7.3-1.5c-0.6-1.9,0.8-4.6,3.6-5.9C43.9,1.9,46.8,2.6,47.4,4.5z"/>
			<path class="st0" d="M37.4,27.7c-1.3,1.2-2.3,2.8-2.3,5c0,2.8,2,5.3,4.6,6.7c3.6,2,6.7,1.4,8.7-0.9c2.3-2.9,1.4-8-2-10
				c-3.4-2-8.6-5.4-12.7-7.8L31,23.4L37.4,27.7z M44.3,29.9c2.7,1.4,3.6,4.5,3,6.4c-0.6,1.9-3.6,2.6-6.3,1.3c-2.7-1.3-4.2-4-3.6-5.9
				C38.1,29.8,40.5,27.9,44.3,29.9z"/>
		</g>
	</g>
</g>
</svg>
