<?xml version="1.0" encoding="utf-8"?>
<!-- Generator: Adobe Illustrator 21.0.2, SVG Export Plug-In . SVG Version: 6.00 Build 0)  -->
<svg version="1.1" id="Layer_1" xmlns="http://www.w3.org/2000/svg" xmlns:xlink="http://www.w3.org/1999/xlink" x="0px" y="0px"
	 viewBox="0 0 29.5 26.5" enable-background="new 0 0 29.5 26.5" xml:space="preserve">
<g display="none">
	<path display="inline" fill="#F1ECC8" d="M21.9,23.8c1.4-0.1,2.8-0.5,3.8-1.5c1-1,1.5-2.4,1-3.8c0,0,0-0.1-0.1-0.1
		c1.2-1.2,1.6-3,0.7-4.5c0.7-0.8,1.2-1.9,1.3-3.1c0.4,0,0.8,0,1.1,0c1.3,0,2.5-0.4,2.9-1.7c0-0.1,0-0.2-0.1-0.2c0-1-0.7-1.8-1.5-2.3
		c1.7,0.2,3.4,0,5.1-0.1c1.2-0.1,2.7-0.2,3.4-1.2c0,0,0.1,0,0.1,0c0.6-0.8,0.4-1.8-0.2-2.6c-1-1.2-2.7-1.2-4.1-1.3
		c-4.2-0.3-8.5-0.7-12.7-0.6c-4,0.2-7.9,1-11.4,2.9c-2,1.1-3.9,2.4-5.7,3.7C3.9,8.6,2.1,9.8,0.4,11c-0.2-0.7-0.5-1.4-0.9-2.1
		c0-0.1-0.1-0.1-0.1-0.1c0-0.1-0.1-0.1-0.2-0.1c-1.3,0.1-2.5,0.4-3.8,0.4c-1.3,0-2.6-0.1-3.9-0.1c-0.3,0-0.4,0.5-0.1,0.6
		C-6.2,10-3,10.1-0.8,9.2c0,0,0,0,0,0c0.3,0.7,0.5,1.5,0.6,2.2c0,0,0,0,0,0.1c0.3,1.9,0.3,3.8,0.4,5.7c0,2.7-0.1,5.4-1,7.9
		c0,0,0,0,0,0.1c-1.4-0.5-3.1-0.5-4.5-0.5c-1.4,0-3.1,0.1-4.4,0.7c-0.2,0.1-0.1,0.4,0.1,0.5c1.5,0,3-0.4,4.5-0.5
		c1.5-0.1,3,0.2,4.5,0.1c0,0,0.1,0,0.1,0c0.2,0,0.3,0,0.4-0.2c0.2-0.5,0.3-1.1,0.5-1.6c0,0,0.1,0.1,0.1,0.1c2-0.1,3.9,0.3,5.8,0.6
		c2,0.4,4,0.7,6.1,1.1c3.2,0.5,6.8,0.8,9.4-1.3C21.9,24,21.9,23.9,21.9,23.8z M26.2,18.8C26.2,18.8,26.2,18.8,26.2,18.8
		c0.6,2.4-1.7,4.1-3.9,4.4c-0.8,0.1-1.5,0.2-2.3,0.1c0.4-0.3,0.6-0.8,0.7-1.3c0.1-0.6-0.1-1.2-0.6-1.6
		C22.2,20.5,24.6,20.1,26.2,18.8z M16.3,16.6c1.1-0.2,2.1-0.4,3.2-0.2c0,0,0.1,0,0.1,0c1.6,0.2,0.6,2.5,0.1,3.4c0,0,0,0.1,0,0.1
		c-0.4,0-0.9-0.1-1.3-0.2c-0.8-0.2-1.6-0.6-2.1-1.2c-0.4-0.5-0.4-1.1-0.2-1.6c0,0,0.1,0,0.1,0C16.3,16.8,16.3,16.7,16.3,16.6z
		 M16,16.2c-0.2-0.2-0.4-0.3-0.5-0.5c0,0,0,0,0,0c0.2-0.3,0.4-0.5,0.6-0.8c0.3,0.2,0.6,0.5,0.9,0.7c0.1,0,0.1,0,0.1-0.1
		c-0.3-0.3-0.6-0.5-0.9-0.7c0.2-0.3,0.3-0.5,0.4-0.8c0,0.3,0.1,0.7,0.3,1c0.2,0.3,0.4,0.5,0.6,0.7C16.8,15.5,16.3,15.7,16,16.2z
		 M17,13c1.2-0.1,2.5-0.4,3.6-0.1c1.5,0.4,0.9,2.1,0.6,3.2c-0.4,0-0.9,0-1.3-0.1c-0.3-0.1-0.6-0.1-0.9-0.1c-0.5-0.1-0.9-0.2-1.3-0.5
		C16.9,14.9,16.5,13.8,17,13z M17.7,15.8c0.1,0,0.2,0.1,0.2,0.1c-0.4,0-0.9,0.1-1.2,0.2C17,16,17.3,15.9,17.7,15.8
		C17.6,15.9,17.7,15.9,17.7,15.8z M19.9,20.4c0,0,0,0.1,0,0.1c0.3,0.4,0.4,0.9,0.3,1.5c-0.1,0.5-0.4,0.8-0.8,1.2c0,0,0,0.1-0.1,0.1
		c-0.1,0-0.1,0-0.2,0c-0.6-0.1-1.2-0.2-1.7-0.5c-1.1-0.7-1.5-2.1-0.2-2.8c0,0,0.1-0.1,0.1-0.1C18.2,20.2,19.1,20.4,19.9,20.4z
		 M25.4,16.3c0-0.1-0.1-0.2-0.2-0.4c-0.1-0.1-0.1-0.3-0.1-0.4c0.7-0.3,1.3-0.7,1.8-1.3c1.7,3.1-2.5,5.3-5,5.6
		c-0.6,0.1-1.3,0.1-1.9,0c0.5-0.8,1.3-2.6,0.7-3.5c0.1,0,0.3,0,0.4,0c1.3,0,2.6-0.2,3.7-0.7c0,0.3,0.1,0.7,0.4,0.8
		C25.3,16.7,25.5,16.5,25.4,16.3z M26.9,13.7c-0.1,0-0.1,0.1-0.1,0.2c-0.8,1-1.9,1.7-3.2,2c-0.6,0.1-1.2,0.2-1.8,0.3
		c0.5-0.8,0.7-2.6,0-3.3c-0.4-0.4-1.5-0.4-2-0.4c-0.8,0-1.6,0-2.4,0.2c0.1-0.1,0.1-0.1,0.2-0.2c0,0,0,0,0-0.1
		c1.1-0.1,2.2-0.3,3.3-0.7c0.2-0.1,0.4-0.1,0.6-0.2c0.2,0,0.3,0,0.5-0.1c0.3,0,0.6,0,0.9,0.1c-0.1,0.5-0.1,1,0.3,1.3
		c0.1,0.1,0.3,0,0.3-0.1c-0.1-0.4-0.2-0.7-0.1-1.2c0-0.2,0.4-1.1,0.7-0.9c0.1,0,0.1,0,0.1-0.1c1.4,0.1,2.8,0.2,4.1,0.2
		C28,11.9,27.5,12.9,26.9,13.7z M16.9,12.8C16.8,12.8,16.8,12.8,16.9,12.8c-0.1,0.1-0.1,0.1-0.2,0.2c0-0.2,0-0.3,0-0.5
		c0.2,0,0.4,0,0.6,0C17.2,12.5,17,12.6,16.9,12.8z M22.2,11.2c0.3-0.1,0.6-0.3,0.9-0.4C23.1,10.9,23,11,23,11.1
		c0,0.1-0.1,0.2-0.1,0.3C22.7,11.3,22.5,11.3,22.2,11.2z M32.2,9.1C32.2,9.1,32.2,9.1,32.2,9.1c-0.1,0.2-0.1,0.4-0.2,0.5
		c-0.8,0.1-1.6,0-2.4-0.2c-0.6-0.2-1.1-0.5-1-1.2c0.1-0.4,0.5-1.5,1-1.6C31,6.9,32.2,7.6,32.2,9.1z M10.5,24.6
		c-1.8-0.3-3.7-0.6-5.5-1c-1.5-0.3-3-0.5-4.6-0.1c0,0,0,0,0,0c0.1-0.5,0.2-1,0.3-1.5c0.2,0.2,0.4,0.3,0.6,0.5c0.1,0.1,0.2,0,0.1-0.1
		C1.2,22.1,1,22,0.8,21.8c0,0-0.1,0-0.1-0.1c0.1-0.5,0.1-1,0.1-1.5c0.4,0.3,0.9,0.6,1.4,0.8c0.1,0,0.2-0.1,0.1-0.1
		c-0.5-0.2-1-0.5-1.4-0.9c0-0.6,0.1-1.1,0.1-1.7c0.4,0.4,0.8,0.7,1.3,0.9c0.1,0,0.1-0.1,0.1-0.1c-0.5-0.2-1-0.6-1.4-0.9
		c0-0.4,0-0.8,0-1.2c0-0.2,0-0.4,0-0.7c0.4,0.3,0.9,0.6,1.4,0.9c0.1,0,0.1-0.1,0.1-0.1c-0.5-0.3-1-0.5-1.4-0.9c0,0,0,0-0.1,0
		c0-0.5,0-0.9,0-1.4c0.4,0.3,0.8,0.5,1.2,0.7c0.1,0,0.1-0.1,0.1-0.1c-0.4-0.2-0.9-0.5-1.3-0.7c0-0.5,0-1.1-0.1-1.6
		c0.5,0.4,1.1,0.8,1.7,1.1c0.1,0,0.1-0.1,0.1-0.1c-0.6-0.3-1.2-0.7-1.7-1.2c0-0.4-0.1-0.9-0.2-1.3c0.1,0.1,0.3,0.1,0.4,0.2
		c0.5,0.3,1,0.5,1.6,0.7c0.1,0,0.1-0.1,0.1-0.1c-0.4-0.2-0.8-0.4-1.2-0.6c-0.3-0.2-0.6-0.4-0.9-0.5c0,0,0-0.1,0-0.1
		C0.7,11.2,1,11,1.2,10.9c0.6,0.2,1.2,0.5,1.8,0.8c0.1,0,0.1-0.1,0.1-0.1c-0.6-0.3-1.1-0.5-1.7-0.7c0.3-0.2,0.5-0.3,0.8-0.5
		c0.3,0.2,0.7,0.3,1,0.4c0.1,0,0.1-0.1,0-0.1c-0.3-0.1-0.7-0.2-1-0.4c0.3-0.2,0.6-0.4,0.9-0.6c0,0,0,0,0,0c0.3,0.1,0.7,0.2,1,0.4
		c0.1,0,0.1-0.1,0-0.1c-0.3-0.1-0.6-0.2-1-0.3C3.5,9.5,3.8,9.2,4.1,9c0,0,0,0,0,0c0,0,0,0,0,0c0.3,0.1,0.7,0.2,1,0.3
		c0.1,0,0.1-0.1,0-0.1C4.9,9.1,4.6,9,4.3,8.9c0.3-0.2,0.5-0.4,0.8-0.5c0,0,0,0,0,0C5.5,8.6,5.9,8.8,6.4,9c0.1,0,0.1-0.1,0.1-0.1
		C6,8.7,5.6,8.5,5.1,8.3c0.3-0.2,0.6-0.5,0.9-0.7c0.3,0.1,0.7,0.3,1,0.4c0.1,0,0.1-0.1,0-0.1c-0.3-0.1-0.7-0.3-1-0.4
		c1.1-0.8,2.2-1.6,3.4-2.3c3.2-2,6.7-3.4,10.5-3.8c3.4-0.4,6.7-0.2,10.1,0.1c1.7,0.1,3.5,0.2,5.2,0.4c1.6,0.1,5.2,0.6,4.2,3
		c-0.4,0.6-1.1,0.9-1.9,1.2c-0.2-0.2-0.5-0.4-0.8-0.6c0,0-0.1,0,0,0.1c0.3,0.2,0.5,0.4,0.7,0.6c-0.3,0.1-0.7,0.2-1,0.2
		c-0.3-0.3-0.8-0.5-1.2-0.6c0,0-0.1,0,0,0.1c0.4,0.2,0.7,0.4,1,0.6c-0.4,0.1-0.8,0.1-1.1,0.1c-0.5-0.4-1.1-0.7-1.7-1
		c0,0-0.1,0,0,0.1c0.5,0.3,1,0.7,1.5,0.9c-0.2,0-0.4,0-0.6,0c-0.5,0-0.9,0-1.4,0c-0.6-0.4-1.2-0.7-1.8-1.2c0,0-0.1,0,0,0.1
		c0.5,0.4,1,0.8,1.6,1.1c-0.6,0-1.1-0.1-1.7-0.2c-0.8-0.5-1.7-1-2.6-1.4c0,0-0.1,0,0,0.1c0.8,0.4,1.6,0.8,2.3,1.3
		c-0.4,0-0.8-0.1-1.2-0.1c0,0,0,0,0,0c-0.4-0.1-0.7-0.2-1.1-0.3c-1.1-0.6-2.2-1.2-3.3-1.7c0,0,0,0,0,0c1,0.5,1.9,1.1,2.9,1.6
		c-1.3-0.3-2.7-0.5-4.1-0.6c-0.4,0-0.8-0.1-1.2-0.1c-0.8-0.4-1.6-0.8-2.3-1.2c0,0-0.1,0,0,0.1c0.7,0.4,1.3,0.7,2,1.1
		c-0.7,0-1.3-0.1-2-0.1c-0.8-0.4-1.6-0.7-2.4-1.1c0,0-0.1,0,0,0c0.7,0.3,1.5,0.7,2.2,1c-0.6,0-1.2,0-1.8,0c-0.9-0.3-1.8-0.6-2.8-0.9
		c0,0,0,0,0,0.1c0.8,0.3,1.7,0.6,2.6,0.9c-0.1,0-0.2,0-0.3,0C17.5,5,17,5,16.4,5c-0.6-0.2-1.2-0.4-1.8-0.6c0,0-0.1,0,0,0.1
		c0.5,0.2,1,0.4,1.6,0.6c-1.4,0.1-2.9,0.3-4,0.9c-0.1,0,0,0.1,0,0.1c3.1-0.5,6.1-0.9,9.2-0.8c0,0,0,0,0.1,0c0,0,0,0,0.1,0
		c0.3,0,0.5,0,0.8,0c0.5,0,0.9,0.1,1.4,0.1c0.1,0,0.2,0.1,0.2,0.1c0.1,0,0.1,0,0.1-0.1c1.1,0.1,2.3,0.3,3.4,0.5
		c0.5,0.1,1.2,0.2,1.8,0.4c-0.8,0.4-1.2,2-0.9,2.7c0.3,0.5,0.9,0.6,1.4,0.7c0.5,0.2,1,0.3,1.6,0.3c-1,0.5-2.6,0.3-3.6,0.3
		c-1.2-0.1-2.5-0.2-3.7-0.1c0.2-0.2,0.4-0.5,0.5-0.8c0-0.1-0.1-0.1-0.1,0c-0.9,1.2-3,1.8-4.4,2.2C18.4,12,17,12,15.5,12
		c-0.2,0-0.2,0.3,0,0.4c0.3,0,0.7,0.1,1,0.1c-0.8,2.9-2.8,4.4-5.5,5.7c-0.2,0.1,0,0.4,0.2,0.3c0.4-0.1,0.7-0.3,1.1-0.5
		c0.4,0.3,0.9,0.6,1.4,0.8c0.1,0,0.1-0.1,0-0.1c-0.4-0.3-0.9-0.5-1.3-0.8c0.3-0.2,0.6-0.3,0.9-0.5c0.4,0.3,0.8,0.6,1.3,0.8
		c0.1,0,0.1-0.1,0-0.1c-0.5-0.2-0.9-0.5-1.3-0.8c0.3-0.2,0.5-0.3,0.7-0.5c0.3,0.2,0.6,0.4,0.9,0.6c0,0,0.1,0,0.1-0.1
		c-0.3-0.3-0.6-0.5-0.9-0.6c0.5-0.4,0.9-0.7,1.3-1.2c0,0,0,0,0,0c0.2,0.2,0.4,0.4,0.5,0.5c-0.1,0.2-0.2,0.4-0.3,0.7l-0.7-0.6
		c0,0-0.1,0,0,0c0.2,0.2,0.5,0.4,0.7,0.6c0,0,0,0,0,0c-0.1,0.3-0.1,0.6,0,0.9c0.2,0.9,0.8,1.5,1.5,1.9c-1.1,0.4-1.3,1.7-0.7,2.7
		c0.9,1.4,2.9,1.4,4.4,1.4c0.2,0,0.4,0,0.6,0C18,25.9,14.2,25.2,10.5,24.6z"/>
	<path display="inline" fill="#F1ECC8" d="M-2.5,23.6c0.6-0.5,0.2-1.3-0.4-1.5c-0.1-0.4-0.8-0.5-1.2-0.3c-0.6,0.3-0.9,1.1-0.4,1.6
		C-4,24-3.1,24.1-2.5,23.6z M-3,23.3c-0.3,0.1-0.8,0.1-1-0.1c-0.6-0.6,0.3-1.2,0.8-1.1c0,0.1,0,0.1,0,0.2C-2.9,22.6-2.3,23-3,23.3z"
		/>
	<path display="inline" fill="#F1ECC8" d="M-2.9,22.8c-0.1-0.1-0.2-0.1-0.4-0.2c0,0,0,0,0-0.1c0-0.1-0.1-0.2-0.1-0.1c0,0,0,0,0,0.1
		c-0.2-0.1-0.4-0.1-0.5-0.2c-0.1,0-0.2,0.2-0.1,0.2c0.2,0.1,0.3,0.1,0.5,0.2c-0.1,0.1-0.1,0.3-0.2,0.4c0,0.1,0.1,0.1,0.2,0.1
		c0.1-0.1,0.1-0.3,0.2-0.4c0.1,0,0.3,0.1,0.4,0.1C-2.8,23.1-2.8,22.9-2.9,22.8z"/>
	<path display="inline" fill="#F1ECC8" d="M12.7,19c-0.4-0.2-0.8-0.4-1.2-0.7c0,0-0.1,0,0,0.1C11.9,18.6,12.3,18.9,12.7,19
		C12.7,19.1,12.8,19,12.7,19z"/>
</g>
<g>
	<path fill="#F1ECC8" d="M28.2,0.8c-4.6,1.7-8.8,4-13.2,6C10.3,9,5.7,11.4,1,13.6c-0.3,0.1-0.2,0.7,0.1,0.7c3.1,0.4,6.1,1.1,9.1,1.8
		c0.1,3.1,0,6.1,0,9.2c0,0.4,0.5,0.5,0.7,0.2c1.6-2.3,3.2-4.6,4.9-6.8c2.4,1.4,4.8,2.9,7,4.5c0.2,0.1,0.5,0,0.6-0.2
		c0.7-3.7,1.4-7.2,2.5-10.8c1-3.6,2-7.2,2.8-10.9C28.8,1,28.5,0.7,28.2,0.8z M12.9,16.3c-0.1,0.1-0.2,0.2-0.2,0.3
		c-0.1,0.3-0.3,0.6-0.4,1.1c-0.5,1.9-0.8,3.8-1.3,5.6c0-2.5,0-4.9,0-7.4c4.7-4.1,9.5-8.1,14.3-12c-2.9,2.9-5.8,5.7-8.7,8.6
		c-0.9,0.9-1.8,1.8-2.7,2.6C13.4,15.6,13.1,15.9,12.9,16.3z M26.3,2.4c-5.3,4.2-10.6,8.5-15.7,13c-2.7-0.6-5.3-1.2-8.1-1.7
		c4.1-2,8.2-4.1,12.4-6.1C18.7,5.9,22.4,4,26.3,2.4z M11.6,23.2c0.4-1.6,0.8-3.3,1.2-5c0.1-0.4,0.2-0.8,0.3-1.2
		c0.7,0.4,1.4,0.9,2.1,1.3C13.9,19.9,12.7,21.6,11.6,23.2z M25.1,11.9c-1,3.4-1.7,6.8-2.4,10.3c-3-2.1-6.2-3.9-9.3-5.8
		c0,0,0-0.1,0.1-0.1c0.4-0.4,0.8-0.8,1.2-1.2c0.9-0.9,1.8-1.8,2.7-2.7c3.4-3.3,6.8-6.7,10.2-10C26.9,5.6,26,8.8,25.1,11.9z"/>
	<path fill="#F1ECC8" d="M7.9,13.5c0.9-0.5,1.9-1,2.8-1.6c0.3-0.2,0-0.7-0.3-0.5c-0.9,0.5-1.9,1-2.8,1.6C7.3,13.2,7.6,13.7,7.9,13.5
		z"/>
	<path fill="#F1ECC8" d="M10.6,12.7c-0.4,0.2-0.9,0.5-1.3,0.7c-0.3,0.2,0,0.7,0.3,0.5c0.4-0.2,0.9-0.5,1.3-0.7
		C11.2,13.1,10.9,12.6,10.6,12.7z"/>
</g>
</svg>
