<?xml version="1.0" encoding="utf-8"?>
<!-- Generator: Adobe Illustrator 21.0.2, SVG Export Plug-In . SVG Version: 6.00 Build 0)  -->
<svg version="1.1" id="Layer_1" xmlns="http://www.w3.org/2000/svg" xmlns:xlink="http://www.w3.org/1999/xlink" x="0px" y="0px"
	 viewBox="0 0 50 50" enable-background="new 0 0 50 50" xml:space="preserve">
<path opacity="0.25" fill="#FFFFFF" d="M33.8,2.9c0,0,2.3,18.3-24.7,36.8l12.2,8.4l15.8-3.2l7.7-10.5L48,17.8l-6.7-8.9L33.8,2.9z"/>
<path fill="#FFFFFF" d="M25,5c11,0,20,9,20,20s-9,20-20,20S5,36,5,25S14,5,25,5 M25,0C11.2,0,0,11.2,0,25c0,13.8,11.2,25,25,25
	c13.8,0,25-11.2,25-25C50,11.2,38.8,0,25,0L25,0z"/>
</svg>
