<?xml version="1.0" encoding="utf-8"?>
<!-- Generator: Adobe Illustrator 21.0.2, SVG Export Plug-In . SVG Version: 6.00 Build 0)  -->
<svg version="1.1" xmlns="http://www.w3.org/2000/svg" xmlns:xlink="http://www.w3.org/1999/xlink" x="0px" y="0px"
	 viewBox="0 0 100 100" enable-background="new 0 0 100 100" xml:space="preserve">
<g id="Layer_1" display="none">
	<text transform="matrix(1 0 0 1 677.4453 -422.3828)" display="inline"><tspan x="0" y="0" font-family="'MyriadPro-Regular'" font-size="123.7139px">ME</tspan><tspan x="0" y="148.5" font-family="'MyriadPro-Regular'" font-size="123.7139px">Places</tspan><tspan x="0" y="296.9" font-family="'MyriadPro-Regular'" font-size="123.7139px">Photos</tspan><tspan x="0" y="445.4" font-family="'MyriadPro-Regular'" font-size="123.7139px">Stories</tspan><tspan x="0" y="593.8" font-family="'MyriadPro-Regular'" font-size="123.7139px">Social</tspan><tspan x="0" y="742.3" font-family="'MyriadPro-Regular'" font-size="123.7139px">Plans</tspan><tspan x="0" y="890.7" font-family="'MyriadPro-Regular'" font-size="123.7139px">Tips</tspan></text>
	<g display="inline">
		<path fill="#30758F" d="M49.2,75.2c-0.6-3.1-3.1-4.8-5.9-5.4c1.3-1,1.8-2.6,1.3-4.4c7,0.5,8.1-12.7,1.3-14.3
			c4.1-3,2.7-9.7-1.8-11.4c2-0.9,3.9-3.3,4.5-5c1.3-3.6-0.3-7.5-3.3-9.6c2.2-1.3,3.6-3.8,3.1-6.5c-0.4-2.1-2-4.1-4.1-4.7
			c2-1.8,2.7-4.6,1.7-7.3c-1.2-3.2-4.3-4.9-7.7-4.8c-6.2,0.1-12,6-11.9,12.1c-0.4-0.3-0.7-0.5-1.1-0.6c-2.1-0.8-4.3,0.3-5.9,1.6
			c-2.8,2.2-3.8,7-1.4,9.5c-5,0.4-8.6,7.4-5.4,11.2c-2.3,0.3-3.5,2.7-3.3,4.9c-3.8,0.7-6.1,5.8-6.2,9.2C3.2,54.3,6,56.9,9.9,58
			c-1.9,1.2-3.2,3.1-2.7,5.5c0.4,2,2.1,3.4,4,3.4C8.2,70,8.3,75.1,9.7,78.8c1.9,4.8,6.6,8.3,11.7,7.2c-1,4.4,4.6,9.2,8.3,6.9
			c-0.2,3.8,4,6.9,7.9,6.5c3.8-0.4,9-5.2,6.4-8.7c2.2,0.1,3.9-1.6,4.2-4.2c0.2-2.2-0.9-4.6-2.8-5.8C47.8,80.6,49.8,78.1,49.2,75.2z
			 M43.6,80c-0.1,0-0.2,0-0.2,0.1c-0.2,0-0.4,0-0.6-0.1c-0.4,0-0.6,0.7-0.2,0.9c1.8,0.9,3.4,1.8,3.9,3.9c0.3,1.2,0.2,2.6-0.4,3.7
			c-0.8,1.3-1.9,1.4-3.2,1.3c-0.1-0.1-0.3-0.2-0.4-0.3c-0.4-0.3-0.9,0.3-0.7,0.7c1.3,2,1.6,4.1-0.2,5.9c-1.3,1.3-3.4,2.1-5.2,2
			c-3.6-0.1-5.6-3.1-5.4-6.3c0,0,0.1-0.1,0.1-0.1c0.1-0.2,0.1-0.4,0-0.6c0-0.1,0-0.2,0-0.3c0.1-0.4-0.4-0.6-0.7-0.3
			c-0.1,0.1-0.1,0.2-0.2,0.3c-0.1,0-0.1,0.1-0.1,0.1c-1.5,1.9-4.3,1.3-5.8-0.2c-1.4-1.4-2.2-3.5-1.1-5.4c0.3-0.5-0.2-1.2-0.8-1
			C12.5,88.1,6,72.7,13.1,66.5c0.1-0.1,0.2-0.1,0.3-0.2c0.7-0.5,0.1-1.4-0.6-1.1c-2.6,1.2-5-1.1-4.2-3.7c0.5-1.7,2-2.6,3.5-3
			c0.6-0.2,0.7-1.2,0-1.3c-4.2-0.8-7.7-2.7-7.6-7.5c0-3.8,2.1-6.4,5-8.3c0.4,1.5,1.7,2.7,3.9,2.8c0.6,0,0.6-0.7,0.1-0.9
			c-1.4-0.5-2.2-1-2.7-2.4c-0.9-2.2,1.1-5,3.9-3.7c0.7,0.3,1.3-0.7,0.6-1.1c-2.8-1.3-3.3-4.7-1.9-7.2c1.3-2.4,3.5-3.2,6-3.5
			c0.2,0.1,0.4,0.2,0.6,0.3c0.3,0.1,0.6-0.1,0.6-0.4c0.2,0,0.3-0.4,0-0.5c-0.1,0-0.2,0-0.2-0.1c-1.3-1.1-2.4-1.9-2.4-3.9
			c0-1.6,0.7-3.4,1.9-4.5c1.1-1,2.6-1.8,4.1-1.8c1.3,0.1,2,0.7,2.6,1.4c0.1,0.5,0.3,1,0.5,1.6c0.3,0.7,1.2,0.4,1.1-0.3
			c-1-6,1.4-11.8,7.6-13.6c2.7-0.8,5.9-0.4,7.8,1.8c2.2,2.7,1.4,6-0.8,8.3c-0.1,0-0.1,0-0.2,0c-0.6,0-0.6,0.7-0.2,0.9
			c0.1,0.1,0.2,0.2,0.4,0.2c1.7,0.7,3.2,1.4,3.9,3.2c1,2.7-0.4,5.4-3,6.5c-0.4,0.2-0.6,0.8-0.1,1.1c2.8,1.7,4.6,4.8,3.8,8.1
			c-0.6,2.4-3.4,6.1-6.3,5.5c-0.2,0-0.3,0.1-0.3,0.2c-0.1,0-0.1,0-0.2,0c-0.5,0.1-0.5,0.9,0,0.9c2.4,0.4,4.8,1,6.1,3.3
			c1.6,2.9-0.1,6.7-3.4,7.4c-0.7,0.1-0.5,1.1,0.2,1.1c7.2,0,7.1,11.6,0.6,12.5c0,0,0,0,0,0c-0.3-0.6-1.1-0.2-1,0.4
			c0,0.1,0,0.2,0.1,0.2c0.6,2.8-0.1,4.3-2.2,4.4c-0.2,0-0.4,0-0.6,0c-0.7,0-0.7,1.1,0,1.1c2.2,0,4.5,0.5,6.1,2.2
			C48.9,75.5,48,80.8,43.6,80z"/>
		<path fill="#30758F" d="M37.9,11.7c-2.4-1.5-4.5,1.3-5.2,3.3c-1,3.2-0.8,6.5,0.4,9.5c-2-0.7-4.1-1.1-6.1-0.4
			c-1.3-1.5-1.4-3.2-1-5.2c0.1-0.7-1-1.1-1.1-0.3c-0.3,1.6-1.5,1.6-2.7,1.2c-0.6-0.2-1,0.6-0.6,1c1,0.8,2.2,0.8,3.1,0.1
			c0,1.4,0.4,2.8,1.5,3.5c-0.2,0.1-0.4,0.2-0.7,0.4c-2,1.4-2.6,3.6-2.7,5.8C22,29.8,21,29.1,19.7,29c-1.9-0.1-3.5,1.1-3.7,2.9
			c-0.1,0.7,1,0.8,1.2,0.2c1.2-3.8,4.8-0.6,5.6,1.4c0.3,0.7,1.4,0.7,1.4-0.2c-0.1-2.2-0.2-4.6,1.2-6.4c2.2-2.8,5.8-1.8,8.6-0.6
			c0.6,0.3,1.3-0.3,0.9-0.9c-1.9-4-3-12.4,2.9-13.4C38,12,38,11.8,37.9,11.7z"/>
		<path fill="#30758F" d="M40.4,20.9c0.6-0.4-0.2-1.2-0.8-0.8c-2.4,2-3.2,5-2.6,8c0.1,0.7,0.3,1.3,0.6,1.9c0.2,0.6,0.5,0.9,0.6,1.2
			c-3.1,2.9-7.1,6.9-11.5,3.7c-0.6-0.4-1.4,0.5-0.8,1.1c1.7,1.6,2,4.5,0.2,6.2c-1.9,1.7-4.6,1.4-6.6,0.2c-0.6-0.4-1.3,0.5-0.8,1
			c2.2,1.8,3.2,5.2,1.6,7.8c-1.6,2.6-4.9,3.1-7.7,2.2c-0.7-0.2-1.1,0.8-0.5,1.1c6.7,3.2,12.2-4.4,9.1-10c2.2,0.5,4.7,0,6.2-1.9
			c1.2-1.5,1.5-3.6,0.8-5.3c1.8,0.5,3.5,0.1,5.2-0.7c-2.1,4-0.7,9.6,3.9,10.3c-1.8,1.3-3.2,3.3-3,5.6c0.2,2.3,2,3.9,3.9,5.2
			c-3.2,1.2-5.5,4.2-5.3,7.8c0.1,1.6,2.1,7.3,4.5,4.8c0.1-0.1,0-0.1-0.1-0.1c-3.5,0.7-3-6.2-2.4-7.6c0.9-2.2,2.8-3.5,5.1-4.1
			c0.6-0.1,0.6-0.9,0.2-1.2c-1.7-1-3.7-2.1-4.4-4.1c-1.1-2.9,1-5.3,3.5-6.4c0.4-0.2,0.2-0.9-0.2-0.9c-4.1,0.2-6.4-3.6-5.4-7.4
			c0.4-1.5,1.2-2.8,2.3-3.8c0.1-0.1,0.2-0.2,0.3-0.3c1-0.8,2.1-1.5,3.3-1.9c0.3-0.1,0.5-0.4,0.3-0.7C37.8,28.3,36.7,23.8,40.4,20.9z
			"/>
		<path fill="#30758F" d="M40.8,81.1c-4-1.1-5.8-5.1-3.9-8.8c0.3-0.7-0.6-1.2-1-0.6c-2.2,3.8-0.7,8.3,3,10.1
			c-1.7,1.2-2.3,3.1-2.2,5.2c-1.2-1.4-2.6-2.6-4.4-3c-1.5-0.4-3.1-0.1-4.3,0.7c0.3-5.6-4.9-9.8-10.3-8.5c1.6-2.9,2.8-6.4,1.8-9.5
			c-0.7-2.3-3.1-4.2-5.6-3.5c-0.3,0.1-0.3,0.6,0.1,0.6c7.3,0.2,3.9,9.8,1.6,13.3c-0.4,0.6,0.3,1.2,0.9,0.9c5.7-2.8,11.7,2.3,9.9,8.4
			c-0.2,0.7,0.8,1.1,1.2,0.5c3-4.6,7.9,0.4,9.8,3.2c0.3,0.5,1.3,0.2,1.1-0.5c-1-2.7-1.1-6.3,2.2-7.3C41.4,82.2,41.4,81.3,40.8,81.1z
			"/>
		<path fill="#30758F" d="M33.2,80.6c-1.3-1-2.2-2.3-2.6-3.9c-0.1-0.4-0.5-0.5-0.8-0.3c-3.3,1.6-5.7-2-3.8-4.6
			c0.2-0.3-0.1-0.8-0.5-0.8c-1.9-0.1-2.9-2.3-2.9-3.8c0-0.9,0.1-1.8,0.3-2.7c0.4-1.9,1-3.6,2.6-4.7c0.3-0.2,0.4-0.9-0.1-1
			c-2.5-0.5-2.7-3.5-2-5.5c0.7-2.1,2.4-3.6,4.3-4.7c0.3-0.2,0.1-0.8-0.3-0.7c-2.9,0.9-5.1,3.5-5.5,6.6c-0.2,2,0.5,4.1,2.3,5
			c-2.9,3.1-4.5,11.2,0.4,12.3c-1.7,3.4,1.5,6.8,5.1,5.6c0.5,1.6,1.4,2.9,2.8,3.9C33.1,81.8,33.7,81,33.2,80.6z"/>
		<path fill="#30758F" d="M28.1,64.8c2.9-2.7,3.3-6.7,0.8-9.9c2.7-1.9,4-5.4,2.7-8.5c-0.3-0.6-1.2-0.2-1,0.4c1,2.9,0.2,5.9-2.6,7.5
			c-0.3,0.2-0.3,0.5-0.1,0.8c2.6,2.9,2.3,7-0.9,9.4c-0.3,0.2-0.4,0.6,0,0.8c2.5,1.2,5.7,3.6,3.4,6.7c-0.2,0.3,0.2,0.5,0.4,0.3
			C33.8,69.5,30.8,66.3,28.1,64.8z"/>
	</g>
	<g display="inline">
		<path fill="#30758F" d="M55.2,80.8c-1.9,1.2-3,3.5-2.8,5.8c0.2,2.6,2,4.3,4.2,4.2c-2.6,3.5,2.5,8.3,6.4,8.7c3.8,0.4,8-2.8,7.9-6.5
			c3.7,2.3,9.2-2.6,8.3-6.9c5.1,1.1,9.8-2.3,11.7-7.2c1.4-3.7,1.5-8.9-1.4-11.8c1.8-0.1,3.6-1.5,4-3.4c0.5-2.4-0.8-4.4-2.7-5.5
			c3.9-1.2,6.8-3.7,6.6-8.4c-0.1-3.5-2.3-8.5-6.2-9.2c0.2-2.2-1-4.5-3.3-4.9c3.2-3.8-0.4-10.8-5.4-11.2c2.4-2.5,1.4-7.3-1.4-9.5
			c-1.6-1.3-3.8-2.4-5.9-1.6c-0.4,0.2-0.8,0.4-1.1,0.6C74,7.8,68.3,1.9,62,1.8c-3.3-0.1-6.5,1.6-7.7,4.8c-1,2.7-0.2,5.5,1.7,7.3
			c-2.1,0.6-3.7,2.6-4.1,4.7c-0.5,2.7,0.9,5.2,3.1,6.5c-3,2.1-4.6,6-3.3,9.6c0.6,1.7,2.4,4.1,4.5,5c-4.5,1.7-5.9,8.4-1.8,11.4
			c-6.8,1.6-5.6,14.8,1.3,14.3c-0.5,1.7,0,3.4,1.3,4.4c-2.8,0.6-5.3,2.3-5.9,5.4C50.7,78.1,52.6,80.6,55.2,80.8z M53.9,72.9
			c1.5-1.7,3.9-2.2,6.1-2.2c0.7,0,0.7-1.1,0-1.1c-0.2,0-0.4,0-0.6,0c-2.1-0.1-2.8-1.5-2.2-4.4c0.1-0.1,0.1-0.1,0.1-0.2
			c0.1-0.5-0.7-0.9-1-0.4c0,0,0,0,0,0c-6.5-0.8-6.6-12.5,0.6-12.5c0.6,0,0.8-1,0.2-1.1c-3.3-0.6-5-4.4-3.4-7.4
			c1.3-2.3,3.7-3,6.1-3.3c0.5-0.1,0.5-0.8,0-0.9c-0.1,0-0.1,0-0.2,0c0-0.1-0.2-0.2-0.3-0.2c-2.9,0.6-5.7-3.1-6.3-5.5
			c-0.8-3.3,1-6.5,3.8-8.1c0.5-0.3,0.3-0.9-0.1-1.1c-2.6-1.1-4-3.8-3-6.5c0.7-1.8,2.3-2.6,3.9-3.2c0.2,0,0.3-0.1,0.4-0.2
			c0.4-0.3,0.3-0.9-0.2-0.9c-0.1,0-0.1,0-0.2,0c-2.2-2.2-3-5.6-0.8-8.3c1.9-2.3,5.1-2.6,7.8-1.8c6.2,1.8,8.6,7.7,7.6,13.6
			c-0.1,0.7,0.8,1,1.1,0.3c0.2-0.5,0.4-1,0.5-1.6c0.7-0.8,1.4-1.4,2.6-1.4c1.5-0.1,3,0.8,4.1,1.8c1.2,1.1,1.9,2.9,1.9,4.5
			c0,2-1.1,2.8-2.4,3.9c-0.1,0-0.2,0-0.2,0.1c-0.2,0.1-0.2,0.4,0,0.5c0.1,0.3,0.3,0.5,0.6,0.4c0.2-0.1,0.4-0.2,0.6-0.3
			c2.5,0.3,4.7,1.1,6,3.5c1.4,2.5,0.9,5.9-1.9,7.2c-0.7,0.3-0.1,1.4,0.6,1.1c2.8-1.3,4.8,1.5,3.9,3.7c-0.5,1.4-1.4,1.9-2.7,2.4
			c-0.5,0.2-0.4,0.9,0.1,0.9c2.2,0,3.4-1.3,3.9-2.8c2.9,1.9,5,4.6,5,8.3c0,4.8-3.4,6.8-7.6,7.5c-0.7,0.1-0.6,1.1,0,1.3
			c1.6,0.4,3,1.3,3.5,3c0.8,2.7-1.6,4.9-4.2,3.7c-0.7-0.3-1.3,0.6-0.6,1.1c0.1,0.1,0.2,0.1,0.3,0.2c7.1,6.2,0.7,21.5-9.2,17.7
			c-0.6-0.2-1.1,0.5-0.8,1c1.1,1.9,0.3,4-1.1,5.4c-1.6,1.5-4.3,2.1-5.8,0.2c0-0.1-0.1-0.1-0.1-0.1c-0.1-0.1-0.1-0.2-0.2-0.3
			c-0.2-0.4-0.7-0.1-0.7,0.3c0,0.1,0,0.2,0,0.3c-0.1,0.2-0.2,0.4,0,0.6c0,0,0.1,0.1,0.1,0.1c0.2,3.2-1.8,6.2-5.4,6.3
			c-1.9,0.1-3.9-0.7-5.2-2c-1.9-1.8-1.5-4-0.2-5.9c0.3-0.4-0.3-0.9-0.7-0.7c-0.1,0.1-0.3,0.2-0.4,0.3c-1.3,0.1-2.4,0-3.2-1.3
			c-0.6-1.1-0.7-2.5-0.4-3.7c0.5-2.1,2.1-3,3.9-3.9c0.4-0.2,0.2-0.9-0.2-0.9c-0.2,0-0.4,0-0.6,0.1C57,80,56.9,80,56.9,80
			C52.5,80.8,51.6,75.5,53.9,72.9z"/>
		<path fill="#30758F" d="M62.6,11.7c2.4-1.5,4.5,1.3,5.2,3.3c1,3.2,0.8,6.5-0.4,9.5c2-0.7,4.1-1.1,6.1-0.4c1.3-1.5,1.4-3.2,1-5.2
			c-0.1-0.7,1-1.1,1.1-0.3c0.3,1.6,1.5,1.6,2.7,1.2c0.6-0.2,1,0.6,0.6,1c-1,0.8-2.2,0.8-3.1,0.1c0,1.4-0.4,2.8-1.5,3.5
			c0.2,0.1,0.4,0.2,0.7,0.4c2,1.4,2.6,3.6,2.7,5.8c0.8-0.9,1.8-1.7,3.1-1.8c1.9-0.1,3.5,1.1,3.7,2.9c0.1,0.7-1,0.8-1.2,0.2
			c-1.2-3.8-4.8-0.6-5.6,1.4c-0.3,0.7-1.4,0.7-1.4-0.2c0.1-2.2,0.2-4.6-1.2-6.4c-2.2-2.8-5.8-1.8-8.6-0.6c-0.6,0.3-1.3-0.3-0.9-0.9
			c1.9-4,3-12.4-2.9-13.4C62.5,12,62.5,11.8,62.6,11.7z"/>
		<path fill="#30758F" d="M60.1,20.9c-0.6-0.4,0.2-1.2,0.8-0.8c2.4,2,3.2,5,2.6,8c-0.1,0.7-0.3,1.3-0.6,1.9
			c-0.2,0.6-0.5,0.9-0.6,1.2c3.1,2.9,7.1,6.9,11.5,3.7c0.6-0.4,1.4,0.5,0.8,1.1c-1.7,1.6-2,4.5-0.2,6.2c1.9,1.7,4.6,1.4,6.6,0.2
			c0.6-0.4,1.3,0.5,0.8,1c-2.2,1.8-3.2,5.2-1.6,7.8c1.6,2.6,4.9,3.1,7.7,2.2c0.7-0.2,1.1,0.8,0.5,1.1c-6.7,3.2-12.2-4.4-9.1-10
			c-2.2,0.5-4.7,0-6.2-1.9c-1.2-1.5-1.5-3.6-0.8-5.3c-1.8,0.5-3.5,0.1-5.2-0.7c2.1,4,0.7,9.6-3.9,10.3c1.8,1.3,3.2,3.3,3,5.6
			c-0.2,2.3-2,3.9-3.9,5.2c3.2,1.2,5.5,4.2,5.3,7.8c-0.1,1.6-2.1,7.3-4.5,4.8c-0.1-0.1,0-0.1,0.1-0.1c3.5,0.7,3-6.2,2.4-7.6
			c-0.9-2.2-2.8-3.5-5.1-4.1c-0.6-0.1-0.6-0.9-0.2-1.2c1.7-1,3.7-2.1,4.4-4.1c1.1-2.9-1-5.3-3.5-6.4c-0.4-0.2-0.2-0.9,0.2-0.9
			c4.1,0.2,6.4-3.6,5.4-7.4c-0.4-1.5-1.2-2.8-2.3-3.8c-0.1-0.1-0.2-0.2-0.3-0.3c-1-0.8-2.1-1.5-3.3-1.9c-0.3-0.1-0.5-0.4-0.3-0.7
			C62.7,28.3,63.7,23.8,60.1,20.9z"/>
		<path fill="#30758F" d="M59.7,81.1c4-1.1,5.8-5.1,3.9-8.8c-0.3-0.7,0.6-1.2,1-0.6c2.2,3.8,0.7,8.3-3,10.1c1.7,1.2,2.3,3.1,2.2,5.2
			c1.2-1.4,2.6-2.6,4.4-3c1.5-0.4,3.1-0.1,4.3,0.7c-0.3-5.6,4.9-9.8,10.3-8.5c-1.6-2.9-2.8-6.4-1.8-9.5c0.7-2.3,3.1-4.2,5.6-3.5
			c0.3,0.1,0.3,0.6-0.1,0.6c-7.3,0.2-3.9,9.8-1.6,13.3c0.4,0.6-0.3,1.2-0.9,0.9c-5.7-2.8-11.7,2.3-9.9,8.4c0.2,0.7-0.8,1.1-1.2,0.5
			c-3-4.6-7.9,0.4-9.8,3.2c-0.3,0.5-1.3,0.2-1.1-0.5c1-2.7,1.1-6.3-2.2-7.3C59.1,82.2,59.1,81.3,59.7,81.1z"/>
		<path fill="#30758F" d="M67.2,80.6c1.3-1,2.2-2.3,2.6-3.9c0.1-0.4,0.5-0.5,0.8-0.3c3.3,1.6,5.7-2,3.8-4.6
			c-0.2-0.3,0.1-0.8,0.5-0.8c1.9-0.1,2.9-2.3,2.9-3.8c0-0.9-0.1-1.8-0.3-2.7c-0.4-1.9-1-3.6-2.6-4.7c-0.3-0.2-0.4-0.9,0.1-1
			c2.5-0.5,2.7-3.5,2-5.5c-0.7-2.1-2.4-3.6-4.3-4.7c-0.3-0.2-0.1-0.8,0.3-0.7c2.9,0.9,5.1,3.5,5.5,6.6c0.2,2-0.5,4.1-2.3,5
			c2.9,3.1,4.5,11.2-0.4,12.3c1.7,3.4-1.5,6.8-5.1,5.6c-0.5,1.6-1.4,2.9-2.8,3.9C67.4,81.8,66.8,81,67.2,80.6z"/>
		<path fill="#30758F" d="M72.3,64.8c-2.9-2.7-3.3-6.7-0.8-9.9c-2.7-1.9-4-5.4-2.7-8.5c0.3-0.6,1.2-0.2,1,0.4
			c-1,2.9-0.2,5.9,2.6,7.5c0.3,0.2,0.3,0.5,0.1,0.8c-2.6,2.9-2.3,7,0.9,9.4c0.3,0.2,0.4,0.6,0,0.8c-2.5,1.2-5.7,3.6-3.4,6.7
			c0.2,0.3-0.2,0.5-0.4,0.3C66.7,69.5,69.7,66.3,72.3,64.8z"/>
	</g>
</g>
<g id="Layer_7" display="none">
	<g display="inline">
		<path fill="#30758F" d="M63.4,24.6c-8.1-4.2-20-5.4-27.9-0.2c-7.5,5-9.6,14.9-7.2,23.2c1.5,5.2,4.5,9.9,8,14
			c1.5,1.7,2.9,3.4,3.9,5.3c-0.1,0-0.2,0-0.2,0c-0.1,0,0,0.1,0,0.1c0.1,0,0.2,0,0.3,0c0.6,1,1.1,2.1,1.4,3.3
			c0.9,3.1,1.1,6.3,1.1,9.5c-1.2,0-2,1.3-2.1,2.4c0,0.5,0.2,1.2,0.5,1.7c-1.1,1-1,2.5-0.2,3.8c-1.1,2.3-0.1,3.9,1.8,5
			c2.3,6.7,15.2,6.4,17-0.7c1.3-1.3,1.9-3.2,1-5.5c0,0-0.1-0.1-0.1-0.1c0.1-0.7,0.1-1.6-0.2-2.5c-0.1-0.2-0.2-0.3-0.3-0.4
			c0.8-1.4,0.7-3.1-1-4.6C59.1,79,59,79,58.9,79c-1.7-12.3,10.6-20.3,14.6-31C77,38.6,72,29.1,63.4,24.6z M41.8,84.7
			c0.2,0.2,0.4,0.3,0.6,0.4c2.7,3,9.8,2.6,13,1.9c1.4-0.3,2.9-1.1,3.9-2.2C60.7,92.9,40.1,90.9,41.8,84.7z M51.1,96.5
			c-2.6-0.1-5-1.1-6.8-2.9c2.4,1,5.4,1.4,6.9,1.5c1.9,0.1,4.4-0.4,6.4-1.3C56,95.6,53.9,96.5,51.1,96.5z M60,88.1
			c0.5,4.2-4.8,5.7-8.3,5.7c-3.5,0-10.2-0.6-10-5.2c1.7,1.7,4.8,2.2,7,2.4C51.7,91.4,57.8,91,60,88.1z M58.9,80.4
			C58.9,80.4,58.9,80.4,58.9,80.4c1.5,1.9-0.2,4.3-2.3,5.1c-1.5,0.6-3.2,0.7-4.8,0.7c-2.6,0.1-6.2,0-8.6-1.6c0,0,0-0.1,0-0.1
			c-0.5-0.7-1.3-1.1-1.3-2.1c0-0.8,0.5-1.3,1-1.9c0,0.1,0,0.2,0,0.3c0,0,0,0,0,0c-0.1,0.1-0.2,0.2-0.1,0.4c0.2,0.4,0.7,0.7,1.1,0.9
			c0.4,0.2,0.9,0.4,1.4,0.4c2.1,0.9,5.2,0.8,7,0.8c0.4,0,1,0,1.5-0.1c0.2,0,0.4,0,0.5,0C56.3,83.1,58.7,82.5,58.9,80.4z M47.9,79.3
			c0.7-3.5,0.1-7.6-0.2-10.8c-0.5-4.4-1.5-8.8-2.7-13.1c-0.3-0.9-0.5-2-0.8-3.2c0.6-0.1,1.3-0.3,1.9-0.4c3-0.5,5.9-1.1,8.8-1.9
			c0.3-0.1,0.7-0.2,1.2-0.3c-0.8,3.4-1.5,6.8-1.9,10.2c-1.1,7.5-1.3,15-0.8,22.5c-1.1,0-2.1,0-2.9-0.1c-1.1-0.1-2.1-0.2-3-0.4
			c0.2-0.5,0.4-1,0.5-1.5C47.8,80,47.9,79.6,47.9,79.3z M70.4,51.8c-5.1,8.8-15.2,17-12.4,28.4c0,0,0,0,0,0c-0.6,1.2-2,1.8-3.4,2
			C54.1,75.5,54.2,68.7,55,62c0.5-4.2,1.1-8.7,2.4-12.8c2.8-0.9,6-2.4,5.6-5.4c-0.3-2.2-3-3.1-4.3-1.2c-0.1,0.1-0.1,0.2-0.1,0.3
			c-1.3,1.4-1.9,3.4-2.4,5.2c-0.2,0-0.3,0.1-0.5,0.1c-1.7,0.6-3.5,1-5.3,1.4c-1.8,0.4-3.6,0.7-5.4,1c-0.5,0.1-1,0.2-1.4,0.2
			c-0.6-1.5-1.4-2.9-2.8-3.5c-1.7-0.8-3.7,0.2-3.6,2.1c-0.4,1.3,1.1,2.9,2.6,3.1c1,0.1,2,0,3.1-0.1c0,0.1,0.1,0.2,0.1,0.3
			c0.4,1.3,0.8,2.6,1.2,3.9c0.7,2.6,1.4,5.3,1.8,7.9c0.5,2.9,0.8,5.9,0.9,8.9c0,2-0.3,4.1-0.4,6.2c0,0.1,0,0.2,0,0.3
			c-0.1,0.5-0.2,1-0.3,1.6c0,0,0,0,0,0.1c-0.8-0.2-1.6-0.5-2.5-0.9c0.1-1.2,0.1-2.4,0.1-3.6c0.4,0,0.9,0,1.3,0c0.1,0,0.1-0.2,0-0.2
			c-0.4,0-0.9,0-1.3,0c0-0.6-0.1-1.2-0.1-1.7c0.4,0,0.8,0,1.3,0.1c0.1,0,0.1-0.1,0-0.1c-0.4-0.1-0.9-0.1-1.3-0.1
			c-0.1-0.8-0.2-1.7-0.4-2.5c0.4,0,0.8,0,1.2,0c0.1,0,0.1-0.1,0-0.1c-0.4,0-0.8,0-1.2,0c-0.2-0.9-0.4-1.7-0.7-2.5c0.5,0,1.1,0,1.6,0
			c0.1,0,0.1-0.1,0-0.2c-0.6-0.1-1.1,0-1.7,0c-0.2-0.7-0.5-1.4-0.8-2.1c-0.1-0.2-0.2-0.4-0.3-0.6c0.6,0,1.1,0,1.7,0
			c0.1,0,0.1-0.1,0-0.2c-0.6-0.1-1.2-0.1-1.8,0c-0.4-0.8-0.9-1.6-1.4-2.4c0.6,0,1.2,0,1.7,0c0.1,0,0.1-0.2,0-0.2c-0.6,0-1.2,0-1.9,0
			c-0.6-0.8-1.2-1.6-1.8-2.4c0.8,0,1.6,0,2.3,0c0.1,0,0.1-0.1,0-0.2c-0.8-0.1-1.7-0.1-2.5,0c-0.7-0.8-1.4-1.6-2.1-2.5
			c1.2,0.1,2.4,0.2,3.7,0.3c0.1,0,0.1-0.1,0-0.2c-1.3-0.1-2.5-0.2-3.8-0.3c-0.5-0.6-1-1.2-1.4-1.9c1,0,2,0,3,0c0.1,0,0.1-0.2,0-0.2
			c-1,0-2.1,0-3.1,0c-0.1-0.1-0.2-0.2-0.3-0.4c-0.5-0.8-1.1-1.6-1.5-2.4c0.8,0,1.7,0.1,2.5,0.1c0.1,0,0.1-0.2,0-0.2
			c-0.9-0.1-1.7-0.1-2.6-0.1c-0.4-0.7-0.8-1.5-1.1-2.2c1,0,2.1,0,3.1,0c0.1,0,0.1-0.1,0-0.1c-1.1,0-2.1,0-3.2,0
			c-0.4-0.9-0.8-1.9-1.1-2.8c1.1,0,2.2,0,3.3,0c0.1,0,0.1-0.2,0-0.2c-1.1,0-2.2,0-3.3,0c-0.3-0.9-0.5-1.8-0.7-2.7c1,0,2,0,3,0
			c0.1,0,0.1-0.2,0-0.2c-1,0-2,0-3,0c-0.2-1.1-0.4-2.1-0.5-3.2c1.4-0.1,2.7-0.1,4.1,0c0.2,0,0.2-0.2,0-0.2c-1.4-0.1-2.8-0.1-4.1,0.1
			c-0.1-1-0.1-2,0-3c1-0.1,2.1-0.1,3.1-0.2c0.1,0,0.1-0.2,0-0.2c-1,0.1-2.1,0.2-3.1,0.2c0.1-1.1,0.2-2.2,0.5-3.3c1.3,0,2.6,0,3.9,0
			c0.1,0,0.1-0.2,0-0.2c-1.3,0-2.5,0-3.8,0c0.2-0.9,0.5-1.9,0.9-2.8c1.5,0,3,0,4.6,0c0.1,0,0.1-0.2,0-0.2c-1.5,0-3,0-4.5,0
			c0.5-1.1,1.1-2.2,1.8-3.2c1.2,0,2.5,0,3.7,0c0.2,0,0.2-0.2,0-0.2c-1.2,0-2.4,0-3.6,0c0.2-0.2,0.3-0.4,0.5-0.6
			c0.5-0.6,1.1-1.2,1.7-1.8c1.5-0.2,2.9-0.2,4.4-0.2c0.1,0,0.1-0.2,0-0.2c-1.4-0.1-2.8,0-4.2,0.2c1-0.9,2.1-1.6,3.2-2.2
			c1.7,0,3.4,0,5.1,0.1c0.2,0,0.2-0.3,0-0.3c-1.5-0.1-3.1-0.2-4.6-0.1c7.1-3.4,16.6-2.3,23.4,0.8c4.7,2.2,8.6,5.8,10.6,10.6
			C74.4,41.2,73.2,46.8,70.4,51.8z M58,47.6c0.5-1.5,1.1-2.9,1.9-4.2c2.1,0.5,2.5,1.3,1.1,2.3c-0.4,0.7-0.9,1.1-1.6,1.4
			C58.9,47.3,58.5,47.5,58,47.6z M42.6,51.1c-0.1,0-0.3,0-0.4,0.1c-1.1,0.2-3.5-0.3-3.7-1.5C40.8,48.7,42.1,49.1,42.6,51.1
			C42.6,51.1,42.6,51.1,42.6,51.1z"/>
		<path fill="#30758F" d="M22.9,41.5c-0.2-0.8-0.3-1.5-0.3-2.2c0,0,0-0.1,0-0.1c0-0.1,0-0.2-0.1-0.3c-0.1-0.1-0.1-0.1-0.2-0.1
			c-2.9-2-7.1-2.5-10.5-3c-0.5-0.1-0.8,0.4-0.6,0.8c0,2.4,0.3,4.7,1.1,7c0.1,0.3,0.6,0.4,0.8,0.2c1.4,0,2.7-0.4,4-0.7
			c1.8-0.3,3.5-0.6,5.3-0.8C22.7,42.1,23,41.9,22.9,41.5z M13.1,43c-0.2-2-0.5-3.9-0.7-5.9c2.9,0.9,6.1,1.4,9.1,2.2c0,0,0,0,0,0
			c0,0.7,0,1.3,0.1,1.9C18.9,41.4,15.5,41.7,13.1,43z"/>
		<path fill="#30758F" d="M34.1,21.5c-1.8-3.2-3.5-6.5-5.4-9.7c-0.2-0.3-0.5-0.4-0.8-0.2c-0.2-0.1-0.4-0.1-0.6,0
			c-2.2,0.9-4.1,2.9-5.5,4.8c-0.3,0.3,0,0.7,0.4,0.8c2.2,2,4.8,3.6,7.1,5.4c1.8,1.4,2.4,0.7,4.5-0.2C34.2,22.3,34.3,21.8,34.1,21.5z
			 M29.6,21.2c-0.7-0.5-1.4-1.1-2.2-1.6c-1.4-1-2.9-2.1-4.5-2.8c1.5-1.5,3.2-2.7,4.9-4c1.5,2.9,3.1,5.8,4.7,8.7
			C31.6,22,30.8,22,29.6,21.2z"/>
		<path fill="#30758F" d="M48,4.1c0-0.2-0.3-0.5-0.5-0.5c-2-0.3-4.4,0.5-6.5,0.5c-0.7,0-0.8,0.8-0.5,1.2c-0.1,0.1-0.2,0.2-0.2,0.4
			c1,3.5,1.9,7,2.4,10.6c0,0.3,0.4,0.5,0.6,0.5c2.9,0.1,3.6,0.5,4-2.5c0.2-1.8,0.4-3.7,0.5-5.5C48,7.3,48.3,5.5,48,4.1z M46.5,7.8
			c-0.1,1.5-0.2,3.1-0.3,4.6c-0.2,2.1-0.3,2.9-2.2,3C43.4,12,42.5,8.7,41,5.5c1.4,0,2.8-0.1,4.2-0.3C47.1,5,46.6,6.2,46.5,7.8z"/>
		<path fill="#30758F" d="M71.2,8.5c-0.9-0.8-1.9-1.3-2.9-1.8c-1.1-0.6-2.2-1.2-3.3-1.7c-0.3-0.1-0.6,0.1-0.6,0.4
			c-0.1,0-0.1,0.1-0.1,0.1c-1.7,3.2-2.9,6.7-4.2,10c-0.8,2.1,0.3,2.4,2.3,3.1c0.1,0,0.2,0,0.3,0c0.1,0,0.1,0,0.2-0.1
			c1.6-1.1,3.1-2.5,4.5-3.9c1.3-1.4,2.8-3,3.6-4.8C71,9.8,71,9.7,71,9.6C71.4,9.4,71.6,8.8,71.2,8.5z M66.3,13.6
			c-1.1,1.3-2.3,2.5-3.4,3.8c0,0,0,0,0,0c-0.4-0.3-0.8-0.5-1.3-0.7c-0.9-0.1-0.9-0.4-0.2-0.8c0.1-1,0.9-2.2,1.2-3.2
			c0.8-2.3,1.8-4.5,2.3-6.8c0.8,0.6,1.7,1.3,2.5,1.8c0.8,0.5,1.5,1.1,2.4,1.6C68.5,10.5,67.5,12.2,66.3,13.6z"/>
		<path fill="#30758F" d="M85.9,23.5c0-0.1,0-0.2,0-0.3c-0.2-1.1-1.3-2.1-2.1-2.9c-0.9-1-1.9-2-2.9-2.8c-0.2-0.2-0.4-0.2-0.5-0.1
			c-0.1,0-0.2,0-0.4,0.1c-1.7,1.3-3.1,2.8-4.6,4.3c-0.9,0.9-2.5,2-2.7,3.4c-0.2,0.1-0.4,0.3-0.3,0.6c0.3,0.6,0.6,1.1,0.9,1.7
			c0.2,0.5,0.4,1.2,0.9,1.4c0.2,0.1,0.5,0,0.6-0.1c0,0,0,0,0.1,0c3.6-1.1,7.2-2.5,10.7-3.9C86.2,24.6,86.2,23.8,85.9,23.5z
			 M74.8,27.7c-0.1-0.3-0.3-0.6-0.5-0.8c-0.3-0.5-0.6-0.9-1-1.3c0,0,0,0,0,0c0.3-0.9,1.2-1.4,1.9-2c0.6-0.5,1.3-1.1,1.9-1.7
			c1.2-1.1,2.5-2.1,3.6-3.3c0.7,0.9,1.4,1.8,2.1,2.7c0.5,0.7,1,1.7,1.7,2.3C81.2,24.8,77.9,26.1,74.8,27.7z"/>
		<path fill="#30758F" d="M89.4,43.6c-3.6-1.1-7.2-2-11-2.5c-0.2,0-0.3,0.1-0.4,0.2c-0.1,0-0.2,0.1-0.3,0.3
			c-0.2,0.5-0.3,1.1-0.5,1.7c-0.2,0.6-0.5,1.1-0.7,1.6c-0.2,0.4,0.1,0.7,0.5,0.9c1,1.4,2.2,2.7,3.5,3.9c1.3,1.2,2.7,2.8,4.3,3.5
			c0.2,0.1,0.4,0.1,0.6,0c0.2,0,0.5,0,0.6-0.3c1.2-2.7,2.5-5.4,3.7-8.1C90,44.2,89.9,43.7,89.4,43.6z M85.1,51.6
			c-1.1-1.1-2.4-2-3.5-3c-1.2-1.1-2.4-2.2-3.6-3.2c0.5-0.9,0.8-2.2,0.7-3.4c3.1,1,6.3,1.8,9.5,2.7C87.2,47,86.2,49.3,85.1,51.6z"/>
		<path fill="#30758F" d="M78.3,66.3c-0.8-1.3-3.1-2-4.4-2.8c-1.7-1-3.5-2.1-5.5-2.7c-0.1,0-0.2,0-0.3,0.1c-0.2-0.1-0.4,0-0.6,0.2
			c-0.4,0.4-0.6,0.9-0.9,1.3c-0.3,0.4-0.6,0.9-0.9,1.3c-0.1,0.2,0,0.5,0.1,0.6c0.3,1.5,1.7,2.8,2.6,3.9c1,1.4,2,3,3.3,4.1
			c0.1,0.1,0.2,0.1,0.3,0.1c0.1,0.1,0.2,0.1,0.3,0.1c1.3-0.1,2.3-1.3,3.2-2.3c0.7-0.8,1.7-1.8,2.2-2.9
			C78.2,67.3,78.5,66.8,78.3,66.3z M74.9,68.9c-0.7,0.9-1.4,2-2.3,2.7c-0.7-1.5-1.9-2.8-2.9-4c-0.9-1.1-1.9-2.6-3.2-3.3
			c0.4-0.3,0.7-0.7,1.1-1.1c0.3-0.4,0.7-0.8,1-1.3c0-0.1,0-0.1,0.1-0.2c1.1,1,2.4,1.8,3.7,2.6c0.8,0.5,1.6,1,2.4,1.5
			c0.4,0.3,1.1,0.6,1.7,0.9C75.8,67.4,75.4,68.2,74.9,68.9z"/>
		<path fill="#30758F" d="M29,56.4c-0.4-0.5-0.8-0.9-1.2-1.3c-0.4-0.5-0.7-1-1.1-1.5c0,0,0,0-0.1-0.1c0-0.1-0.1-0.1-0.2-0.1
			c-1.7,0.2-3.2,0.8-4.7,1.4c-1.6,0.6-3.2,1.1-4.6,1.9c-0.3,0.2-0.3,0.5-0.1,0.7c-0.1,0-0.2,0.2-0.3,0.3c-0.4,1,0.6,2.7,1,3.6
			c0.7,1.3,1.6,2.8,2.9,3.6c0.3,0.2,0.7,0,0.8-0.3c0.2,0,0.4,0,0.5-0.2c1.3-1.3,2.7-2.5,4.1-3.8c1.2-1,2.5-2.2,3-3.8
			c0,0,0-0.1,0-0.1C29.1,56.8,29.1,56.6,29,56.4z M24.5,60.2c-1.3,1-2.6,2.1-3.6,3.4c-1.3-1.7-3-3.4-3.4-5.5c0-0.1,0-0.1,0-0.2
			c0,0,0-0.1-0.1-0.1c0,0,0,0,0,0c1.7-0.4,3.3-1.1,4.9-1.8c1.4-0.5,2.8-1,4-1.8c0.2,1.1,0.8,2.2,1.7,2.9
			C26.9,58.1,25.7,59.2,24.5,60.2z"/>
		<path fill="#30758F" d="M38.9,67.6c-0.2-0.5-0.8-0.7-1.2-1c-0.5-0.3-0.9-0.7-1.3-1c-0.2-0.2-0.5-0.1-0.6,0.1c-0.1,0-0.2,0-0.3,0
			c-2.7,1.8-5.8,3.6-8.1,5.9c-0.3,0.3-0.2,0.7,0,0.9c0.3,1.2,1.4,2.1,2.3,2.9c1.1,0.9,2.7,2,4.2,1.9c0.4,0,0.6-0.5,0.4-0.8
			c0.3,0,0.5,0,0.7-0.3c1.6-2.4,3-5.5,3.8-8.2c0-0.1,0-0.1,0-0.1C38.9,67.8,38.9,67.7,38.9,67.6z M33.8,75.8c-0.1,0.2-0.1,0.3,0,0.4
			c-1-0.5-2.1-0.8-3-1.4c-0.9-0.6-1.9-1.3-2.5-2.2c2.8-1.6,5.3-4.1,7.6-6.3c0,0,0,0,0,0c0.3,0.4,0.6,0.8,1,1.2
			c0.3,0.2,0.6,0.6,1,0.7C36.3,70.4,34.8,73.2,33.8,75.8z"/>
	</g>
</g>
<g id="Layer_6" display="none">
	<g display="inline">
		<path fill="#30758F" d="M78.7,49.7c1.9-8.4,2.9-17.1,0.9-25.4C77.3,15,71.2,7.9,62.3,4.5C57.1,2.6,51.5,1.8,46,2.5
			c-2.2,0.2-7.3,0.6-9,2.7c-2.3,0.8-4.4,1.8-6.2,3.2c-12,9-12,25.6-8.2,38.7c2.5,8.7,6.3,17.1,10.3,25.2C37,81,41.5,90,47.3,97.7
			c0.2,0.2,0.4,0.3,0.6,0.3c-0.1,0.2-0.1,0.4,0,0.6l0.3,0.3c0.2,0.2,0.5,0.3,0.8,0.2c4.1-1.3,8.2-4.1,12-6.2
			c0.5-0.3,0.5-0.7,0.4-1.1c6.6-9.5,11.2-20.6,14.6-31.6c0,0,0.1-0.1,0.1-0.1c0.2-0.1,0.2-0.4,0-0.5c0.1-0.4,0.2-0.8,0.3-1.2
			c0.3-0.9,0.5-1.7,0.7-2.6c0,0,0,0,0,0c0.1-0.1,0.1-0.1,0.1-0.2c0.5-1.7,0.9-3.4,1.4-5.2c0.1,0,0.1-0.1,0.2-0.1
			C79,50.1,78.9,49.8,78.7,49.7z M79,34.2c0,0.6,0,1.3-0.1,1.9c-2.4,1.3-5,2.7-6.9,4.6c0.1-1,0.2-2.1,0.2-3.1c1.6-0.7,3-1.6,4.5-2.4
			c0.7-0.4,1.5-0.7,2.2-1.2C79,34.1,79,34.2,79,34.2z M78.9,33.3c-1.1,0.7-2.3,1.3-3.4,1.9c-1.1,0.7-2.3,1.3-3.3,2.1
			c0-0.8,0.1-1.6,0.1-2.4c2.2-1.3,4.6-2.5,6.5-4.1C78.9,31.7,78.9,32.5,78.9,33.3z M78.8,30.3c-2.3,1.1-4.4,2.8-6.5,4.2
			c0-1,0-2.1,0-3.1c2.1-1.1,4.2-2.3,6.2-3.5C78.6,28.7,78.7,29.5,78.8,30.3z M78.4,27.3c-2.1,1.2-4.1,2.5-6.1,3.8
			c-0.1-1.3-0.2-2.6-0.3-3.9c0,0,0.1,0,0.1,0c1.9-0.8,4-1.6,5.7-2.8C78,25.4,78.2,26.3,78.4,27.3z M77.6,23.8
			c-1.9,1-3.8,2.2-5.7,3.2c0,0,0,0,0,0c-0.1-1.1-0.3-2.1-0.5-3.2c0.4-0.2,0.9-0.5,1.2-0.7c1.3-0.7,2.8-1.3,4.1-2.1
			C77.1,22,77.4,22.9,77.6,23.8z M76.5,20.5c-0.7,0.4-1.5,0.8-2.2,1.2c-0.6,0.3-2,1.4-3,1.8c-0.3-1.2-0.6-2.4-1-3.5
			c0.9-0.5,1.8-1.1,2.6-1.6c0.6-0.4,1.4-0.8,1.9-1.2C75.5,18.2,76.1,19.4,76.5,20.5z M74.6,16.7c-0.7,0.3-1.3,0.8-1.9,1.2
			c-0.8,0.6-1.7,1.1-2.5,1.7c-0.4-1.2-0.9-2.3-1.4-3.4c1.3-0.7,2.7-1.4,4-2.2C73.5,14.8,74.1,15.7,74.6,16.7z M72.4,13.4
			c-1.3,0.7-2.6,1.6-3.8,2.4c-0.4-0.8-0.9-1.6-1.4-2.4c0,0,0.1,0,0.1,0c1.1-0.7,2.3-1.2,3.3-1.8C71.3,12.2,71.9,12.8,72.4,13.4z
			 M70.3,11.2c-1.1,0.5-2.1,1.3-3.1,2c-0.1,0-0.1,0.1-0.1,0.1c-0.4-0.5-0.7-1.1-1.1-1.6c-0.2-0.3-0.5-0.6-0.8-0.9c0,0,0,0,0,0
			c0.9-0.5,1.9-0.9,2.7-1.5C68.8,9.9,69.6,10.5,70.3,11.2z M67.2,8.8c0.1,0.1,0.2,0.2,0.4,0.3c-0.9,0.4-1.7,1-2.5,1.5
			c0,0,0,0.1-0.1,0.1c-0.8-0.8-1.7-1.6-2.6-2.3c0.3-0.3,0.7-0.5,1-0.8c0.2-0.2,0.5-0.3,0.8-0.5C65.3,7.7,66.3,8.2,67.2,8.8z M63.7,7
			c-0.6,0.3-1.1,0.8-1.6,1.2c-0.9-0.6-1.9-1.2-3-1.7c0.2-0.4,0.6-0.6,0.9-0.9C61.3,6,62.6,6.4,63.7,7z M52.7,4.2
			c2.3,0.2,4.7,0.6,6.9,1.3c-0.3,0.2-0.5,0.5-0.7,0.9c-2.2-1-4.6-1.8-7.1-2.2C52.1,4.1,52.4,4.1,52.7,4.2z M48,96.4
			c-0.8-1.5-1.5-2.9-2.3-4.4c1.2-0.1,2.3-0.3,3.5-0.5c0.1,0,0.1-0.2,0-0.2c-1.2,0.1-2.4,0.3-3.6,0.4c-0.6-1.1-1.2-2.3-1.9-3.4
			c1.8,0,3.6,0.1,5.4,0c0.2,0,0.2-0.2,0-0.3c-1.9-0.1-3.7-0.1-5.6,0c-0.6-1.1-1.2-2.1-1.7-3.2c2.4-0.3,4.7-0.4,7.1-0.4
			c0.2,0,0.2-0.3,0-0.3c-2.4-0.1-4.9,0.1-7.3,0.4c-0.7-1.2-1.3-2.4-1.9-3.6c2.2,0.1,4.3,0,6.5-0.2c0.1,0,0.1-0.2,0-0.2
			c-2.2,0.1-4.4,0.2-6.6,0.2C39,79.9,38.5,79,38,78c3.3-0.1,6.6-0.3,10-0.5c0.2,0,0.2-0.3,0-0.3c-3.4,0.1-6.7,0.4-10.1,0.6
			c-0.5-0.9-0.9-1.7-1.4-2.6c2.2-0.2,4.5-0.3,6.7-0.6c0.2,0,0.2-0.3,0-0.3c-2.3,0.1-4.6,0.3-6.9,0.6c-0.6-1.1-1.1-2.2-1.7-3.3
			c3.6,0,7.2-0.1,10.8-0.4c0.2,0,0.2-0.4,0-0.3c-3.7,0.3-7.3,0.4-11,0.5c-0.6-1.1-1.1-2.2-1.6-3.3c1.9,0,3.7,0,5.6,0
			c0.2,0,0.2-0.3,0-0.3c-1.9,0-3.8,0-5.8,0c-0.6-1.2-1.1-2.3-1.7-3.5c4,0.1,8,0,12-0.2c0.2,0,0.2-0.3,0-0.3c-4,0.1-8.1,0.2-12.1,0.2
			c-0.5-1-0.9-2.1-1.4-3.1c1.7,0,3.4,0,5.1-0.2c0.2,0,0.2-0.3,0-0.3c-1.7,0.2-3.5,0.3-5.2,0.3c-0.3-0.6-0.5-1.3-0.8-1.9
			c-0.2-0.5-0.4-1-0.6-1.5c3.9,0.3,7.8,0.1,11.6,0c0.2,0,0.2-0.3,0-0.3c-3.9-0.1-7.8-0.2-11.7,0c-0.4-1-0.8-2.1-1.2-3.2
			c0,0,0,0,0.1,0c2-0.2,3.9-0.2,5.9-0.2c0.2,0,0.2-0.3,0-0.3c-2-0.2-3.9,0-5.9,0.2c-0.1,0-0.1,0.1-0.1,0.1c-0.5-1.2-0.9-2.4-1.3-3.6
			c3,0.1,6.1,0,9.1,0c0.2,0,0.2-0.3,0-0.3c-3.1,0-6.2-0.1-9.2,0c-0.3-1-0.7-2-1-3.1c1.5,0,3.1-0.1,4.6-0.5c0.1,0,0.1-0.2-0.1-0.2
			c-1.5,0.3-3.1,0.4-4.6,0.4c-0.3-1.2-0.7-2.4-1-3.6c1.8,0,3.6,0.1,5.4,0.3c0.2,0,0.2-0.3,0-0.3c-1.8-0.3-3.6-0.3-5.5-0.2
			c-0.2-1-0.4-2-0.6-3.1c1.6,0,3.1,0,4.7,0c0.2,0,0.2-0.3,0-0.3c-1.6-0.1-3.2,0-4.8,0c-0.2-1.4-0.4-2.8-0.5-4.2c1.2,0,2.3,0,3.5,0
			c0.2,0,0.2-0.3,0-0.3c-1.2,0-2.3,0-3.5,0c-0.1-1.5-0.1-2.9,0-4.4c1.3,0,2.6,0,4,0c0.2,0,0.2-0.3,0-0.3c-1.3,0-2.6,0-3.9,0
			c0.1-1.5,0.3-3,0.6-4.5c1.1,0,2.2,0,3.4,0c0.2,0,0.2-0.3,0-0.3c-1.1,0-2.2,0-3.3,0c0.3-1.2,0.6-2.4,1-3.6c1.3,0,2.6,0.1,3.9,0
			c0.2,0,0.2-0.3,0-0.3c-1.2,0-2.5,0-3.8,0c0.5-1.2,1-2.5,1.7-3.7c1.5,0.1,3,0.2,4.5,0.2c0.2,0,0.2-0.3,0-0.4
			C28.4,17.1,27,17,25.5,17c0.8-1.4,1.7-2.7,2.7-3.8c2.1,0.2,4.2,0.4,6.3,0.7c0.2,0,0.4-0.3,0.1-0.4c-2-0.4-4.1-0.6-6.2-0.6
			c0.8-0.9,1.7-1.7,2.6-2.5c2.6-0.2,5.2-0.2,7.8,0.1c0.2,0,0.2-0.3,0-0.4c-2.4-0.3-4.8-0.3-7.2-0.1c1.5-1.1,3.1-2,4.8-2.7
			c0,0.1,0,0.2,0.1,0.2c1.7,0.1,3.5,0.3,5.2,0.4c0.2,0,0.2-0.4,0-0.4c-1.3-0.1-2.6-0.2-3.9-0.3c0.1-0.1,0.2-0.3,0.2-0.4
			c0,0,0-0.1,0.1-0.1c1.4-0.4,3-0.7,4.5-0.8c6.8-0.5,15.6,0.8,20.4,6c10.1,10.8,7.8,28.7,4.4,41.7C63.6,68.9,56.8,83.3,48,96.4z
			 M60.3,91c-0.1,0-0.3,0-0.4,0.1c-3.1,1.6-6.6,3.2-9.7,5.2c0.5-0.8,1.1-1.6,1.6-2.5c3.5-1.9,7.1-4.1,10.4-6.5
			C61.6,88.6,60.9,89.8,60.3,91z M62.9,86c-3.5,2-6.9,4.4-10.3,6.7c0.8-1.2,1.5-2.4,2.2-3.7c3.2-1.8,6.4-3.6,9.5-5.7
			C63.8,84.3,63.3,85.2,62.9,86z M64.8,82.2c-3.3,1.8-6.5,4-9.6,6.1c0.9-1.5,1.8-3.1,2.6-4.7c3.1-1.9,6.2-4,9.2-6.1
			C66.3,79,65.6,80.6,64.8,82.2z M67.7,76.2c-3.1,2.1-6.3,4.2-9.3,6.4c0.7-1.4,1.4-2.7,2.1-4.1c2.8-1.5,5.6-3.1,8.4-4.8
			C68.4,74.6,68,75.4,67.7,76.2z M69.4,72.5c-2.9,1.7-5.8,3.5-8.6,5.4c0.5-1.1,1-2.2,1.5-3.3c2.7-1.4,5.5-2.9,8.1-4.5
			C70.1,70.9,69.7,71.7,69.4,72.5z M70.8,69.1c-2.8,1.5-5.6,3.2-8.3,4.9c0.5-1.1,0.9-2.1,1.4-3.2c2.8-1.7,5.5-3.3,8.3-5.1
			C71.7,66.9,71.3,68,70.8,69.1z M72.5,64.8c-2.8,1.7-5.6,3.5-8.3,5.3c0.5-1.2,0.9-2.4,1.4-3.6c2.7-1.8,5.4-3.4,8.2-5.1
			C73.4,62.6,72.9,63.7,72.5,64.8z M74.1,60.4C71.2,62,68.4,64,65.8,66c0.5-1.4,1-2.8,1.4-4.1c2.6-1.3,5.4-2.7,7.8-4.4
			C74.8,58.4,74.5,59.4,74.1,60.4z M75.4,56.3c-2.7,1.6-5.3,3.5-8,5.1c0.3-1,0.6-2,0.9-3c2.6-1.3,5.2-2.8,7.7-4.4
			C75.9,54.7,75.6,55.5,75.4,56.3z M76.3,53.1c-2.6,1.5-5.3,3.1-7.8,4.8c0.2-0.8,0.4-1.5,0.7-2.3c2.5-1.4,5.1-2.7,7.6-4.1
			C76.6,52,76.4,52.6,76.3,53.1z M77,50.4c-2.6,1.3-5.2,3-7.7,4.6c0.1-0.5,0.3-1.1,0.4-1.6c0.1-0.3,0.2-0.7,0.2-1
			c2.6-1.6,5.3-3.4,7.7-5.4C77.4,48.2,77.2,49.3,77,50.4z M77.8,46c-2.7,1.8-5.2,3.9-7.8,5.8c0.3-1.2,0.6-2.5,0.8-3.8
			c1.3-0.7,2.6-1.6,3.8-2.4c1.1-0.7,2.3-1.3,3.5-2C78.1,44.5,78,45.3,77.8,46z M78.3,42.8c-2.5,1.3-5.2,2.8-7.3,4.7
			c0.2-0.9,0.3-1.9,0.5-2.9c1.5-0.8,2.9-1.7,4.4-2.6c0.9-0.6,1.9-1.1,2.8-1.7C78.5,41.1,78.4,42,78.3,42.8z M75,41.9
			c-1.2,0.8-2.3,1.5-3.4,2.4c0.1-1,0.3-1.9,0.4-2.9c1.4-0.7,2.6-1.7,3.9-2.5c1-0.6,2-1.2,3.1-1.8c0,0.8-0.1,1.6-0.2,2.4
			C77.4,40.1,76.2,41,75,41.9z"/>
		<path fill="#30758F" d="M60.7,25.4c-0.5-3.1-1.8-5.9-3.8-8.1c0-0.4-0.2-0.7-0.7-0.7c0,0,0,0,0,0c-2.5-2.4-5.7-3.8-9.3-3.4
			c-1-0.6-2.3-0.3-3.4-0.2c-1.1,0.2-2,0.4-3,0.9c-7.1,0.6-11.3,10.6-10.6,17c1.1,9.4,9.2,15.3,18.5,13.7C57.6,43,62.1,34,60.7,25.4z
			 M53.1,16.4c-0.7,0-1.3,0.1-1.9,0.1c-0.7-0.4-1.5-0.7-2.3-1c-0.4-0.2-0.9-0.4-1.3-0.5C49.6,14.8,51.5,15.3,53.1,16.4z M46.5,15.1
			c0.7,0.4,1.5,0.7,2.2,1.1c0.4,0.2,0.7,0.4,1.1,0.5c-0.6,0.1-1.3,0.3-1.8,0.5c-0.5-0.4-1.1-0.6-1.6-0.9c-0.5-0.3-1-0.5-1.4-0.8
			C45.4,15.3,46,15.2,46.5,15.1z M43.1,15.4c0.2,0.3,0.5,0.5,0.8,0.4c0.6,0.4,1.3,0.9,1.9,1.3c0.3,0.2,0.6,0.4,0.9,0.6
			c-0.3,0.2-0.7,0.3-1,0.5c-1.3-0.9-2.8-1.7-4.2-2.5C42,15.7,42.5,15.5,43.1,15.4z M40.6,16.1c1.3,1,2.8,2,4.3,2.7
			c-0.5,0.3-0.9,0.7-1.3,1.2c-1.9-1-4-1.8-5.9-2.6C38.5,16.8,39.5,16.4,40.6,16.1z M37.2,17.6c1.9,1,3.9,2.1,5.9,2.8
			c-0.5,0.6-0.9,1.2-1.3,1.9c-2.1-1.2-4.4-2.1-6.6-3.1C35.8,18.5,36.5,18,37.2,17.6z M34.9,19.5c2.2,1.1,4.4,2.3,6.6,3.3
			c-0.3,0.6-0.6,1.3-0.8,2c-2.4-1.1-5-1.9-7.4-3C33.8,21,34.3,20.2,34.9,19.5z M33.2,22.1c2.4,1.2,4.9,2.5,7.4,3.2
			c-0.2,0.6-0.3,1.3-0.3,2c-2.6-1-5.2-2-7.8-2.8c-0.2,0-0.3,0.2-0.1,0.3c2.5,1.2,5.2,2.4,7.8,3.3c-0.1,0.9-0.1,1.8,0,2.7
			c-2.6-1.2-5.6-2-8.4-2.9C31.9,25.9,32.4,23.9,33.2,22.1z M31.8,28.3c2.7,1.1,5.6,2.4,8.4,3.1c0.1,0.8,0.2,1.7,0.3,2.5
			c-2.8-1.1-5.8-2-8.6-3C31.9,30,31.8,29.1,31.8,28.3z M32.2,31.9c0-0.2-0.1-0.4-0.1-0.6c1,0.7,2.7,1,3.7,1.4c1,0.4,1.9,0.7,2.9,1.1
			c0.5,0.2,1,0.4,1.5,0.5c0.2,0.1,0.4,0.2,0.7,0.2c0.2,1,0.5,1.9,0.9,2.9c-2.9-1.1-5.9-1.9-8.7-3C32.6,33.7,32.4,32.8,32.2,31.9z
			 M42.1,38.4c0.2,0.5,0.5,1,0.8,1.5c-2.5-0.5-5-0.9-7.5-1.4c-0.9-0.9-1.6-2-2.2-3.3C36,36.5,39.1,37.8,42.1,38.4z M36,39
			c2.4,0.6,4.9,1.3,7.4,1.6c0.6,0.8,1.3,1.4,2,2C41.8,42.6,38.5,41.4,36,39z M48.1,42.4c-0.4,0.1-0.8,0.1-1.2,0.2
			c-2.5-4.5-5.2-8.1-5-13.7c0-0.1,0-0.3,0-0.4c0.2-0.1,0.2-0.3,0-0.5c0.3-3.2,1.5-6.3,4.2-8.2c2.8-2,5.8-1.7,9-1.4
			C60.9,25.4,59.8,40.4,48.1,42.4z"/>
	</g>
</g>
<g id="Layer_5" display="none">
	<g display="inline">
		<path fill="#30758F" d="M97.3,49.3C91,43,83.5,37.8,76.5,32.2c-7-5.7-13.9-11.4-21-17c-0.3-0.2-0.6-0.3-0.9-0.2
			c-0.1-0.2-0.2-0.3-0.5-0.4c-6.2-2-12.7-3.9-19-5.3c-0.2,0-0.3,0-0.4,0c0-0.1-0.1-0.1-0.1-0.2c-0.3-0.4-1-0.2-0.8,0.3
			c0,0.1,0.1,0.1,0.1,0.2c-0.1,0-0.1,0-0.2,0.1c-7.5,7.6-14.9,15.2-22.1,23.1C9.8,34.7,1,42,4.2,45.2c-0.1,0.2,0,0.4,0.1,0.6
			c8,8.6,18.3,15.6,27.4,23c9.3,7.6,18.3,15.3,27.5,22.9c0.3,0.3,0.7,0.3,1.1,0.2c2,0.9,3.3,0,4.9-1.5c3.9-3.8,7.2-8.5,10.7-12.7
			c7.1-8.5,14.1-17.1,20.9-25.9c0.4-0.5,0.2-1-0.1-1.4C97.3,50.5,97.8,49.8,97.3,49.3z M50.3,15.2c-1.3,1.2-2.6,2.4-3.8,3.6
			c-0.9,0.9-1.8,2-2.8,2.8c-1.1,0.9-0.8,1.1-1.8,0.3c-1.4-1.1-2.4-4.6-3.3-6.2c-0.9-1.6-1.8-3.2-2.8-4.7
			C40.5,12.6,45.4,14,50.3,15.2z M95.6,50.5c-5.6,7-11.1,13.9-16.8,20.8c-2.7,3.3-5.5,6.6-8.3,9.9c-1.8,2.1-6.3,9.2-9.4,9.4
			c-0.1-0.1-0.1-0.2-0.2-0.3c-9.5-7.8-19-15.5-28.4-23.4c-8.7-7.3-17.1-15.7-26.7-21.8c-1-3.6,4.3-7.7,6.6-10.2
			c2.4-2.6,4.8-5.2,7.2-7.8c5-5.4,9.9-11,14.8-16.6c1.1,2.8,2.4,5.4,3.8,8.1c0.8,1.6,1.8,5.4,3.7,6.1c1.4,0.6,2.5-0.8,3.4-1.7
			c2.5-2.3,4.9-4.8,7.1-7.3c0.5,0.1,1.1,0.3,1.6,0.4c0,0,0,0,0,0c0,0.2,0.1,0.4,0.3,0.6c7.2,6,14.5,11.7,21.8,17.5
			c6.7,5.4,13.2,11.2,20.3,15.9C96,50.1,95.7,50.2,95.6,50.5z"/>
		<path fill="#30758F" d="M35,23.1c-3.4,3.1-6.3,6.8-9.4,10.1c-3.2,3.3-6.5,6.6-9.6,10c-0.4,0.4,0.2,1,0.6,0.6
			c6.8-5.7,14.2-12.7,19.2-20.1C36.2,23.2,35.4,22.7,35,23.1z"/>
		<path fill="#30758F" d="M40.5,27.6C33.9,33.6,27.8,40.7,22,47.6c-0.4,0.4,0.2,1,0.6,0.6c6.8-5.9,13.7-12.6,18.9-19.9
			C42,27.7,41,27.1,40.5,27.6z"/>
		<path fill="#30758F" d="M53.6,24c-8.9,9.2-18.5,18.1-26,28.5c-0.4,0.5,0.4,1.1,0.9,0.7c9.4-8.6,17.4-18.9,26-28.3
			C55.1,24.3,54.2,23.4,53.6,24z"/>
		<path fill="#30758F" d="M59.3,28.5c-8.4,10.1-17.5,19.5-26,29.5c-0.5,0.5,0.2,1.3,0.8,0.8c9.8-8.7,18.3-18.8,26.6-28.9
			C61.5,28.9,60.1,27.5,59.3,28.5z"/>
		<path fill="#30758F" d="M65.3,33.7C55.8,42.2,47,53.1,39.8,63.5c-0.5,0.7,0.7,1.7,1.3,1c4.2-4.9,8.2-10.1,12.4-15
			c4.2-5,8.8-9.6,12.9-14.7C66.9,34.1,66,33.1,65.3,33.7z"/>
		<path fill="#30758F" d="M70.4,37.6c-8.4,9.7-16.8,20.3-24,31c-0.4,0.7,0.6,1.4,1.1,0.9c8.6-9.6,16.8-20.3,24.1-30.9
			C72.1,37.9,71,37,70.4,37.6z"/>
		<path fill="#30758F" d="M77.7,43.3c-9.2,9.4-17.9,20-25.4,30.8c-0.5,0.7,0.7,1.7,1.2,1C62,64.8,70.4,54.6,78.9,44.4
			C79.6,43.6,78.5,42.5,77.7,43.3z"/>
		<path fill="#30758F" d="M85,48.6c-8.9,9.9-17.6,20.3-25.5,30.9c-0.5,0.6,0.6,1.4,1.1,0.8c8.9-9.8,17.6-20,25.9-30.3
			C87.3,49,85.9,47.5,85,48.6z"/>
	</g>
</g>
<g id="Layer_2" display="none">
	<g display="inline">
		<path fill="#30758F" d="M82.4,17.5C68.1,4.6,46.1,2.9,29.4,11.7c-17.2,9-28.5,28-25.8,47.5c3.2,22.4,28.9,33.9,49,34.4
			c9.4,0.3,17.8-2.1,25.8-6.9c8-4.8,13.2-11.6,16.7-20.3C101.8,49.8,95.7,29.2,82.4,17.5z M95,52.3c-4.2,0.9-8.4,1.6-12.7,2.1
			c0-1.8-0.1-3.6-0.2-5.5c-0.4-4.9-1.4-9.7-2.9-14.3c3.2-1.7,6.2-3.7,8.9-5.9C92.5,35.8,95,44.2,95,52.3z M25.6,54.9
			c-0.2-6.6,0.5-12.4,2.5-18.1c6,2.3,12.3,3.6,18.8,4.5c2.5,0.3,5.1,0.4,7.6,0.3c0.5,4.9,0.9,9.9,1.1,14.8c-1.7,0.1-3.3,0.1-5,0.2
			c-8.3,0.3-16.7,0.5-25.1,0.1C25.6,56.1,25.6,55.5,25.6,54.9z M54.2,38.7c-3.2,0.1-6.3-0.1-9.4-0.6c-5.4-1-10.7-2.1-15.6-4
			c0.6-1.4,1.3-2.8,2.1-4.3c4.3-8,10.3-15.6,18.4-20C51.6,19.3,53.2,29,54.2,38.7z M52.5,9.8c11.3,4.2,18.9,12.9,23.1,23.5
			c-5.8,2.8-12.1,4.6-18.5,5.2C56,28.9,54.5,19.3,52.5,9.8z M50.7,59.5c1.7-0.1,3.4-0.1,5.1-0.2c0.1,3.4,0.2,6.8,0.3,10.2
			c-0.9,0-1.7,0-2.6,0c-7.1,0.1-14.8,1.4-22,3.7c-2.7-4.1-4.6-8.8-5.4-13.7C34.3,60,42.5,59.8,50.7,59.5z M53.5,72.4
			c0.9,0,1.7,0,2.6,0c0,6-0.2,11.9-0.5,17.9c-8.9-2.1-16.9-7.4-22.4-14.6C39.9,73.7,47,72.6,53.5,72.4z M46.7,90.2
			c-8.9-1.1-18.1-4.2-25.5-9.4c2.8-1.6,5.9-3,9.1-4.1C34.5,82.5,40.2,87.2,46.7,90.2z M59,72.5c5,0.1,10,0.6,14.8,1.8
			c-3.8,6.6-8.5,11.9-15.3,15.5C58.8,84,59,78.2,59,72.5z M59,69.6c0-3.5-0.1-6.9-0.3-10.4c6.9-0.3,13.8-0.7,20.6-1.5
			c-0.4,4.8-1.6,9.3-4,13.9C70,70.3,64.4,69.7,59,69.6z M58.6,56.3c-0.3-5-0.6-9.9-1.2-14.9c6.6-0.6,13.1-2.6,19.1-5.5
			c1.5,4.5,2.4,9.2,2.7,14c0.1,1.6,0.2,3.2,0.1,4.8C72.5,55.6,65.6,56,58.6,56.3z M86.5,26.3c-2.6,2.1-5.4,4-8.3,5.6
			C74.4,22.6,68,14.6,59,9.6c5.5,1,10.8,3.4,15.8,6.2C79.4,18.3,83.3,22,86.5,26.3z M24.8,17.9c5.9-4.3,12.4-6.8,19.3-8.1
			c-6.5,4.7-11.6,11.5-15.4,18.5c-0.8,1.6-1.6,3.1-2.2,4.6c-3.7-1.7-7.2-3.8-10.5-6.6C18.6,23.1,21.6,20.3,24.8,17.9z M14.3,28.6
			c3.4,3,7.2,5.3,11.2,7.1c-2.4,6.6-3.2,13.3-2.7,20.7c0,0,0,0.1,0,0.1c-5.7-0.4-11.4-1.1-16.9-2.3C5.5,45.2,8.9,36.1,14.3,28.6z
			 M8.5,66.1c-1.3-2.9-2.1-5.8-2.5-8.8c5.6,1.1,11.3,1.8,17,2.2c0.8,5.3,2.7,10.3,5.5,14.8c-3.5,1.3-6.9,2.9-10,4.7
			C14.4,75.4,10.8,71.2,8.5,66.1z M64.5,89.4c5.1-3.7,9-8.7,12.2-14.4c2.7,0.8,5.3,1.8,7.8,3C79.1,83.6,72.2,87.5,64.5,89.4z
			 M86.4,75.8c-2.7-1.4-5.5-2.5-8.3-3.4c2.5-5,3.8-9.9,4.1-15.1c4.2-0.5,8.4-1.2,12.6-2.1c-0.1,1.4-0.3,2.7-0.6,4
			C93,65.6,90.2,71.2,86.4,75.8z"/>
		<path fill="#30758F" d="M5.8,29.3c3.3-6.3,7.7-11.8,13-16.5c1-0.9-0.5-2.4-1.5-1.5c-5.5,4.8-9.9,10.5-13.3,17
			C3.3,29.5,5.2,30.6,5.8,29.3z"/>
		<path fill="#30758F" d="M6,21.5c1.2-2.3,2.7-4.4,4.6-6.2c1-1-0.5-2.5-1.5-1.5c-2,2-3.7,4.2-5,6.7C3.5,21.7,5.4,22.8,6,21.5z"/>
		<path fill="#30758F" d="M89.3,82.6c-4,4.7-8.9,8.2-14.7,10.3c-1.3,0.5-0.7,2.6,0.6,2.1c6.1-2.3,11.4-5.9,15.7-10.9
			C91.8,83.1,90.2,81.5,89.3,82.6z"/>
		<path fill="#30758F" d="M87.5,89.8c-1.2,1.4-2.5,2.5-4.2,3.3c-1.3,0.6-0.2,2.5,1.1,1.9c1.8-0.8,3.3-2.1,4.6-3.6
			C89.9,90.3,88.4,88.7,87.5,89.8z"/>
	</g>
</g>
<g id="Layer_3" display="none">
	<g display="inline">
		<g>
			<path fill="#30758F" d="M81.2,53.2c-0.1-4.1,0-8.1,0-12.2c0.1-2.6,0.1-5.2-0.1-7.7c-0.1-2.1,0.3-4.7-0.3-6.7
				c-0.6-2-2.1-2.1-4-2.2c-4.8-0.2-9.6,0-14.4-0.1c-10.7,0-21.4-0.1-32.1-0.1c-5.6,0-11.3,0.1-16.9,0.5c-2,0.1-5.4-0.3-7.1,1.2
				c-1.1,0.9-1.2,2.4-1.5,3.8c-0.5,3-0.6,6-0.7,9C3.9,45.2,4,51.8,3.6,58.3c-0.3,5.3-0.1,10.6,0,15.9c0.1,3-0.9,7.7,1.7,10
				c2.6,2.3,8.1,1.3,11.1,1.4c5.7,0.2,11.3,0.3,17,0.4c10.6,0.2,21.2-0.2,31.8,0.2c4.1,0.2,8.5,0,12.5-0.7c2.4-0.4,3.1-1.8,3.4-4.1
				C82.1,72.1,81.5,62.5,81.2,53.2z M6.7,35.2c0.1-1.4,0.2-2.7,0.4-4.1c0.3-2.6,0.8-3.6,3.3-3.9c1-0.1,2-0.1,3-0.2
				c4.1-0.3,8.2-0.5,12.4-0.5c8.9-0.1,17.8,0,26.6,0.1c3.8,0,7.6,0,11.5,0c4,0,8.4-0.5,12.4,0c1.9,0.2,2,0.4,2.3,2.3
				c0.3,1.8,0.2,3.8,0.3,5.6c0,0.3,0,0.5,0,0.8l0,1.8c0,3.3-0.1,6.7-0.1,10.1c0,7.8,0.6,15.6,0.3,23.5c-0.1,3.2,0,6.5-0.3,9.8
				c-0.2,2.3-1.2,2.2-3.3,2.6c-2.2,0.4-4.5,0.6-6.7,0.7c-8.3,0.2-16.7-0.2-25-0.2c-9.8,0-19.7-0.3-29.5-0.6c-3.1-0.1-7.9,0.3-8-3.6
				C6,77.2,6,75,5.9,72.7c-0.1-4.8-0.3-9.6,0-14.4C6.4,51.2,6.2,44.1,6.6,37L6.7,35.2z"/>
			<path fill="#30758F" d="M55.9,70.7c2-2.5,0.3-5.9-1.2-8.1c-2.9-4.1-6.5-7.6-9.6-11.5c-5.2-6-10.9,1.3-14,5.4
				c-2.1,2.8-5,6.2-6,9.6c-0.7,2.3,0.2,5.7,3.1,5.9c2.8,0.2,5.6-4.2,7.3-6.1c1-1.2,2-2.4,2.8-3.6c0.4-0.5,0.7-1.1,1.1-1.7
				c0.8-1.2,0.6-1.7,1.8-1C44.2,61.5,51.3,76.4,55.9,70.7z M39.2,57.7c-1.6,1.3-2.8,4.2-4.2,5.9c-1.1,1.3-2.2,2.5-3.4,3.7
				c-0.5,0.5-1.4,2-2.1,2.2c-3.3,1-3.1-1.7-2.6-3.3c0.1,0.2,0.2,0.3,0.3,0.5c0.3,0.4,0.8,0.6,1.2,0.3c0.4-0.2,0.6-0.8,0.3-1.2
				c-0.3-0.3-0.5-0.7-0.8-1c-0.1-0.1-0.2-0.2-0.3-0.3c0.2-0.4,0.4-0.7,0.6-1.1c0.1,0.1,0.2,0.3,0.3,0.4c0.6,1,2.1,0.1,1.5-0.9
				c-0.2-0.4-0.5-0.7-0.8-1.1c0.3-0.4,0.6-0.9,0.9-1.3c0.1,0.2,0.3,0.5,0.4,0.7c0.5,1,2.1,0.1,1.5-0.9c-0.2-0.5-0.5-0.9-0.7-1.4
				c0.2-0.3,0.4-0.6,0.7-0.8c0.1,0.1,0.2,0.3,0.3,0.4c0.6,1,2.1,0.1,1.5-0.9c-0.2-0.4-0.4-0.7-0.7-1c0.3-0.4,0.6-0.8,1-1.3
				c0.2,0.2,0.3,0.5,0.5,0.7c0.2,0.4,0.8,0.5,1.2,0.3c0.4-0.3,0.5-0.8,0.3-1.2c-0.2-0.5-0.5-0.9-0.9-1.2c0.3-0.3,0.6-0.7,0.9-1
				c0.2,0.3,0.4,0.6,0.6,0.9c0.6,1,2.2,0.1,1.5-0.9c-0.2-0.4-0.5-0.7-0.7-1.1c0.6-0.4,1.2-0.7,1.8-0.9c0,0.3,0,0.6,0,0.8
				c0,1.1,1.8,1.1,1.8,0c0-0.3,0-0.6,0-0.9c0.5,0.1,1.1,0.4,1.7,0.8c-0.4,0.3-0.7,0.7-1,1.1c-0.3,0.4-0.1,1,0.3,1.2
				c0.4,0.3,0.9,0.1,1.2-0.3c-0.1,0.1,0.1-0.1,0.2-0.2c0.1-0.1,0.2-0.2,0.3-0.3c0.1-0.1,0.1-0.1,0.2-0.2c0.2,0.3,0.5,0.6,0.7,0.9
				c-0.3,0.3-0.7,0.7-1.1,1c-0.4,0.3-0.3,0.9,0,1.3c0.4,0.4,0.9,0.3,1.3,0c0.3-0.3,0.7-0.6,1-0.9c0.4,0.4,0.8,0.8,1.1,1.3
				c-0.3,0.3-0.6,0.7-0.9,1c-0.8,0.8,0.5,2.1,1.3,1.3c0.3-0.3,0.6-0.6,0.8-0.9c0.4,0.5,0.9,1,1.3,1.5c-0.4,0.3-0.7,0.7-1.1,1
				c-0.9,0.8,0.4,2,1.3,1.3c0.3-0.3,0.6-0.6,0.9-0.9c0.2,0.2,0.3,0.4,0.5,0.7c0.2,0.3,0.5,0.6,0.7,1c-0.2,0.2-0.4,0.3-0.7,0.5
				c-0.4,0.3-0.6,0.8-0.3,1.2c0.2,0.4,0.8,0.6,1.2,0.3c0.3-0.2,0.6-0.4,0.9-0.6c0.3,0.4,0.6,0.8,0.8,1.2c0,0-0.1,0-0.1,0.1
				c-0.3,0.3-0.5,0.5-0.8,0.8c-0.8,0.8,0.5,2.1,1.3,1.3c0.1-0.2,0.3-0.3,0.4-0.5c0.4,1.1,0.4,2.1-0.9,2.8c-1.7,0.9-2.1,0-3.3-1.2
				c-3-2.9-5.1-6.7-8-9.7C41.4,57.2,40.5,56.7,39.2,57.7z"/>
			<path fill="#30758F" d="M27.8,62.6L29,61c-2.4-2.7-4.3-5.9-6.8-8.4c-1.1-1.1-2-1.6-3.3-0.6c-1.6,1.3-2.8,4.2-4.2,5.9
				c-1.1,1.3-2.2,2.5-3.4,3.7c-0.5,0.5-1.4,2-2.1,2.2c-3.3,1-3.1-1.7-2.6-3.3c0.1,0.2,0.2,0.3,0.3,0.5c0.3,0.4,0.8,0.6,1.2,0.3
				C8.6,61,8.8,60.4,8.5,60c-0.3-0.3-0.5-0.7-0.8-1c-0.1-0.1-0.2-0.2-0.3-0.3c0.2-0.4,0.4-0.7,0.6-1.1c0.1,0.1,0.2,0.3,0.3,0.4
				c0.6,1,2.1,0.1,1.5-0.9C9.6,56.7,9.3,56.3,9,56c0.3-0.4,0.6-0.9,0.9-1.3c0.1,0.2,0.3,0.5,0.4,0.7c0.5,1,2.1,0.1,1.5-0.9
				c-0.2-0.5-0.5-0.9-0.7-1.4c0.2-0.3,0.4-0.6,0.7-0.8c0.1,0.1,0.2,0.3,0.3,0.4c0.6,1,2.1,0.1,1.5-0.9c-0.2-0.4-0.4-0.7-0.7-1
				c0.3-0.4,0.6-0.8,1-1.3c0.2,0.2,0.3,0.5,0.5,0.7c0.2,0.4,0.8,0.5,1.2,0.3c0.4-0.3,0.5-0.8,0.3-1.2c-0.2-0.5-0.5-0.9-0.9-1.2
				c0.3-0.3,0.6-0.7,0.9-1c0.2,0.3,0.4,0.6,0.6,0.9c0.6,1,2.2,0.1,1.5-0.9c-0.2-0.4-0.5-0.7-0.7-1.1c0.6-0.4,1.2-0.7,1.8-0.9
				c0,0.3,0,0.6,0,0.8c0,1.1,1.8,1.1,1.8,0c0-0.3,0-0.6,0-0.9c0.5,0.1,1.1,0.4,1.7,0.8c-0.4,0.3-0.7,0.7-1,1.1
				c-0.3,0.4-0.1,1,0.3,1.2c0.4,0.3,0.9,0.1,1.2-0.3c-0.1,0.1,0.1-0.1,0.2-0.2c0.1-0.1,0.2-0.2,0.3-0.3c0.1-0.1,0.1-0.1,0.2-0.2
				c0.2,0.3,0.5,0.6,0.7,0.9c-0.3,0.3-0.7,0.7-1.1,1c-0.4,0.3-0.3,0.9,0,1.3c0.4,0.4,0.9,0.3,1.3,0c0.3-0.3,0.7-0.6,1-0.9
				c0.4,0.4,0.8,0.8,1.1,1.3c-0.3,0.3-0.6,0.7-0.9,1c-0.8,0.8,0.5,2.1,1.3,1.3c0.3-0.3,0.6-0.6,0.8-0.9c0.4,0.5,0.9,1,1.3,1.5
				c-0.4,0.3-0.7,0.7-1.1,1c-0.9,0.8,0.4,2,1.3,1.3c0.3-0.3,0.6-0.6,0.9-0.9c0.2,0.2,0.3,0.4,0.5,0.7c0.2,0.3,0.5,0.6,0.7,1
				c-0.2,0.2-0.4,0.3-0.7,0.5c-0.4,0.3-0.6,0.8-0.3,1.2c0.1,0.1,0.2,0.2,0.3,0.3l1.4-1.9l0.8-1.3c-2.6-3.4-5.7-6.4-8.4-9.8
				c-5.2-6-10.9,1.3-14,5.4c-2.1,2.8-5,6.2-6,9.6c-0.7,2.3,0.2,5.7,3.1,5.9c2.8,0.2,5.6-4.2,7.3-6.1c1-1.2,2-2.4,2.8-3.6
				c0.4-0.5,0.7-1.1,1.1-1.7c0.8-1.2,0.6-1.7,1.8-1C22.4,54.9,25,59.3,27.8,62.6L27.8,62.6z"/>
			<path fill="#30758F" d="M79.2,53c-2.9-4.1-6.5-7.6-9.6-11.5c-5.2-6-10.9,1.3-14,5.4c-2.1,2.8-5,6.2-6,9.6
				c-0.1,0.3-0.2,0.7-0.2,1.1l3.9,4.8c2.6-0.5,5.1-4.3,6.6-6c1-1.2,2-2.4,2.8-3.6c0.4-0.5,0.7-1.1,1.1-1.7c0.8-1.2,0.6-1.7,1.8-1
				c3,1.9,10.1,16.7,14.7,11.1C82.5,58.6,80.8,55.2,79.2,53z M78.3,59.6c-0.7,0.4-1.2,0.4-1.7,0.3c0.3-0.4,0.7-0.9,1-1.3
				c0.3-0.4,0.1-1-0.3-1.2c-0.4-0.3-0.9-0.1-1.2,0.3c-0.3,0.4-0.5,0.7-0.8,1.1c-0.1-0.1-0.2-0.2-0.3-0.3c-0.3-0.3-0.5-0.5-0.8-0.8
				c0.4-0.4,0.8-0.7,1.1-1.1c0.3-0.4,0.4-0.9,0-1.3c-0.3-0.3-0.9-0.4-1.3,0c-0.3,0.4-0.7,0.7-1,1c-0.4-0.4-0.7-0.9-1-1.3
				c0.5-0.4,0.9-0.7,1.4-1.1c0.8-0.8-0.4-2.1-1.3-1.3c-0.4,0.4-0.8,0.7-1.2,1c-0.3-0.4-0.5-0.7-0.8-1.1c0.3-0.3,0.7-0.6,1-0.9
				c0.4-0.3,0.3-0.9,0-1.3c-0.4-0.4-0.9-0.3-1.3,0c-0.3,0.3-0.6,0.5-0.9,0.8c-0.4-0.5-0.8-0.9-1.2-1.4c0.2-0.2,0.3-0.4,0.6-0.6
				c0.8-0.8-0.4-2-1.3-1.3c-0.2,0.2-0.4,0.4-0.5,0.6c-0.4-0.3-0.7-0.6-1.1-0.7c0-0.4,0-0.7,0.1-1.1c0-0.5-0.4-0.9-0.9-0.9
				c-0.5,0-0.9,0.4-0.9,0.9c0,0.5-0.1,1-0.1,1.6c0,0,0,0,0,0c-0.3,0.2-0.5,0.5-0.8,0.8c-0.1-0.3-0.3-0.6-0.4-0.9
				c-0.2-0.4-0.8-0.5-1.2-0.3C60.9,48,60.8,48.5,61,49c0.3,0.5,0.5,1.1,0.8,1.6c-0.2,0.3-0.4,0.6-0.5,0.9c-0.1-0.2-0.2-0.5-0.4-0.7
				c-0.2-0.4-0.8-0.5-1.2-0.3c-0.4,0.3-0.5,0.8-0.3,1.2c0.2,0.5,0.5,1,0.7,1.5c0,0,0.1,0.1,0.1,0.1c-0.2,0.3-0.4,0.6-0.6,0.8
				c-0.1,0.1-0.2,0.2-0.3,0.3c-0.2-0.3-0.4-0.7-0.5-1c-0.2-0.4-0.8-0.5-1.2-0.3c-0.4,0.3-0.5,0.8-0.3,1.2c0.2,0.5,0.5,1,0.8,1.5
				c-0.3,0.3-0.6,0.7-1,1c-0.1-0.2-0.2-0.4-0.3-0.6c-0.2-0.4-0.6-0.8-1.1-0.6c-0.4,0.1-0.8,0.6-0.6,1.1c0.2,0.5,0.5,1,0.8,1.4
				c-0.2,0.2-0.4,0.6-0.7,0.9c-0.2-0.2-0.4-0.5-0.5-0.7c-0.5-1-2.1-0.1-1.5,0.9c0.2,0.3,0.4,0.6,0.6,0.9c-3.2,0.8-2.7-2.1-2.2-3.7
				c1.2-3.2,3.8-6.3,5.8-8.9c2.3-3.1,6.7-9.3,10.9-4.6c2.4,3,5.2,5.6,7.5,8.7c1,1.4,2.2,2.6,2.9,4.1C79.6,57.2,80.2,58.6,78.3,59.6z
				"/>
		</g>
		<g>
			<path fill="#30758F" d="M17.4,84.4c1.8,0.7,4.4,0.3,6.3,0.2c0.1,0,0.1,0,0.2,0c0,0-0.1,0-0.1,0L17.4,84.4z"/>
			<path fill="#30758F" d="M33.2,25.1l14.4,0.3c2.8-0.3,5.7-0.5,8.5-0.8c3.8-0.4,7.6-0.7,11.4-1.1c4-0.4,8.3-1.3,12.3-1.2
				c1.9,0.1,2,0.2,2.5,2.1c0.5,1.7,0.6,3.8,0.8,5.5c0,0.3,0.1,0.5,0.1,0.8l0.2,1.8c0.4,3.3,0.5,6.7,0.9,10
				c0.7,7.8,2.1,15.5,2.7,23.3c0.2,2.5,0.5,5.1,0.6,7.7c0.8-0.2,1.6-0.4,2.4-0.6c-0.3-8.3-1.6-16.6-2.7-24.7
				c-0.5-4-0.9-8.1-1.2-12.1c-0.2-2.6-0.5-5.1-0.9-7.7c-0.3-2-0.2-4.7-1-6.6c-0.8-1.9-2.3-1.9-4.2-1.8c-4.8,0.3-9.6,0.9-14.4,1.4
				c-10.7,1-21.3,2-32,3.1c-0.8,0.1-1.6,0.2-2.3,0.2c-1.3,0.2-2.6,0.5-3.8,0.7L33.2,25.1z"/>
			<path fill="#30758F" d="M84.7,78.5c-1.6,0.4-3.3,0.8-4.9,1.1L79.5,82c2.6-0.3,5.3-0.8,7.7-1.5c2.3-0.6,2.9-2.1,2.9-4.4
				c0-0.2,0-0.5,0-0.7c-0.8,0.2-1.6,0.4-2.4,0.5C87.7,77.9,86.7,77.9,84.7,78.5z"/>
			<path fill="#30758F" d="M23.9,84.5c-0.1,0-0.1,0-0.2,0c-1.9,0.1-4.5,0.5-6.3-0.2l-0.3,0l-3.8-0.3c0.4,1,0.9,1.8,1.7,2.4
				c2.8,2,8.2,0.5,11.2,0.3c5.6-0.4,11.3-0.8,16.9-1.3c1.9-0.2,3.7-0.3,5.6-0.5L30,84.6C27.9,85,25.6,85.2,23.9,84.5z"/>
			<path fill="#30758F" d="M23.8,84.5C23.9,84.5,23.9,84.5,23.8,84.5c0.2,0,0.4,0,0.5,0L23.8,84.5z"/>
			<path fill="#30758F" d="M97.6,69.5c-0.5-9.3-2.6-18.7-4.3-27.8c-0.8-4-1.3-8-1.9-12c-0.4-2.6-0.8-5.1-1.3-7.6
				c-0.4-2-0.5-4.7-1.4-6.6c-0.9-1.9-2.4-1.7-4.2-1.5c-4.8,0.5-9.5,1.5-14.3,2.2c-10.6,1.6-21.2,3.3-31.8,4.9
				c-5.6,0.9-11.1,1.9-16.6,3.2c-1.8,0.4-4.7,0.6-6.3,1.8l8.1-0.4c2.6-0.4,5.3-0.7,7.9-1c0.9-0.2,1.9-0.3,2.8-0.5
				c8.8-1.5,17.5-2.8,26.3-4.1c3.8-0.6,7.5-1.2,11.3-1.8c4-0.6,8.2-1.8,12.2-1.9c1.9-0.1,2,0.1,2.6,1.9c0.6,1.7,0.8,3.7,1.2,5.5
				c0.1,0.3,0.1,0.5,0.1,0.8l0.3,1.8c0.6,3.3,0.9,6.6,1.4,9.9c1.2,7.7,3,15.3,4,23.1c0.4,3.2,1,6.5,1.3,9.7c0.2,2.4-0.8,2.4-2.9,3.1
				c-0.7,0.2-1.5,0.5-2.2,0.7c0,0.9,0,1.7,0,2.6c1.6-0.4,3.2-0.8,4.8-1.3C97.2,73.3,97.7,71.8,97.6,69.5z"/>
			<path fill="#30758F" d="M90.1,72.8c-0.8,0.2-1.6,0.5-2.4,0.6c0,0.7,0.1,1.4,0.1,2.1c0,0.1,0,0.2,0,0.4c0.8-0.2,1.6-0.3,2.4-0.5
				C90.2,74.5,90.1,73.7,90.1,72.8z"/>
			<path fill="#30758F" d="M23.9,84.5c1.7,0.7,3.9,0.5,6.1,0.1l-5.6-0.1C24.2,84.5,24.1,84.5,23.9,84.5z"/>
			<path fill="#30758F" d="M31.6,24.6c-2.7,0.3-5.3,0.6-7.9,1l4.1-0.2C29,25.1,30.3,24.8,31.6,24.6z"/>
			<path fill="#30758F" d="M15,26.5c-0.1,0.1-0.2,0.2-0.3,0.4c0.9-0.1,1.7-0.2,2.4-0.3c2.2-0.4,4.3-0.7,6.5-1L15.6,26
				C15.4,26.1,15.2,26.3,15,26.5z"/>
			<path fill="#30758F" d="M30,84.6c1.6-0.3,3.1-0.7,4.3-0.8c-3.3,0.2-6.7,0.5-10,0.7L30,84.6z"/>
		</g>
	</g>
</g>
<g id="Layer_4" display="none">
	<g display="inline">
		<path fill="#30758F" d="M59.9,3.4C41.5-0.4,22.5,9.1,14.4,26.1c-7.7,16.1-6,41,3.9,55.9c5.9,8.9,15.4,15,26,16.3
			c6.9,0.9,13.8-0.3,20.4-2c5.4-1.4,10.8-2.9,14.8-7c0.1-0.1,0.1-0.1,0.2-0.2c0,0,0.1,0,0.1,0c2.8-0.8,2.9-5.2,1.4-7.2
			c-1.5-1.9-4.4-2.5-6.3-1.1c0,0,0,0-0.1,0c-12.4,8.1-29.1,8.3-41.5-0.1C19.1,71.3,17.8,46,24.4,31.6c7.2-15.7,24.4-22.5,39.7-13.7
			c2.2,1.2,4.2,2.7,6.1,4.3c0,0,0,0-0.1,0c-0.1,0.1,0,0.3,0.1,0.2c0,0,0.1-0.1,0.1-0.1c4,3.6,7.3,8,9.2,13c0.1,0.3,0.2,0.7,0.4,1
			c0,0-0.1,0.1-0.1,0.1c-0.2,0.1,0,0.4,0.2,0.3c1.1,3.4,1.5,7,1.3,10.5c-0.3,4.2-1.9,11.1-6.1,13.4c-0.3-0.3-0.6-0.4-1.1-0.3
			c-11.8,2.2-2.3-25.5-8.4-31.2c-0.9-2.2-4.8-1.8-6.3-0.7c-0.7,0.5-1.4,1.2-1.8,2.1c-5.1-6.3-14.9-6-21-0.9
			c-8.2,6.7-9.4,18-7.7,27.8c1.7,10.1,6.9,19.1,17.7,21c5.6,1,15.9-0.7,17.9-7.1c3.5,5.5,11.8,3.6,16.5-0.3
			c7.6-6.2,9.6-16.7,10.3-25.9C92.9,25.2,79.4,7.5,59.9,3.4z M88.1,51.8c-0.8,4.3-2.1,8.6-4.5,12.4c-3.7,5.7-13.2,12.2-18.4,4.3
			c-0.5-0.8-2-0.3-1.7,0.7c0,0,0,0.1,0,0.1c-2.6,3.4-5.8,5.8-9.4,6.8c1.6-1.4,3.1-2.8,4.6-4.2c0.2-0.2-0.1-0.5-0.3-0.3
			c-1.8,1.5-3.6,3.1-5.3,4.8c-2.2,0.5-4.5,0.5-7-0.1c2.1-1.6,4.1-3.3,6.1-5c0.2-0.2-0.1-0.5-0.3-0.3c-2.1,1.7-4.2,3.4-6.2,5.2
			c-0.4-0.1-0.7-0.2-1.1-0.3c-1.6-0.5-3-1.1-4.3-1.9c1.2-0.5,2.1-1.3,2.7-2.4c0.1-0.2-0.2-0.4-0.3-0.2c-0.6,1.1-1.6,1.9-2.8,2.4
			c-1.4-0.9-2.6-2-3.6-3.2c1-0.9,1.8-2,2.6-3c0.2-0.2-0.1-0.5-0.3-0.3c-0.9,0.9-1.9,1.8-2.7,2.9c-1.2-1.6-2.2-3.4-3-5.3
			c1.3-1.3,2.5-2.7,3.6-4.1c0.1-0.2-0.1-0.4-0.2-0.2c-1.2,1.3-2.4,2.6-3.6,4c-0.7-1.7-1.2-3.5-1.6-5.3c1-1,2-2,3-3
			c0.2-0.2-0.1-0.4-0.3-0.3c-0.9,0.9-1.9,1.9-2.8,2.8c-0.1-0.4-0.2-0.7-0.2-1.1c-0.2-1.2-0.4-2.5-0.5-3.7c2.1-2.2,4.2-4.3,6.3-6.5
			c-0.6,3.1-0.5,6.4-0.2,9.4c0.7,5.5,3.3,10.6,8.7,12.6c4.5,1.6,10.6,0.5,13.2-3.7c0.4-0.1,0.7-0.4,0.7-0.8c0.1-0.7,0.1-1.4,0.1-2.1
			c1.3-1,2.4-2.1,3.4-3.3c0.1-0.2-0.1-0.4-0.2-0.2c-1,1.1-2,2.1-3.2,3.1c0-1.6,0-3.2,0-4.9c1.1-1,2.3-2,3.4-3
			c0.2-0.2-0.1-0.4-0.3-0.3c-1.1,0.9-2.1,1.9-3.1,2.9c-0.1-2-0.2-3.9-0.2-5.9c0,0,0-0.1,0-0.1c1.2-1.1,2.4-2.2,3.6-3.4
			c0.2-0.2-0.1-0.4-0.3-0.3c-1.1,1-2.3,2.1-3.4,3.2c0-2.4,0.1-4.9,0-7.3c1.3-1.5,2.6-3,4-4.4c0.2-0.2-0.1-0.5-0.3-0.3
			c-1.4,1.2-2.6,2.6-3.7,4c-0.1-0.9-0.2-1.8-0.4-2.7c0-0.4-0.1-0.8-0.5-1.1c-0.5-0.4-1.1-0.7-1.7-1c0.8-0.7,1.6-1.5,2.4-2.2
			c0.2-0.2-0.1-0.4-0.3-0.3c-0.8,0.8-1.7,1.5-2.5,2.3c-2.2-1.1-4.5-1.6-6.9-1.5c0.9-0.9,2-1.6,3.1-2.1c0.2-0.1,0.1-0.4-0.1-0.3
			c-1.4,0.6-2.5,1.4-3.4,2.5c-2.3,0.2-4.5,0.9-6.6,2.4c-3.1,2.2-4.7,5.3-5.4,8.7c-0.1,0-0.2-0.1-0.2,0c-2.1,2.1-4.1,4.3-6.2,6.4
			c-0.2-1.9-0.2-3.9-0.1-5.9c0.1,0,0.1,0,0.2,0c1.5-1.7,3.2-3.4,4.9-4.9c0.2-0.2-0.1-0.4-0.2-0.2c-1.8,1.5-3.3,3.1-4.8,4.8
			c0.2-2.1,0.5-4.2,1.1-6.2c2.8-2.5,5.7-5,8.4-7.6c0.2-0.2-0.1-0.5-0.3-0.3c-2.7,2.3-5.3,4.7-7.9,7.1c0.9-2.5,2.1-4.9,3.9-6.9
			c6-6.7,15.5-7.3,21.5-0.3c0.5,0.5,1.2,0.3,1.5-0.2c0.8-0.6,1.2-2,2-2.5c0.6-0.4,1.4-0.7,2.2-0.6c0.8,0.1,1.4,0.6,2.1,0.8
			c3.7,7.6-4.9,34.4,9.5,32.4c3.2,0.2,5.4-2.3,6.8-5.2c1.3-1.1,2.6-2.1,3.9-3.2c0.2-0.2-0.1-0.5-0.3-0.3c-1.1,0.9-2.1,1.7-3.2,2.6
			c0.6-1.3,1-2.6,1.3-3.9c0.2-0.7,0.3-1.5,0.5-2.2c1.3-1.1,2.7-2.3,4-3.5c0.1-0.1-0.1-0.3-0.2-0.2c-1.3,1.1-2.5,2.2-3.7,3.3
			c0.4-2.4,0.5-4.8,0.3-7.2c1.1-0.8,2.2-1.7,3.4-2.4c0.2-0.1,0-0.5-0.2-0.3c-1.1,0.6-2.2,1.4-3.2,2.2c-0.2-2.5-0.8-5-1.6-7.4
			c0.9-0.8,1.8-1.5,2.6-2.3c0.2-0.2-0.1-0.4-0.2-0.2c-0.9,0.7-1.7,1.4-2.5,2.2c-0.3-0.9-0.7-1.7-1.1-2.6c-0.8-1.8-1.9-3.5-3.1-5.2
			c1.2-1.2,2.5-2.4,3.7-3.6c0.2-0.2-0.1-0.5-0.3-0.3c-1.2,1.2-2.4,2.4-3.6,3.6c-1.5-2-3.2-4-5.1-5.7c0.7-0.5,1.4-1,2.1-1.5
			c0.1-0.1,0-0.3-0.1-0.2c-0.7,0.5-1.5,1-2.2,1.5c-1.7-1.5-3.5-2.9-5.4-4.1c0.5-0.4,1-0.7,1.5-1.1c0.2-0.1,0-0.4-0.2-0.3
			c-0.5,0.4-1.1,0.8-1.6,1.1c-2.1-1.3-4.2-2.3-6.5-3.1c0.4-0.2,0.8-0.4,1.1-0.7c0.2-0.1,0-0.4-0.2-0.3c-0.5,0.3-0.9,0.6-1.4,0.8
			c-2.3-0.8-4.7-1.3-7.1-1.6c0.9-0.5,1.8-0.9,2.7-1.4c0.1-0.1,0-0.2-0.1-0.2c-1,0.5-2,1-3,1.5c0,0,0,0,0,0c-1.9-0.2-3.9-0.1-5.8,0.1
			c-14.8,1.9-24.8,15.4-27.2,29.3C16.7,55,19.2,73.8,31.4,82.5c13,9.3,31.2,9.2,44.5,0.5c0.2-0.1,0.3-0.3,0.4-0.4
			c1-0.1,2.2,0.1,2.8,1c0.4,0.5,0.5,1.2,0.4,1.8c-0.1,0.8-0.7,1.2-1,1.8c-0.3,0-0.6,0.1-0.8,0.4c-3.4,3.5-8.8,5.6-14.3,6.9
			c1.7-1.5,3.3-3.1,4.7-4.8c0.2-0.2-0.1-0.6-0.3-0.3c-1.8,1.9-3.7,3.7-5.7,5.4c-2.6,0.5-5.2,0.9-7.6,1.1c1.8-1.3,3.5-2.8,5-4.4
			c0.2-0.3-0.1-0.6-0.4-0.4c-1.8,1.8-3.7,3.4-5.7,4.9c-1.1,0.1-2.1,0.1-3.1,0.2c-1.8,0.1-3.7,0-5.5-0.3c1.4-1.2,2.9-2.5,4.3-3.8
			c0.2-0.2-0.1-0.5-0.3-0.3c-1.5,1.3-3,2.7-4.4,4c-2.4-0.3-4.7-0.9-6.9-1.7c1.7-1.1,3.3-2.4,4.8-3.8c0.2-0.2-0.1-0.6-0.4-0.4
			c-1.6,1.4-3.3,2.8-5,4c-2-0.8-4-1.7-5.9-2.9c1-1,1.9-1.9,2.9-2.9c0.1-0.1-0.1-0.4-0.2-0.2c-1,1-1.9,2-2.9,3
			c-2.1-1.3-4.1-2.9-6-4.7c0,0,0,0,0,0c1.8-1.3,3.4-3,4.8-4.6c0.2-0.3-0.1-0.6-0.4-0.4c-1.5,1.3-3.2,2.7-4.5,4.3c0-0.1,0-0.3,0-0.4
			c0-0.2-0.3-0.2-0.3,0c0,0.2-0.1,0.4-0.1,0.6c-1.4-1.5-2.7-3.1-3.8-4.8c1.2-1,2.3-2,3.4-3c0.3-0.2-0.1-0.6-0.4-0.4
			c-1.1,1-2.2,2-3.2,3c-1-1.5-1.8-3-2.6-4.6c1.3-1.1,2.6-2.2,3.8-3.4c0.2-0.2-0.1-0.5-0.3-0.3c-1.3,1.1-2.5,2.2-3.7,3.3
			c-0.8-1.8-1.5-3.6-2.1-5.4c1.2-1.3,2.5-2.6,3.8-3.8c0.2-0.2-0.1-0.5-0.3-0.3c-1.3,1.1-2.5,2.4-3.6,3.7c-0.5-1.7-1-3.5-1.3-5.3
			c0.9-1,1.8-2,2.8-2.9c0.2-0.2-0.1-0.4-0.3-0.3c-1,0.8-1.9,1.7-2.7,2.7c-0.3-1.6-0.6-3.2-0.8-4.7c1.2-1.1,2.3-2.2,3.4-3.3
			c0.2-0.2-0.1-0.4-0.3-0.3c-1.1,1-2.2,2.1-3.2,3.1c-0.2-1.6-0.3-3.3-0.4-4.9c0,0,0,0,0.1,0c1.6-1.5,3.2-2.9,4.7-4.5
			c0.2-0.2-0.1-0.4-0.3-0.3c-1.6,1.4-3.1,2.8-4.6,4.3c-0.1-2-0.1-4.1-0.1-6.1c1.4-1.3,2.7-2.6,4-4c0.2-0.2-0.1-0.5-0.3-0.3
			c-1.2,1.2-2.5,2.4-3.7,3.7c0-1.5,0.1-3.1,0.2-4.5c0-0.2,0-0.3,0.1-0.5c1.4-1.5,2.8-3.1,4.2-4.7c0.1-0.2-0.1-0.4-0.2-0.2
			c-1.3,1.4-2.6,2.9-3.9,4.4c0.3-2.5,0.7-4.9,1.4-7.2c1.7-1.6,3.4-3.3,5.1-5c0.1-0.1-0.1-0.3-0.2-0.2c-1.6,1.5-3.2,3.1-4.7,4.7
			c0.8-2.6,1.8-5.1,3-7.4c1.8-2.1,3.8-4,5.9-5.9c0.2-0.2-0.1-0.5-0.3-0.3c-1.7,1.5-3.4,3.1-4.9,4.8C22.8,16,30.7,9.2,40.8,6.3
			c15.7-4.5,34,2.2,43,15.8C89.8,31.2,90,41.5,88.1,51.8z M56.8,52c0,4.2-0.1,8.4,0.5,12.5c-3.1,2.1-6.1,4.1-10.1,3.2
			c-6.1-1.3-8.4-7-8.9-12.6c-0.4-5.1,0-10.7,4-14.4c4.4-3.9,10-3.5,14.5-0.1c0.1,0,0.1,0.1,0.2,0.1C56.4,44.4,56.7,48.3,56.8,52z"/>
	</g>
</g>
<g id="Layer_8" display="none">
	<g display="inline">
		<path fill="#F9F9F9" d="M97.1,39.9c-2.4-9-8-16.9-14.8-23.1c-7-6.5-15.5-12.1-25.2-13.1C46.8,2.6,34.3,3.9,25.6,9.9
			C8.7,21.6-0.1,40,4.3,60.6C8.9,82.6,28.8,98,51.1,98c18.7,0.1,35.5-9.6,42.8-27.1C97.9,61.2,99.8,50.3,97.1,39.9z M93.7,63.1
			C90.9,73,85.8,82,77.1,87.8c-7.7,5.1-16.8,7.5-26,7.4c-18.4,0-35.4-11-42.1-28.3C5.6,58,4.8,47,7.4,37.8
			c2.4-8.6,7.6-15.2,14.2-21.1c3.5-3.1,7.1-6.1,11.5-7.8c5-1.9,10.7-2.2,16-2.6C59.4,5.8,67.9,8.8,76,15.1
			C91.3,26.8,99.2,44,93.7,63.1z"/>
		<g>
			<path fill="#F9F9F9" d="M61.7,32.9c2.1-2.2,3.9-2.9,2.2-6c-1.3-2.5-3-2.5-5-1.7c0.3,0.3,0.5,0.5,0.8,0.8c1.5,1.4-0.8,3.7-2.3,2.3
				c-0.5-0.5-0.9-0.9-1.4-1.4c-0.1-0.1-0.1-0.1-0.1-0.2c-0.8,0.5-1.5,1-2.2,1.5c0.4,0.5,0.8,1,1.1,1.6c0.5,0.7,0.1,1.8-0.6,2.2
				c-0.8,0.5-1.7,0.1-2.2-0.6c-0.3-0.4-0.6-0.8-0.9-1.2c-0.6,0.5-1.1,0.9-1.7,1.3c-0.4,0.3-0.8,0.6-1.2,0.9c0.5,0.6,1.1,1.1,1.6,1.6
				c1.4,1.5-0.9,3.8-2.3,2.3c-0.6-0.7-1.2-1.3-1.8-1.9c-0.9,0.8-1.8,1.5-2.7,2.3c0.6,0.5,1.1,1,1.7,1.5c1.5,1.5-0.8,3.7-2.3,2.3
				c-0.6-0.6-1.2-1.1-1.8-1.6c-0.8,0.7-1.5,1.4-2.3,2.1c0.6,0.6,1.1,1.1,1.6,1.8c0.5,0.7,0.7,1.6,0,2.3c-0.6,0.6-1.7,0.7-2.3,0
				c-0.5-0.7-1.1-1.3-1.8-1.9c-0.5,0.5-1.1,0.9-1.6,1.3c0.1,0.1,0.2,0.2,0.3,0.4c0.2,0.2,0.4,0.4,0.6,0.6c0,0,0.6,0.5,0.3,0.3
				c0.7,0.5,1,1.4,0.6,2.2c-0.4,0.7-1.5,1.1-2.2,0.6c-0.7-0.5-1.3-1.1-1.9-1.8c-0.8,1-1.2,2-1.4,3c0.6,0,1.1,0,1.7,0
				c2.1,0,2.1,3.2,0,3.2c-0.5,0-1,0-1.5,0c0.3,1.1,0.9,2.2,1.7,3.2c0.7-0.4,1.3-0.9,2-1.3c1.7-1.1,3.3,1.6,1.6,2.8
				c-0.5,0.3-1,0.7-1.5,1c0.6,0.6,1.1,1.1,1.7,1.6c0.7-0.6,1.4-1.2,2.2-1.5c0.8-0.4,1.7-0.2,2.2,0.6c0.4,0.7,0.2,1.8-0.6,2.2
				c-0.5,0.2-0.9,0.5-1.3,0.8c0.8,0.6,1.6,1.2,2.3,1.8c0.6-0.5,1.2-0.9,1.8-1.3c1.8-1,3.4,1.8,1.6,2.8c-0.3,0.2-0.5,0.3-0.8,0.5
				c0.5,0.4,1,0.8,1.5,1.2c0.8-0.5,1.7-0.9,2.5-1.4c1.8-1,3.4,1.8,1.6,2.8c-0.4,0.2-0.9,0.5-1.3,0.7c0.8,0.6,1.6,1.1,2.4,1.7
				c0.6-0.5,1.3-1,2-1.4c1.8-1.1,3.4,1.7,1.6,2.8c-0.3,0.2-0.5,0.3-0.7,0.5c0.7,0.4,1.3,0.7,2,1.1c0.1-0.2,0.3-0.4,0.5-0.6
				c0.6-0.5,1.3-0.9,1.9-1.4c0.7-0.5,1.8-0.1,2.2,0.6c0.5,0.8,0.1,1.7-0.6,2.2c-0.3,0.2-0.6,0.4-0.8,0.6c3,1,7.8,1.4,6-4.6
				c-0.4-1.2-3.1-2.9-3.9-3.8c-2.2-2.1-4.3-4.2-6.7-6.1c-3-2.5-8.2-4.5-10.6-7.5c-1.8-2.3-1-4,1-6C49.6,42.1,56.4,38.3,61.7,32.9z"
				/>
			<path fill="#F9F9F9" d="M73.9,22.9c-10.6-9.5-28.8-10.5-41-3.9c-12,6.5-21.1,22.5-18.3,36.3c0.8,4.1,2,8.4,3.8,12.2
				c1.9,3.9,5.1,7.1,8.3,10c6.6,6.1,14.7,9.3,23.6,9.5c15-0.5,29.2-8.7,34.9-23C90.8,49.8,85,32.8,73.9,22.9z M48.4,53
				c1,0.7,2,1.3,3,2c2.3,1.6,4.5,3.3,6.5,5.1c3.4,3,11.2,8,10.9,13.1c-0.3,5.1-6.6,6.7-10.7,5.5c-6.2-1.8-12.2-7-17.3-10.8
				c-7.5-5.6-20.5-15.8-9.7-25.2C38.4,37,44.5,30.5,52,25.3c4-2.8,10.2-5.8,14.7-2.2c10.3,8.3-16.6,21.2-20,26.6
				C45.4,51.8,46.2,51.5,48.4,53z"/>
		</g>
	</g>
</g>
<g id="Layer_9">
	<g>
		<path fill="#F2F2F2" d="M81.8,43.4c-1.6-6-5.3-11.3-9.9-15.5c-4.7-4.3-10.4-8.1-16.9-8.8c-6.9-0.7-15.3,0.1-21.1,4.1
			c-11.3,7.9-17.2,20.2-14.3,34c3.1,14.8,16.4,25,31.4,25c12.5,0.1,23.8-6.4,28.6-18.1C82.3,57.7,83.6,50.4,81.8,43.4z M79.5,59
			c-1.9,6.6-5.3,12.6-11.1,16.5c-5.1,3.4-11.3,5-17.4,5c-12.3,0-23.7-7.3-28.2-19c-2.3-6-2.9-13.3-1.1-19.5
			c1.6-5.7,5.1-10.2,9.5-14.1c2.3-2.1,4.8-4.1,7.7-5.2c3.4-1.3,7.2-1.5,10.7-1.7c6.9-0.4,12.6,1.6,18,5.8
			C77.9,34.7,83.2,46.2,79.5,59z"/>
		<path fill="#F2F2F2" d="M66.3,32.1C59.2,25.7,47,25,38.8,29.4c-8,4.4-14.1,15.1-12.2,24.3c0.6,2.8,1.4,5.6,2.6,8.2
			c1.2,2.6,3.4,4.7,5.5,6.7c4.4,4.1,9.8,6.2,15.8,6.3c10-0.4,19.5-5.8,23.3-15.4C77.6,50.1,73.7,38.7,66.3,32.1z M70.4,58.2
			c-3.3,8.2-11.4,12.8-19.9,13.1c-5.1-0.1-9.7-2-13.5-5.4c-1.8-1.7-3.7-3.4-4.7-5.7c-1-2.2-1.7-4.6-2.2-7c-1.6-7.9,3.6-17,10.4-20.7
			c7-3.8,17.4-3.2,23.4,2.2C70.3,40.5,73.7,50.2,70.4,58.2z"/>
	</g>
</g>
<g id="Layer_10" display="none">
	<g display="inline">
		<path fill="#F2EDC9" d="M63.6,69.2c2.7-0.3,5.4-1,7.4-2.9c2-1.9,3-4.7,2-7.4c0-0.1-0.1-0.1-0.1-0.2c2.3-2.4,3.1-5.9,1.4-8.9
			c1.4-1.7,2.3-3.7,2.6-6.2c0.7,0,1.5,0,2.2,0c2.5-0.1,4.9-0.7,5.7-3.3c0.1-0.2,0-0.3-0.2-0.4c0-2-1.3-3.5-3-4.4
			c3.3,0.3,6.7,0,10-0.2c2.4-0.1,5.2-0.5,6.6-2.4c0.1,0,0.2,0,0.3-0.1c1.2-1.6,0.8-3.6-0.4-5.1c-2-2.3-5.2-2.4-8-2.6
			c-8.3-0.6-16.6-1.5-24.9-1.1c-7.9,0.3-15.5,1.9-22.4,5.7c-3.9,2.1-7.6,4.7-11.2,7.3c-3.3,2.4-6.8,4.6-10.1,6.9
			c-0.4-1.4-1-2.8-1.8-4c-0.1-0.1-0.2-0.1-0.3-0.1c-0.1-0.1-0.2-0.2-0.4-0.2c-2.5,0.2-4.9,0.7-7.5,0.8c-2.5,0.1-5.1-0.2-7.6-0.1
			c-0.6,0-0.7,1-0.1,1.1c4.6,0.7,10.9,0.9,15.2-1c0,0,0.1,0,0.1,0c0.5,1.4,0.9,2.9,1.2,4.4c0,0,0,0.1,0,0.1
			c0.7,3.7,0.7,7.5,0.7,11.3c0.1,5.3-0.3,10.5-1.9,15.6c0,0,0,0.1,0,0.1c-2.8-0.9-6-1-8.9-0.9c-2.7,0.1-6.1,0.2-8.6,1.4
			c-0.5,0.2-0.2,0.9,0.3,0.9c2.9,0,5.8-0.8,8.7-1c2.9-0.1,5.8,0.3,8.8,0.3c0.1,0,0.1,0,0.2-0.1c0.3,0.1,0.7-0.1,0.8-0.5
			c0.4-1.1,0.7-2.1,0.9-3.2c0,0.1,0.1,0.1,0.2,0.1c3.9-0.2,7.6,0.6,11.4,1.2c4,0.7,7.9,1.4,11.9,2.1c6.2,1.1,13.3,1.7,18.6-2.5
			C63.7,69.7,63.7,69.4,63.6,69.2z M72.1,59.4C72.1,59.4,72.1,59.4,72.1,59.4c1.1,4.8-3.4,8-7.6,8.7c-1.5,0.2-3,0.3-4.6,0.2
			c0.8-0.6,1.3-1.6,1.4-2.5c0.2-1.2-0.3-2.3-1.1-3.2C64.3,62.9,69,62.1,72.1,59.4z M52.6,55.2c2.1-0.4,4.1-0.7,6.3-0.5
			c0.1,0,0.1,0,0.2,0c3.1,0.5,1.2,5,0.2,6.6c-0.1,0.1-0.1,0.2,0,0.3c-0.9-0.1-1.7-0.2-2.5-0.4c-1.5-0.4-3.1-1.1-4-2.4
			c-0.7-1.1-0.8-2.2-0.4-3.2c0.1,0,0.1,0,0.2-0.1C52.6,55.5,52.7,55.3,52.6,55.2z M52,54.3c-0.4-0.3-0.7-0.7-1.1-1c0,0,0,0,0,0
			c0.4-0.5,0.8-1,1.2-1.6c0.6,0.5,1.2,1,1.8,1.4c0.1,0.1,0.2-0.1,0.1-0.2c-0.5-0.5-1.2-0.9-1.8-1.4c0.3-0.5,0.6-1,0.8-1.6
			c0,0.7,0.2,1.3,0.6,2c0.3,0.6,0.8,1,1.3,1.4C53.6,53,52.6,53.4,52,54.3z M54.1,48c2.3-0.3,4.9-0.7,7.2-0.2c3,0.8,1.7,4.1,1.2,6.3
			c-0.9,0-1.7,0-2.6-0.1c-0.5-0.2-1.1-0.2-1.7-0.2c-0.9-0.2-1.8-0.5-2.6-1C53.9,51.7,53.1,49.6,54.1,48z M55.4,53.6
			c0.2,0.1,0.3,0.2,0.5,0.2c-0.7,0.1-1.7,0.2-2.4,0.3c0.5-0.3,1.1-0.5,1.7-0.5C55.3,53.7,55.3,53.7,55.4,53.6z M59.7,62.6
			c0,0.1-0.1,0.2,0,0.3c0.6,0.9,0.8,1.8,0.6,2.9c-0.2,1-0.9,1.5-1.5,2.3c-0.1,0.1-0.1,0.1-0.1,0.2c-0.1,0-0.2,0-0.4,0
			c-1.1-0.1-2.3-0.3-3.3-0.9c-2.1-1.3-2.9-4.1-0.4-5.5c0.1,0,0.1-0.1,0.1-0.2C56.4,62.2,58.2,62.5,59.7,62.6z M70.5,54.6
			c-0.1-0.3-0.3-0.5-0.4-0.7c-0.1-0.3-0.1-0.5-0.1-0.8c1.3-0.6,2.5-1.5,3.5-2.5c3.3,6.1-4.9,10.4-9.9,11c-1.3,0.1-2.5,0.2-3.8,0.1
			c1.1-1.5,2.6-5,1.3-6.8c0.3,0,0.5,0,0.8,0c2.5,0,5-0.5,7.3-1.4c0,0.6,0.2,1.3,0.7,1.6C70.3,55.2,70.7,54.9,70.5,54.6z M73.4,49.4
			c-0.1,0.1-0.2,0.2-0.3,0.3c-1.6,1.9-3.7,3.3-6.3,3.9c-1.2,0.3-2.4,0.4-3.6,0.5c1-1.7,1.5-5.1,0.1-6.4c-0.9-0.9-2.9-0.7-4-0.8
			c-1.6,0-3.2,0.1-4.7,0.5c0.1-0.1,0.3-0.3,0.5-0.4c0,0,0-0.1,0-0.1c2.2-0.2,4.4-0.7,6.5-1.3c0.4-0.1,0.8-0.2,1.2-0.4
			c0.3-0.1,0.6-0.1,1-0.1c0.6,0,1.2,0.1,1.8,0.1c-0.2,0.9-0.1,1.9,0.5,2.6c0.2,0.2,0.6,0,0.6-0.3c-0.1-0.8-0.4-1.5-0.2-2.3
			c0.1-0.3,0.9-2.2,1.4-1.9c0.1,0.1,0.2-0.1,0.2-0.2c2.7,0.2,5.4,0.4,8.1,0.5C75.6,45.8,74.7,47.8,73.4,49.4z M53.8,47.6
			c0,0-0.1,0.1-0.1,0.1c-0.1,0.1-0.1,0.2-0.2,0.3c0-0.3,0.1-0.7,0.1-1c0.4,0,0.8,0,1.2,0C54.4,47.1,54,47.3,53.8,47.6z M64.3,44.6
			c0.6-0.2,1.3-0.5,1.8-0.8c-0.2,0.2-0.3,0.4-0.3,0.5c-0.1,0.2-0.2,0.4-0.2,0.6C65.2,44.7,64.8,44.7,64.3,44.6z M83.9,40.3
			c0,0,0,0.1,0,0.1c-0.1,0.3-0.3,0.6-0.5,0.8c-1.6,0.2-3.1,0-4.7-0.5c-1.2-0.4-2.1-0.9-1.9-2.3c0.1-0.9,0.9-2.9,1.9-3.2
			C81.4,36,83.9,37.4,83.9,40.3z M41.3,70.8c-3.6-0.6-7.2-1.3-10.9-1.9c-3-0.5-6-0.9-9-0.3c0,0,0,0-0.1,0c0.2-1,0.4-2,0.5-3
			c0.4,0.3,0.8,0.6,1.3,0.9c0.1,0.1,0.3-0.1,0.2-0.2c-0.4-0.3-0.8-0.6-1.2-0.9c-0.1,0-0.1-0.1-0.2-0.1c0.1-1,0.2-1.9,0.3-2.9
			c0.8,0.6,1.7,1.2,2.7,1.6c0.2,0.1,0.3-0.2,0.1-0.3c-1-0.5-1.9-1-2.8-1.7c0.1-1.1,0.1-2.3,0.1-3.4c0.8,0.7,1.6,1.3,2.6,1.8
			c0.1,0.1,0.3-0.1,0.1-0.2c-1-0.5-1.9-1.1-2.7-1.8c0-0.8,0-1.6,0-2.4c0-0.4,0-0.9,0-1.3c0.9,0.7,1.8,1.2,2.8,1.7
			c0.2,0.1,0.3-0.2,0.1-0.2c-1-0.5-1.9-1.1-2.8-1.7c0,0-0.1,0-0.1,0c0-0.9,0-1.8,0-2.7c0.8,0.5,1.6,1,2.4,1.4
			c0.1,0.1,0.3-0.2,0.1-0.2c-0.9-0.4-1.7-0.9-2.6-1.4c0-1-0.1-2.1-0.2-3.1c1,0.8,2.1,1.6,3.3,2.1c0.1,0.1,0.2-0.1,0.1-0.2
			c-1.2-0.7-2.4-1.4-3.4-2.3c-0.1-0.9-0.2-1.7-0.4-2.5c0.3,0.2,0.6,0.3,0.8,0.4c1,0.6,2,1,3,1.5c0.1,0.1,0.3-0.2,0.1-0.2
			c-0.8-0.3-1.5-0.7-2.3-1.1c-0.6-0.3-1.2-0.7-1.7-1c0-0.1,0-0.2-0.1-0.3c0.5-0.2,0.9-0.5,1.4-0.8c1.2,0.5,2.4,1,3.6,1.5
			c0.1,0.1,0.2-0.1,0.1-0.2c-1.1-0.6-2.2-1-3.4-1.5c0.5-0.3,1.1-0.6,1.6-0.9c0.6,0.4,1.3,0.7,2.1,0.8c0.1,0,0.2-0.2,0-0.2
			c-0.7-0.2-1.3-0.4-1.9-0.8c0.6-0.4,1.2-0.7,1.7-1.1c0,0,0,0,0,0c0.7,0.3,1.3,0.5,2,0.7c0.1,0,0.2-0.1,0.1-0.2
			c-0.6-0.2-1.3-0.5-1.9-0.7c0.6-0.4,1.2-0.8,1.8-1.3c0,0,0,0,0.1,0c0.1,0,0.1,0,0-0.1c0.6,0.3,1.3,0.4,1.9,0.5c0.1,0,0.2-0.2,0-0.2
			c-0.6-0.1-1.2-0.3-1.8-0.5c0.5-0.4,1-0.7,1.5-1.1c0,0,0,0,0,0c0.9,0.4,1.7,0.9,2.6,1.3c0.1,0.1,0.2-0.1,0.1-0.2
			c-0.8-0.4-1.7-0.8-2.6-1.2c0.6-0.4,1.2-0.9,1.8-1.3c0.7,0.3,1.3,0.5,2,0.8c0.1,0,0.2-0.1,0.1-0.2c-0.6-0.3-1.3-0.5-1.9-0.7
			c2.2-1.6,4.4-3.2,6.6-4.6c6.4-4,13.1-6.7,20.6-7.5c6.6-0.7,13.2-0.3,19.8,0.1c3.4,0.2,6.9,0.5,10.3,0.7c3.2,0.2,10.1,1.2,8.3,5.9
			c-0.8,1.1-2.2,1.8-3.7,2.3c-0.5-0.5-1.1-0.9-1.7-1.2c-0.1,0-0.1,0.1-0.1,0.1c0.5,0.4,1,0.8,1.4,1.2c-0.6,0.2-1.3,0.3-2,0.4
			c-0.7-0.5-1.5-0.9-2.3-1.2c-0.1,0-0.1,0.1-0.1,0.1c0.7,0.4,1.4,0.8,2,1.2c-0.8,0.1-1.5,0.2-2.2,0.2c-1-0.7-2.2-1.3-3.3-1.9
			c-0.1,0-0.1,0.1-0.1,0.1c1,0.6,2,1.3,3,1.8c-0.4,0-0.8,0-1.2,0c-0.9,0-1.8,0-2.7-0.1c-1.2-0.8-2.4-1.4-3.5-2.3
			c-0.1-0.1-0.2,0-0.1,0.1c0.9,0.8,2,1.6,3.1,2.1c-1.1-0.1-2.2-0.2-3.3-0.3c-1.6-1.1-3.3-1.9-5.1-2.7c-0.1,0-0.1,0.1-0.1,0.1
			c1.6,0.8,3.1,1.7,4.6,2.6c-0.8-0.1-1.5-0.1-2.3-0.2c0,0-0.1,0-0.1,0c-0.7-0.2-1.4-0.4-2.2-0.6c-2.1-1.2-4.3-2.3-6.4-3.4
			c-0.1,0-0.1,0.1,0,0.1c1.9,1.1,3.8,2.1,5.7,3.2c-2.6-0.6-5.4-0.9-8-1.2c-0.8-0.1-1.5-0.1-2.3-0.2c-1.5-0.8-3.1-1.5-4.6-2.3
			c-0.1,0-0.1,0.1-0.1,0.1c1.3,0.7,2.6,1.4,3.9,2.1c-1.3-0.1-2.6-0.1-3.9-0.1c-1.6-0.7-3.1-1.4-4.7-2.1c-0.1,0-0.1,0.1,0,0.1
			c1.4,0.7,2.9,1.3,4.4,2c-1.1,0-2.3,0-3.4,0c-1.8-0.6-3.6-1.2-5.5-1.8c-0.1,0-0.1,0.1,0,0.1c1.7,0.6,3.3,1.1,5,1.7
			c-0.2,0-0.4,0-0.6,0c-1,0.1-2.1,0.1-3.2,0.1c-1.2-0.4-2.4-0.7-3.6-1.2c-0.1,0-0.1,0.1-0.1,0.1c1,0.5,2.1,0.9,3.1,1.1
			c-2.8,0.2-5.6,0.6-7.8,1.9c-0.1,0.1-0.1,0.3,0.1,0.3c6-1,11.9-1.7,18-1.5c0,0,0.1,0,0.1,0c0,0,0.1,0,0.1,0c0.5,0,1,0,1.5,0.1
			c0.9,0.1,1.8,0.1,2.7,0.2c0.2,0.1,0.3,0.1,0.5,0.2c0.1,0,0.2-0.1,0.1-0.1c2.2,0.2,4.5,0.6,6.7,1c1.1,0.2,2.3,0.4,3.6,0.7
			c-1.5,0.8-2.4,3.9-1.7,5.3c0.5,0.9,1.9,1.2,2.8,1.5c1,0.3,2,0.5,3.1,0.5c-2,1-5,0.6-7.1,0.5c-2.4-0.1-4.9-0.4-7.3-0.1
			c0.5-0.4,0.8-1,1-1.5c0-0.1-0.2-0.2-0.2-0.1c-1.7,2.4-5.9,3.6-8.6,4.3c-2.9,0.7-5.8,0.7-8.8,0.8c-0.4,0-0.5,0.6-0.1,0.7
			c0.7,0.1,1.3,0.1,2,0.1c-1.6,5.7-5.6,8.6-10.9,11.1c-0.4,0.2-0.1,0.8,0.3,0.7c0.7-0.2,1.4-0.5,2.1-0.9c0.8,0.6,1.7,1.2,2.7,1.7
			c0.1,0,0.2-0.1,0.1-0.2c-0.9-0.5-1.7-1-2.6-1.6c0.6-0.3,1.2-0.6,1.8-1c0.8,0.7,1.6,1.2,2.6,1.7c0.1,0,0.2-0.1,0.1-0.2
			c-0.9-0.4-1.8-1-2.6-1.6c0.5-0.3,1-0.6,1.4-1c0.6,0.4,1.2,0.8,1.8,1.3c0.1,0.1,0.2,0,0.1-0.1c-0.5-0.5-1.1-0.9-1.8-1.2
			c0.9-0.7,1.8-1.5,2.6-2.3c0,0,0,0,0,0c0.4,0.3,0.7,0.7,1.1,1c-0.3,0.4-0.5,0.8-0.6,1.3l-1.4-1.2c-0.1-0.1-0.2,0-0.1,0.1
			c0.5,0.4,0.9,0.8,1.4,1.3c0,0,0,0,0,0c-0.1,0.6-0.1,1.2,0,1.7c0.4,1.7,1.5,2.9,3,3.6c-2.2,0.8-2.6,3.4-1.4,5.3
			c1.8,2.8,5.7,2.8,8.7,2.8c0.4,0,0.8,0,1.2,0C56.1,73.4,48.6,72,41.3,70.8z"/>
		<path fill="#F2EDC9" d="M15.7,68.9c1.2-1,0.4-2.5-0.7-3c-0.3-0.8-1.5-0.9-2.3-0.5c-1.2,0.6-1.7,2.1-0.8,3.2
			C12.7,69.7,14.6,69.8,15.7,68.9z M14.7,68.3c-0.6,0.3-1.5,0.3-2-0.2c-1.2-1.2,0.6-2.3,1.6-2.1c0,0.1,0,0.3,0.1,0.4
			C14.9,66.9,16,67.8,14.7,68.3z"/>
		<path fill="#F2EDC9" d="M15,67.4c-0.2-0.1-0.5-0.2-0.7-0.3c0,0,0-0.1,0-0.1c0.1-0.2-0.2-0.3-0.3-0.1c0,0,0,0.1-0.1,0.1
			c-0.4-0.1-0.7-0.3-1.1-0.4c-0.2-0.1-0.4,0.3-0.1,0.4c0.3,0.1,0.7,0.3,1,0.4c-0.1,0.3-0.3,0.6-0.4,0.9c-0.1,0.2,0.2,0.3,0.3,0.1
			c0.2-0.3,0.3-0.6,0.4-0.8c0.2,0.1,0.5,0.2,0.8,0.3C15.1,67.8,15.2,67.5,15,67.4z"/>
		<path fill="#F2EDC9" d="M45.6,59.8c-0.7-0.4-1.5-0.9-2.3-1.3c-0.1,0-0.2,0.1-0.1,0.1c0.7,0.5,1.5,0.9,2.2,1.3
			C45.6,60.1,45.7,59.9,45.6,59.8z"/>
	</g>
</g>
<g id="Layer_11" display="none">
	<g display="inline">
		<path fill="#F2EDC9" d="M76.6,24c-8.9,3.3-17.3,7.9-26,11.9c-9.2,4.3-18.3,8.9-27.4,13.3c-0.6,0.3-0.5,1.3,0.2,1.4
			c6,0.8,11.9,2.1,17.8,3.5c0.1,6-0.1,12,0,18.1c0,0.8,1,1,1.4,0.4c3.1-4.5,6.3-9,9.6-13.3c4.7,2.8,9.3,5.6,13.8,8.8
			c0.4,0.3,1,0,1.1-0.5c1.4-7.2,2.8-14.2,4.9-21.3c2-7.1,4-14.2,5.5-21.4C77.7,24.5,77.2,23.8,76.6,24z M46.4,54.4
			c-0.2,0.1-0.3,0.4-0.4,0.6c-0.3,0.6-0.5,1.2-0.7,2.1c-0.9,3.7-1.6,7.4-2.6,11c0-4.8,0.1-9.7,0-14.5c9.2-8.1,18.6-15.9,28.2-23.5
			c-5.7,5.6-11.4,11.3-17.1,16.9c-1.8,1.7-3.5,3.5-5.3,5.2C47.6,53.1,46.9,53.7,46.4,54.4z M72.8,27.2C62.3,35.4,52,44,42,52.8
			c-5.3-1.2-10.5-2.4-15.8-3.2c8.1-4,16.2-8.1,24.4-11.9C58,34.2,65.2,30.3,72.8,27.2z M43.9,68.1c0.9-3.2,1.5-6.5,2.3-9.8
			c0.2-0.8,0.4-1.6,0.7-2.3c1.4,0.8,2.7,1.7,4.1,2.5C48.5,61.7,46.2,64.9,43.9,68.1z M70.6,46c-1.9,6.7-3.3,13.4-4.6,20.2
			C60,62,53.7,58.5,47.6,54.7c0-0.1,0.1-0.1,0.1-0.2c0.7-0.8,1.6-1.6,2.4-2.4c1.8-1.7,3.6-3.5,5.3-5.2c6.7-6.5,13.3-13.1,19.9-19.7
			C74,33.6,72.3,39.8,70.6,46z"/>
		<path fill="#F2EDC9" d="M36.7,49.1c1.9-1,3.7-2,5.6-3.1c0.7-0.4,0.1-1.4-0.6-1c-1.9,1-3.7,2-5.6,3.1C35.4,48.5,36,49.5,36.7,49.1z
			"/>
		<path fill="#F2EDC9" d="M41.9,47.5c-0.9,0.5-1.7,0.9-2.6,1.4c-0.7,0.3-0.1,1.3,0.6,1c0.9-0.5,1.7-0.9,2.6-1.4
			C43.2,48.2,42.6,47.2,41.9,47.5z"/>
	</g>
</g>
</svg>
