<?xml version="1.0" encoding="utf-8"?>
<!-- Generator: Adobe Illustrator 21.0.2, SVG Export Plug-In . SVG Version: 6.00 Build 0)  -->
<svg version="1.1" id="Layer_1" xmlns="http://www.w3.org/2000/svg" xmlns:xlink="http://www.w3.org/1999/xlink" x="0px" y="0px"
	 viewBox="0 0 50 50" enable-background="new 0 0 50 50" xml:space="preserve">
<path fill="#FFFFFF" d="M25,45c-11,0-20-9-20-20s9-20,20-20s20,9,20,20S36,45,25,45 M25,50c13.8,0,25-11.2,25-25
	C50,11.2,38.8,0,25,0C11.2,0,0,11.2,0,25C0,38.8,11.2,50,25,50L25,50z"/>
<circle opacity="0.5" fill="#FFFFFF" cx="25" cy="25" r="23.4"/>
<polygon fill="#FFFFFF" points="30.2,7.2 15.3,22.1 12.3,25 15.3,28 30.2,42.8 33.1,39.9 18.2,25 33.1,10.1 "/>
</svg>
