<?xml version="1.0" encoding="utf-8"?>
<!-- Generator: Adobe Illustrator 21.0.2, SVG Export Plug-In . SVG Version: 6.00 Build 0)  -->
<svg version="1.1" xmlns="http://www.w3.org/2000/svg" xmlns:xlink="http://www.w3.org/1999/xlink" x="0px" y="0px"
	 viewBox="0 0 69 96" style="enable-background:new 0 0 69 96;" xml:space="preserve">
<style type="text/css">
	.st0{display:none;}
	.st1{display:inline;}
	.st2{fill:#F2EDC9;}
	.st3{opacity:0.5;}
	.st4{fill:url(#SVGID_1_);}
	.st5{fill:url(#SVGID_2_);}
	.st6{fill:url(#SVGID_3_);}
	.st7{fill:url(#SVGID_4_);}
	.st8{fill:url(#SVGID_5_);}
	.st9{fill:url(#SVGID_6_);}
	.st10{fill:url(#SVGID_7_);}
	.st11{fill:url(#SVGID_8_);}
	.st12{fill:url(#SVGID_9_);}
	.st13{fill:url(#SVGID_10_);}
	.st14{fill:url(#SVGID_11_);}
	.st15{fill:url(#SVGID_12_);}
	.st16{fill:url(#SVGID_13_);}
	.st17{fill:url(#SVGID_14_);}
	.st18{fill:url(#SVGID_15_);}
	.st19{fill:url(#SVGID_16_);}
	.st20{fill:url(#SVGID_17_);}
	.st21{fill:url(#SVGID_18_);}
	.st22{fill:url(#SVGID_19_);}
	.st23{fill:url(#SVGID_20_);}
	.st24{fill:url(#SVGID_21_);}
	.st25{fill:url(#SVGID_22_);}
	.st26{fill:url(#SVGID_23_);}
	.st27{fill:url(#SVGID_24_);}
	.st28{fill:url(#SVGID_25_);}
	.st29{font-family:'Raleway-Light';}
	.st30{font-size:22.1414px;}
</style>
<g id="Layer_1" class="st0">
	<g class="st1">
		<g>
			<g>
				<g>
					<g>
						<path class="st2" d="M50.6,11.9H19.5c-3.5,0-6.4,2.9-6.4,6.4v38.6c0,3.5,2.9,6.4,6.4,6.4h31.1c3.5,0,6.4-2.9,6.4-6.4V18.3
							C57,14.8,54.1,11.9,50.6,11.9z M51.7,53.3c0,2.3-1.9,4.2-4.2,4.2H22.6c-2.3,0-4.2-1.9-4.2-4.2V21.8c0-2.3,1.9-4.2,4.2-4.2
							h24.8c2.3,0,4.2,1.9,4.2,4.2V53.3z"/>
						<path class="st2" d="M45.6,34.7H24.5c-1.2,0-2.1,1-2.1,2.1v1.9c0,1.2,1,2.1,2.1,2.1h21.1c1.2,0,2.1-1,2.1-2.1v-1.9
							C47.7,35.7,46.7,34.7,45.6,34.7z"/>
						<path class="st2" d="M45.6,25.2H24.5c-1.2,0-2.1,0.9-2.1,2.1v1.9c0,1.2,1,2.1,2.1,2.1h21.1c1.2,0,2.1-1,2.1-2.1v-1.9
							C47.7,26.1,46.7,25.2,45.6,25.2z"/>
						<path class="st2" d="M45.6,44.3H24.5c-1.2,0-2.1,0.9-2.1,2.1v2c0,1.2,1,2.1,2.1,2.1h21.1c1.2,0,2.1-1,2.1-2.1v-2
							C47.7,45.2,46.7,44.3,45.6,44.3z"/>
					</g>
				</g>
			</g>
		</g>
		<g class="st3">
			<g>
				<g>
					<g>
						<linearGradient id="SVGID_1_" gradientUnits="userSpaceOnUse" x1="35.0385" y1="94.4573" x2="35.0385" y2="67.7029">
							<stop  offset="0" style="stop-color:#FFFFFF;stop-opacity:0"/>
							<stop  offset="1" style="stop-color:#F2EDC9"/>
						</linearGradient>
						<path class="st4" d="M13.1,74.3v38.6c0,3.5,2.9,6.4,6.4,6.4h31.1c3.5,0,6.4-2.9,6.4-6.4V74.3c0-3.5-2.9-6.4-6.4-6.4H19.5
							C16,67.9,13.1,70.8,13.1,74.3z M18.4,77.8c0-2.3,1.9-4.2,4.2-4.2h24.8c2.3,0,4.2,1.9,4.2,4.2v31.6c0,2.3-1.9,4.2-4.2,4.2H22.7
							c-2.3,0-4.2-1.9-4.2-4.2V77.8z"/>
						<linearGradient id="SVGID_2_" gradientUnits="userSpaceOnUse" x1="35.0389" y1="93.0734" x2="35.0389" y2="67.8661">
							<stop  offset="0" style="stop-color:#FFFFFF;stop-opacity:0"/>
							<stop  offset="1" style="stop-color:#F2EDC9"/>
						</linearGradient>
						<path class="st5" d="M24.5,90.8h21.1c1.2,0,2.1,1,2.1,2.1v1.9c0,1.2-1,2.1-2.1,2.1H24.5c-1.2,0-2.1-1-2.1-2.1v-1.9
							C22.4,91.7,23.3,90.8,24.5,90.8z"/>
						<linearGradient id="SVGID_3_" gradientUnits="userSpaceOnUse" x1="35.0389" y1="93.0734" x2="35.0389" y2="67.8661">
							<stop  offset="0" style="stop-color:#FFFFFF;stop-opacity:0"/>
							<stop  offset="1" style="stop-color:#F2EDC9"/>
						</linearGradient>
						<path class="st6" d="M24.5,81.2h21.1c1.2,0,2.1,0.9,2.1,2.1v1.9c0,1.2-1,2.1-2.1,2.1H24.5c-1.2,0-2.1-1-2.1-2.1v-1.9
							C22.4,82.2,23.3,81.2,24.5,81.2z"/>
						<linearGradient id="SVGID_4_" gradientUnits="userSpaceOnUse" x1="35.0389" y1="93.0734" x2="35.0389" y2="67.8661">
							<stop  offset="0" style="stop-color:#FFFFFF;stop-opacity:0"/>
							<stop  offset="1" style="stop-color:#F2EDC9"/>
						</linearGradient>
						<path class="st7" d="M24.5,100.3h21.1c1.2,0,2.1,0.9,2.1,2.1v2c0,1.2-1,2.1-2.1,2.1H24.5c-1.2,0-2.1-1-2.1-2.1v-2
							C22.4,101.3,23.3,100.3,24.5,100.3z"/>
					</g>
				</g>
			</g>
		</g>
	</g>
</g>
<g id="Layer_2" class="st0">
	<g class="st1">
		<g>
			<g>
				<g>
					<path class="st2" d="M43,31.6C36.4,31.6,31,37,31,43.6c0,6.6,5.4,11.9,11.9,11.9c6.6,0,11.9-5.4,11.9-11.9
						C54.9,37,49.6,31.6,43,31.6z M42.8,50.5c-4.1,0-7.3-3.3-7.3-7.3c0-4.1,3.3-7.3,7.3-7.3c4.1,0,7.3,3.3,7.3,7.3
						C50.1,47.2,46.9,50.5,42.8,50.5z"/>
					<g>
						<path class="st2" d="M54.1,21.6H26.2v-1.2c0-2.4-1.9-4.3-4.3-4.3c-2.4,0-4.3,1.9-4.3,4.3v1.2H16c-4.2,0-7.7,3.4-7.7,7.7v26.3
							c0,4.2,3.4,7.7,7.7,7.7h38.2c4.2,0,7.7-3.4,7.7-7.7V29.3C61.8,25.1,58.4,21.6,54.1,21.6z M18.1,34.9c-2.4,0-4.4-2-4.4-4.4
							c0-2.4,2-4.4,4.4-4.4c2.4,0,4.4,2,4.4,4.4C22.5,33,20.5,34.9,18.1,34.9z M43,57.5c-7.7,0-13.9-6.2-13.9-13.9
							c0-7.7,6.2-13.9,13.9-13.9c7.7,0,13.9,6.2,13.9,13.9C56.9,51.2,50.7,57.5,43,57.5z"/>
						<circle class="st2" cx="18.1" cy="30.5" r="3.4"/>
					</g>
				</g>
			</g>
		</g>
		<g class="st3">
			<g>
				<g>
					<linearGradient id="SVGID_5_" gradientUnits="userSpaceOnUse" x1="42.9783" y1="93.9854" x2="42.9783" y2="67.6919">
						<stop  offset="0" style="stop-color:#FFFFFF;stop-opacity:0"/>
						<stop  offset="1" style="stop-color:#F2EDC9"/>
					</linearGradient>
					<path class="st8" d="M54.9,87.6c0-6.6-5.4-11.9-11.9-11.9C36.4,75.7,31,81,31,87.6c0,6.6,5.4,11.9,11.9,11.9
						C49.6,99.6,54.9,94.2,54.9,87.6z M50.1,88c0,4.1-3.3,7.3-7.3,7.3c-4.1,0-7.3-3.3-7.3-7.3c0-4.1,3.3-7.3,7.3-7.3
						C46.9,80.6,50.1,83.9,50.1,88z"/>
					<g>
						<linearGradient id="SVGID_6_" gradientUnits="userSpaceOnUse" x1="35.0399" y1="93.9854" x2="35.0399" y2="67.6919">
							<stop  offset="0" style="stop-color:#FFFFFF;stop-opacity:0"/>
							<stop  offset="1" style="stop-color:#F2EDC9"/>
						</linearGradient>
						<path class="st9" d="M61.8,101.8V75.5c0-4.2-3.4-7.7-7.7-7.7H16c-4.2,0-7.7,3.4-7.7,7.7v26.3c0,4.2,3.4,7.7,7.7,7.7h1.7v1.2
							c0,2.4,1.9,4.3,4.3,4.3c2.4,0,4.3-1.9,4.3-4.3v-1.2h27.9C58.4,109.5,61.8,106.1,61.8,101.8z M22.5,100.6c0,2.4-2,4.4-4.4,4.4
							c-2.4,0-4.4-2-4.4-4.4c0-2.4,2-4.4,4.4-4.4C20.5,96.2,22.5,98.2,22.5,100.6z M56.9,87.6c0,7.7-6.2,13.9-13.9,13.9
							c-7.7,0-13.9-6.2-13.9-13.9c0-7.7,6.2-13.9,13.9-13.9C50.7,73.7,56.9,79.9,56.9,87.6z"/>
						<linearGradient id="SVGID_7_" gradientUnits="userSpaceOnUse" x1="18.0634" y1="93.9854" x2="18.0634" y2="67.6919">
							<stop  offset="0" style="stop-color:#FFFFFF;stop-opacity:0"/>
							<stop  offset="1" style="stop-color:#F2EDC9"/>
						</linearGradient>
						<circle class="st10" cx="18.1" cy="100.6" r="3.4"/>
					</g>
				</g>
			</g>
		</g>
	</g>
</g>
<g id="Layer_3" class="st0">
	<g class="st1">
		<g class="st3">
			<g>
				<g>
					<linearGradient id="SVGID_8_" gradientUnits="userSpaceOnUse" x1="34.7681" y1="93.881" x2="34.7681" y2="67.7819">
						<stop  offset="0" style="stop-color:#FFFFFF;stop-opacity:0"/>
						<stop  offset="1" style="stop-color:#F2EDC9"/>
					</linearGradient>
					<path class="st11" d="M45.5,113.4c0,0.9,0,1.6,0,1.8c0,3.8-2.6,10.2-10.6,10.2h-0.4c-8.6,0-10.6-6.5-10.6-10.2
						c0-0.2,0-0.9,0-1.8c-0.9,0-1.5-0.7-1.5-1.5V108c0-0.9,0.7-1.5,1.5-1.5c0,0,0,0,0.1,0c0.6-5.5,7-11.8,10.5-11.8H35
						c3.6,0,9.9,6.2,10.5,11.8c0,0,0,0,0.1,0c0.9,0,1.5,0.7,1.5,1.5v3.8C47.1,112.7,46.4,113.4,45.5,113.4z"/>
					<g>
						<linearGradient id="SVGID_9_" gradientUnits="userSpaceOnUse" x1="23.7155" y1="93.881" x2="23.7155" y2="67.7819">
							<stop  offset="0" style="stop-color:#FFFFFF;stop-opacity:0"/>
							<stop  offset="1" style="stop-color:#F2EDC9"/>
						</linearGradient>
						<path class="st12" d="M24.2,91.9c-6.5,0-11.8-5.3-11.8-11.8V67.9H35l-10.4,24H24.2z"/>
						<linearGradient id="SVGID_10_" gradientUnits="userSpaceOnUse" x1="46.3609" y1="93.881" x2="46.3609" y2="67.7819">
							<stop  offset="0" style="stop-color:#FFFFFF;stop-opacity:0"/>
							<stop  offset="1" style="stop-color:#F2EDC9"/>
						</linearGradient>
						<path class="st13" d="M45.8,91.9h-1l-9.8-24h22.6V80C57.7,86.6,52.4,91.9,45.8,91.9z"/>
					</g>
					<g>
						<linearGradient id="SVGID_11_" gradientUnits="userSpaceOnUse" x1="31.7413" y1="93.881" x2="31.7413" y2="67.7819">
							<stop  offset="0" style="stop-color:#FFFFFF;stop-opacity:0"/>
							<stop  offset="1" style="stop-color:#F2EDC9"/>
						</linearGradient>
						<polygon class="st14" points="34.8,90.5 28.7,94 28.7,87.2 						"/>
						<linearGradient id="SVGID_12_" gradientUnits="userSpaceOnUse" x1="37.7925" y1="93.881" x2="37.7925" y2="67.7819">
							<stop  offset="0" style="stop-color:#FFFFFF;stop-opacity:0"/>
							<stop  offset="1" style="stop-color:#F2EDC9"/>
						</linearGradient>
						<polygon class="st15" points="34.8,90.5 40.8,94 40.8,87.2 						"/>
						<linearGradient id="SVGID_13_" gradientUnits="userSpaceOnUse" x1="34.7669" y1="93.881" x2="34.7669" y2="67.7819">
							<stop  offset="0" style="stop-color:#FFFFFF;stop-opacity:0"/>
							<stop  offset="1" style="stop-color:#F2EDC9"/>
						</linearGradient>
						<circle class="st16" cx="34.8" cy="90.5" r="1.9"/>
					</g>
				</g>
			</g>
		</g>
		<g>
			<g>
				<g>
					<path class="st2" d="M45.5,17.8c0-0.9,0-1.6,0-1.8c0-3.8-2.6-10.2-10.6-10.2h-0.4C26,5.8,24,12.3,24,15.9c0,0.2,0,0.9,0,1.8
						c-0.9,0-1.5,0.7-1.5,1.5v3.8c0,0.9,0.7,1.5,1.5,1.5c0,0,0,0,0.1,0c0.6,5.5,7,11.8,10.5,11.8H35c3.6,0,9.9-6.2,10.5-11.8
						c0,0,0,0,0.1,0c0.9,0,1.5-0.7,1.5-1.5v-3.8C47.1,18.5,46.4,17.8,45.5,17.8z"/>
					<g>
						<path class="st2" d="M24.2,39.3c-6.5,0-11.8,5.3-11.8,11.8v12.1H35l-10.4-24H24.2z"/>
						<path class="st2" d="M45.8,39.3h-1l-9.8,24h22.6V51.1C57.7,44.6,52.4,39.3,45.8,39.3z"/>
					</g>
					<g>
						<polygon class="st2" points="34.8,40.6 28.7,37.2 28.7,43.9 						"/>
						<polygon class="st2" points="34.8,40.6 40.8,37.2 40.8,43.9 						"/>
						<circle class="st2" cx="34.8" cy="40.6" r="1.9"/>
					</g>
				</g>
			</g>
		</g>
	</g>
</g>
<g id="Layer_4" class="st0">
	<g class="st1">
		<g>
			<g>
				<g>
					<path class="st2" d="M35,10.2c-12.4,0-22.5,10.1-22.5,22.5c0,11.2,8.2,20.5,18.9,22.2c0,0,0.1,0.1,0.1,0.1l0.1-0.1
						c1.1,0.2,2.3,0.3,3.5,0.3c12.4,0,22.5-10.1,22.5-22.5C57.5,20.3,47.4,10.2,35,10.2z M36.7,25.4c2.5,0,4.6-0.2,6.5-0.5
						c0.6,1.8,1,3.9,1.1,6.2h-7.6V25.4z M36.7,22v-7.7c1.1,1,3.4,3.4,5.2,7.3C40.4,21.8,38.7,21.9,36.7,22z M33.3,14.3v7.6
						c-1.9-0.1-3.6-0.3-5.2-0.5C30,17.6,32.4,15.2,33.3,14.3z M33.3,25.3V31h-7.7c0.2-2.4,0.6-4.5,1.2-6.4
						C28.7,24.9,30.9,25.2,33.3,25.3z M22.2,31h-6.4c0.3-3.2,1.3-6.2,3-8.7c0.6,0.3,2.2,0.9,4.7,1.6C22.8,26,22.3,28.4,22.2,31z
						 M22.2,34.4c0.2,2.2,0.7,4.8,1.6,7.5c-2.3,0.6-3.9,1.2-4.8,1.5c-1.8-2.6-2.9-5.7-3.2-9H22.2z M25.6,34.4h7.7v6.3
						C31,40.8,29,41,27.1,41.3C26.3,38.8,25.8,36.5,25.6,34.4z M33.3,44.1V52c0,0,0,0,0,0c-2.1-2.4-3.7-4.9-4.8-7.4
						C29.9,44.3,31.6,44.2,33.3,44.1z M36.7,44.1c1.7,0,3.3,0.2,4.7,0.3c-1.2,2.4-2.7,4.9-4.7,7.3V44.1z M36.7,40.7v-6.2h7.6
						c-0.2,2-0.7,4.3-1.5,6.7C41,40.9,39,40.7,36.7,40.7z M47.7,34.4h6.5c-0.3,3.3-1.4,6.4-3.2,9c-0.9-0.4-2.5-1.1-4.9-1.7
						C47.1,39.1,47.6,36.6,47.7,34.4z M47.8,31c-0.1-2.5-0.5-4.8-1.2-6.9c2.4-0.6,3.9-1.2,4.8-1.6C53,25,54,27.9,54.3,31H47.8z
						 M49.3,19.7c-0.8,0.3-2.1,0.8-3.8,1.2c-1.1-2.6-2.5-4.7-3.8-6.3C44.6,15.7,47.2,17.5,49.3,19.7z M28.4,14.6
						c-1.2,1.5-2.6,3.5-3.7,6.1c-1.7-0.4-2.9-0.8-3.7-1.1C23,17.3,25.6,15.6,28.4,14.6z M21.3,46.3c0.9-0.3,2.2-0.7,3.8-1.1
						c0.8,1.9,1.8,3.7,3.1,5.6C25.5,49.8,23.2,48.2,21.3,46.3z M41.6,50.9C43,49,44,47,44.9,45c1.8,0.4,3.1,0.9,3.9,1.2
						C46.9,48.3,44.4,49.9,41.6,50.9z"/>
					<path class="st2" d="M35,63.3c-16.9,0-30.6-13.7-30.6-30.6C4.4,15.9,18.2,2.2,35,2.2c16.9,0,30.6,13.7,30.6,30.6
						C65.6,49.6,51.9,63.3,35,63.3z M35,5.8c-14.9,0-27,12.1-27,27c0,14.9,12.1,27,27,27c14.9,0,27-12.1,27-27
						C62,17.9,49.9,5.8,35,5.8z"/>
				</g>
			</g>
		</g>
		<g class="st3">
			<g>
				<g>
					<linearGradient id="SVGID_14_" gradientUnits="userSpaceOnUse" x1="35.0391" y1="94.4156" x2="35.0391" y2="67.6079">
						<stop  offset="0" style="stop-color:#FFFFFF;stop-opacity:0"/>
						<stop  offset="1" style="stop-color:#F2EDC9"/>
					</linearGradient>
					<path class="st17" d="M35,75.9c-12.4,0-22.5,10.1-22.5,22.5c0,11.2,8.2,20.5,18.9,22.2c0,0,0.1,0.1,0.1,0.1l0.1-0.1
						c1.1,0.2,2.3,0.3,3.5,0.3c12.4,0,22.5-10.1,22.5-22.5C57.5,86,47.4,75.9,35,75.9z M36.7,91c2.5,0,4.6-0.2,6.5-0.5
						c0.6,1.8,1,3.9,1.1,6.2h-7.6V91z M36.7,87.6v-7.7c1.1,1,3.4,3.4,5.2,7.3C40.4,87.4,38.7,87.6,36.7,87.6z M33.3,80v7.6
						c-1.9-0.1-3.6-0.3-5.2-0.5C30,83.2,32.4,80.9,33.3,80z M33.3,91v5.7h-7.7c0.2-2.4,0.6-4.5,1.2-6.4C28.7,90.6,30.9,90.9,33.3,91
						z M22.2,96.7h-6.4c0.3-3.2,1.3-6.2,3-8.7c0.6,0.3,2.2,0.9,4.7,1.6C22.8,91.7,22.3,94.1,22.2,96.7z M22.2,100.1
						c0.2,2.2,0.7,4.8,1.6,7.5c-2.3,0.6-3.9,1.2-4.8,1.5c-1.8-2.6-2.9-5.7-3.2-9H22.2z M25.6,100.1h7.7v6.3
						c-2.3,0.1-4.4,0.3-6.2,0.6C26.3,104.5,25.8,102.1,25.6,100.1z M33.3,109.8v7.9c0,0,0,0,0,0c-2.1-2.4-3.7-4.9-4.8-7.4
						C29.9,110,31.6,109.8,33.3,109.8z M36.7,109.7c1.7,0,3.3,0.2,4.7,0.3c-1.2,2.4-2.7,4.9-4.7,7.3V109.7z M36.7,106.3v-6.2h7.6
						c-0.2,2-0.7,4.3-1.5,6.7C41,106.6,39,106.4,36.7,106.3z M47.7,100.1h6.5c-0.3,3.3-1.4,6.4-3.2,9c-0.9-0.4-2.5-1.1-4.9-1.7
						C47.1,104.8,47.6,102.3,47.7,100.1z M47.8,96.7c-0.1-2.5-0.5-4.8-1.2-6.9c2.4-0.6,3.9-1.2,4.8-1.6c1.6,2.5,2.6,5.4,2.9,8.5
						H47.8z M49.3,85.4c-0.8,0.3-2.1,0.8-3.8,1.2c-1.1-2.6-2.5-4.7-3.8-6.3C44.6,81.3,47.2,83.1,49.3,85.4z M28.4,80.3
						c-1.2,1.5-2.6,3.5-3.7,6.1c-1.7-0.4-2.9-0.8-3.7-1.1C23,83,25.6,81.3,28.4,80.3z M21.3,111.9c0.9-0.3,2.2-0.7,3.8-1.1
						c0.8,1.9,1.8,3.7,3.1,5.6C25.5,115.4,23.2,113.9,21.3,111.9z M41.6,116.6c1.3-1.9,2.4-3.9,3.3-5.9c1.8,0.4,3.1,0.9,3.9,1.2
						C46.9,113.9,44.4,115.6,41.6,116.6z"/>
					<linearGradient id="SVGID_15_" gradientUnits="userSpaceOnUse" x1="35.0385" y1="94.4156" x2="35.0385" y2="67.6079">
						<stop  offset="0" style="stop-color:#FFFFFF;stop-opacity:0"/>
						<stop  offset="1" style="stop-color:#F2EDC9"/>
					</linearGradient>
					<path class="st18" d="M35,129c-16.9,0-30.6-13.7-30.6-30.6c0-16.9,13.7-30.6,30.6-30.6c16.9,0,30.6,13.7,30.6,30.6
						C65.6,115.3,51.9,129,35,129z M35,71.4c-14.9,0-27,12.1-27,27c0,14.9,12.1,27,27,27c14.9,0,27-12.1,27-27
						C62,83.5,49.9,71.4,35,71.4z"/>
				</g>
			</g>
		</g>
	</g>
</g>
<g id="Layer_5" class="st0">
	<g class="st1">
		<g>
			<g>
				<g>
					<path class="st2" d="M21.9,60.9c8.2,1.5,15.5,2.3,21.7,2.3c0.3,0,0.6,0,0.9,0c0.4,0,0.8,0,1.2,0h0.2c2.2,0,4.7,0,6.4-0.7
						c1.3-0.5,3.6-2.4,3.8-3.6c0.1-0.3,0-0.8,0-1.2c-0.1-0.6-0.1-1.1,0-1.7c0.2-1.1,1-1.7,1.7-2.3c0.8-0.6,1.3-1.1,1.4-1.9
						c0-0.5-0.3-1.1-0.6-1.7c-0.4-0.7-0.8-1.6-0.7-2.5c0.1-1.1,0.8-1.7,1.4-2.3c0.6-0.6,1-0.9,1-1.5c0-0.6-0.3-1-0.8-1.5
						c-0.5-0.6-1.2-1.4-1.1-2.6c0.1-1,0.6-1.7,1.1-2.2c0.4-0.4,0.7-0.7,0.7-1.1c0.1-1.8-2.1-4.3-3.2-4.7c-1.3-0.6-3.7-0.5-5.9-0.5
						c-0.4,0-0.8,0-1.1,0c-1,0-2.1,0-3.1,0.1c-1,0-2.1,0.1-3.1,0.1l0,0c-0.6,0-1.2,0-1.7,0l-0.7,0l-0.1-0.7
						c-0.3-2.9,0.8-5.2,1.9-7.4c1.2-2.4,2.4-5,2-8.5c-0.3-2.3-2-5.6-5.1-5.6c-0.2,0-0.5,0-0.7,0.1C39.1,9,39,9.3,39,10.5
						c0,0.4,0,0.8,0,1.1c-0.3,3.3-0.9,7-2.8,9.5c-0.7,0.9-1.5,1.5-2.3,2.2c-0.9,0.7-1.7,1.3-2.2,2.2c-0.6,1.1-1.1,2.4-1.6,3.7
						c-0.5,1.3-1,2.6-1.7,3.9c-1.9,3.6-3.7,5.7-5.5,6.2c-0.4,0.1-0.9,0.2-1.3,0.2L21.9,60.9z"/>
					<path class="st2" d="M19.2,58.3c0,2.6-2.1,3.5-4.7,3.5l0,0c-2.6,0-4.7-0.9-4.7-3.5V42.2c0-2.6,2.1-3.2,4.7-3.2l0,0
						c2.6,0,4.7,0.6,4.7,3.2V58.3z"/>
				</g>
			</g>
		</g>
		<g class="st3">
			<g>
				<g>
					<linearGradient id="SVGID_16_" gradientUnits="userSpaceOnUse" x1="40.9889" y1="93.6064" x2="40.9889" y2="67.729">
						<stop  offset="0" style="stop-color:#FFFFFF;stop-opacity:0"/>
						<stop  offset="1" style="stop-color:#F2EDC9"/>
					</linearGradient>
					<path class="st19" d="M21.6,91.7c0.4,0,0.9,0,1.3,0.2c1.8,0.6,3.6,2.6,5.5,6.2c0.7,1.2,1.2,2.6,1.7,3.9c0.5,1.3,1,2.6,1.6,3.7
						c0.5,0.9,1.3,1.5,2.2,2.2c0.8,0.6,1.6,1.3,2.3,2.2c1.9,2.5,2.5,6.2,2.8,9.5c0,0.4,0,0.8,0,1.1c0,1.2,0.1,1.5,0.3,1.6
						c0.2,0,0.5,0.1,0.7,0.1c3.1,0,4.9-3.3,5.1-5.6c0.4-3.5-0.8-6-2-8.5c-1.1-2.2-2.2-4.6-1.9-7.4l0.1-0.7l0.7,0c0.6,0,1.2,0,1.7,0
						l0,0c1,0,2,0,3.1,0.1c1,0,2.1,0.1,3.1,0.1c0.4,0,0.8,0,1.1,0c2.2,0,4.5,0.1,5.9-0.5c1.1-0.5,3.3-3,3.2-4.7
						c0-0.4-0.3-0.7-0.7-1.1c-0.5-0.5-1.1-1.1-1.1-2.2c-0.1-1.2,0.6-2,1.1-2.6c0.5-0.6,0.8-1,0.8-1.5c0-0.5-0.4-0.9-1-1.5
						c-0.6-0.6-1.3-1.3-1.4-2.3c-0.1-0.9,0.3-1.8,0.7-2.5c0.3-0.6,0.6-1.2,0.6-1.7c-0.1-0.8-0.6-1.3-1.4-1.9
						c-0.7-0.6-1.5-1.2-1.7-2.3c-0.1-0.6-0.1-1.2,0-1.7c0.1-0.5,0.1-0.9,0-1.2c-0.3-1.2-2.6-3.1-3.8-3.6c-1.7-0.7-4.2-0.7-6.4-0.7
						h-0.2c-0.4,0-0.8,0-1.2,0c-0.3,0-0.6,0-0.9,0c-6.2,0-13.5,0.8-21.7,2.3L21.6,91.7z"/>
					<linearGradient id="SVGID_17_" gradientUnits="userSpaceOnUse" x1="14.469" y1="93.6064" x2="14.469" y2="67.729">
						<stop  offset="0" style="stop-color:#FFFFFF;stop-opacity:0"/>
						<stop  offset="1" style="stop-color:#F2EDC9"/>
					</linearGradient>
					<path class="st20" d="M19.2,72.8c0-2.6-2.1-3.5-4.7-3.5l0,0c-2.6,0-4.7,0.9-4.7,3.5v16.1c0,2.6,2.1,3.2,4.7,3.2l0,0
						c2.6,0,4.7-0.6,4.7-3.2V72.8z"/>
				</g>
			</g>
		</g>
	</g>
</g>
<g id="Layer_6">
	<g>
		<g>
			<g>
				<g>
					<g>
						<path class="st2" d="M14.9,55l-4.2,6.4c-0.2,0.7,0.2,1.2,0.6,1.6c0.4,0.4,1.2,0.6,1.7,0.4l5.6-5.3c-0.3-0.2-0.6-0.4-0.9-0.6
							C16.7,56.7,15.8,55.9,14.9,55z"/>
						<path class="st2" d="M44.5,40.1l-2.5,3.9c-1.9,3.1-7,2.8-10.6,1.7c-1.2-0.4-2.5-1-3.6-1.8c-1.4-1.1-2.5-2.4-3.3-3.7
							c-1.5-2.8-2.1-7.3,0.1-10.4l4.5-3c-6.2-2.1-11.8-0.1-15.6,3.5c0,0,0-0.1,0.1-0.1c-0.1,0.1-0.1,0.1-0.1,0.2
							c-0.4,0.4-0.7,0.7-1,1.1c-0.3,0.4-0.6,0.9-0.9,1.3c-3.7,6.3-1.7,14.6,4.3,20.8c0.9,0.9,1.8,1.8,2.9,2.6
							c0.3,0.2,0.6,0.4,0.9,0.6c8.5,6,18.8,5.7,24.1-1.3c0.1-0.1,0.2-0.2,0.2-0.3c0,0-0.1,0.1-0.1,0.1
							C47.2,50.8,48.2,45.9,44.5,40.1z"/>
						<path class="st2" d="M38.5,30.8c-2.4-1.9-4.3-4.2-5.5-6.6c0,0-6.1,5.4-6.1,5.4c-2.1,3.1-2.2,6.3-0.7,9.1
							c0.7,1.4,1.8,2.6,3.3,3.7c1.1,0.8,2.3,1.5,3.6,1.8c3.6,1.1,7.4,0.3,9.4-2.8l3.7-6.9C46.1,34.5,40.9,32.6,38.5,30.8z"/>
						<path class="st2" d="M53.4,12c-6.6-5-14.9-5.2-18.6-0.4c-0.2,0.2-0.3,0.5-0.5,0.7c-0.1,0.1-0.1,0.2-0.2,0.3
							c-0.1,0.2-0.2,0.5-0.3,0.7c0,0.1-0.1,0.2-0.1,0.3c-0.1,0.2-0.2,0.5-0.2,0.7c0,0.1-0.1,0.2-0.1,0.3c-0.1,0.2-0.1,0.5-0.2,0.8
							c0,0.1,0,0.2-0.1,0.4c0,0.2,0,0.5-0.1,0.8c0,0.1,0,0.3,0,0.4c0,0.2,0,0.5,0,0.7c0,0.1,0,0.3,0,0.4c0,0.2,0.1,0.5,0.1,0.7
							c0,0.2,0,0.3,0.1,0.5c0,0.2,0.1,0.4,0.1,0.6c0.1,0.2,0.1,0.4,0.1,0.6c0.1,0.2,0.1,0.3,0.2,0.5c0.1,0.2,0.1,0.5,0.2,0.7
							c0.1,0.1,0.1,0.3,0.2,0.4c0.1,0.3,0.2,0.5,0.4,0.8c0,0.1,0.1,0.2,0.1,0.3c0.1,0.1,0.2,0.3,0.2,0.4c0.1,0.2,0.2,0.3,0.3,0.5
							c0,0,0,0,0,0.1c0.5,0.8,1,1.6,1.7,2.3c0.9,1.1,1.9,2.1,3.1,3c0.7,0.5,1.4,1,2.1,1.4c0.1,0.1,0.2,0.1,0.3,0.2
							c0.3,0.2,0.6,0.3,0.9,0.5c0.1,0,0.2,0.1,0.2,0.1c0.1,0,0.1,0.1,0.1,0.1c0.3,0.1,0.6,0.2,0.9,0.4c0.1,0.1,0.3,0.1,0.4,0.2
							c0.3,0.1,0.6,0.2,0.9,0.3c0.1,0,0.3,0.1,0.4,0.1c0.3,0.1,0.6,0.2,0.9,0.2c0.1,0,0.2,0.1,0.3,0.1c0,0,0.1,0,0.1,0
							c0.3,0.1,0.6,0.1,0.9,0.2c0.1,0,0.3,0,0.4,0.1c0.3,0,0.6,0.1,0.9,0.1c0.1,0,0.2,0,0.4,0c0.3,0,0.6,0,0.9,0c0.1,0,0.2,0,0.3,0
							c0.3,0,0.6,0,0.9-0.1c0.1,0,0.2,0,0.3,0c0.3,0,0.6-0.1,0.9-0.1c0.1,0,0.2,0,0.2-0.1c0.3-0.1,0.6-0.1,0.9-0.2
							c0.1,0,0.1,0,0.2-0.1c0.3-0.1,0.6-0.2,0.9-0.3c0,0,0,0,0.1,0c1-0.4,1.8-1,2.6-1.7c0,0,0,0,0,0c0.3-0.3,0.5-0.6,0.8-0.9
							C62.3,25,60,17,53.4,12z"/>
					</g>
				</g>
			</g>
		</g>
		<g class="st3">
			<g>
				<g>
					<g>
						<linearGradient id="SVGID_18_" gradientUnits="userSpaceOnUse" x1="14.6597" y1="93.842" x2="14.6597" y2="67.0301">
							<stop  offset="0" style="stop-color:#FFFFFF;stop-opacity:0"/>
							<stop  offset="1" style="stop-color:#F2EDC9"/>
						</linearGradient>
						<path class="st21" d="M14.9,76.2l-4.2-6.4c-0.2-0.7,0.2-1.2,0.6-1.6c0.4-0.4,1.2-0.6,1.7-0.4l5.6,5.3
							c-0.3,0.2-0.6,0.4-0.9,0.6C16.7,74.4,15.8,75.3,14.9,76.2z"/>
						<linearGradient id="SVGID_19_" gradientUnits="userSpaceOnUse" x1="28.2713" y1="93.842" x2="28.2713" y2="67.0301">
							<stop  offset="0" style="stop-color:#FFFFFF;stop-opacity:0"/>
							<stop  offset="1" style="stop-color:#F2EDC9"/>
						</linearGradient>
						<path class="st22" d="M44.5,91l-2.5-3.9c-1.9-3.1-7-2.8-10.6-1.7c-1.2,0.4-2.5,1-3.6,1.8c-1.4,1.1-2.5,2.4-3.3,3.7
							c-1.5,2.8-2.1,7.3,0.1,10.4l4.5,3c-6.2,2.1-11.8,0.1-15.6-3.5c0,0,0,0.1,0.1,0.1c-0.1-0.1-0.1-0.1-0.1-0.2
							c-0.4-0.4-0.7-0.7-1-1.1c-0.3-0.4-0.6-0.9-0.9-1.3C7.8,92,9.9,83.7,15.9,77.5c0.9-0.9,1.8-1.8,2.9-2.6
							c0.3-0.2,0.6-0.4,0.9-0.6c8.5-6,18.8-5.7,24.1,1.3c0.1,0.1,0.2,0.2,0.2,0.3c0,0-0.1-0.1-0.1-0.1C47.2,80.4,48.2,85.3,44.5,91z
							"/>
						<linearGradient id="SVGID_20_" gradientUnits="userSpaceOnUse" x1="35.7301" y1="93.842" x2="35.7301" y2="67.0301">
							<stop  offset="0" style="stop-color:#FFFFFF;stop-opacity:0"/>
							<stop  offset="1" style="stop-color:#F2EDC9"/>
						</linearGradient>
						<path class="st23" d="M38.5,100.4c-2.4,1.9-4.3,4.2-5.5,6.6c0,0-6.1-5.4-6.1-5.4c-2.1-3.1-2.2-6.3-0.7-9.1
							c0.7-1.4,1.8-2.6,3.3-3.7c1.1-0.8,2.3-1.5,3.6-1.8c3.6-1.1,7.4-0.3,9.4,2.8l3.7,6.9C46.1,96.7,40.9,98.6,38.5,100.4z"/>
						<linearGradient id="SVGID_21_" gradientUnits="userSpaceOnUse" x1="46.7191" y1="93.842" x2="46.7191" y2="67.0301">
							<stop  offset="0" style="stop-color:#FFFFFF;stop-opacity:0"/>
							<stop  offset="1" style="stop-color:#F2EDC9"/>
						</linearGradient>
						<path class="st24" d="M53.4,119.2c-6.6,5-14.9,5.2-18.6,0.4c-0.2-0.2-0.3-0.5-0.5-0.7c-0.1-0.1-0.1-0.2-0.2-0.3
							c-0.1-0.2-0.2-0.5-0.3-0.7c0-0.1-0.1-0.2-0.1-0.3c-0.1-0.2-0.2-0.5-0.2-0.7c0-0.1-0.1-0.2-0.1-0.3c-0.1-0.2-0.1-0.5-0.2-0.8
							c0-0.1,0-0.2-0.1-0.4c0-0.2,0-0.5-0.1-0.8c0-0.1,0-0.3,0-0.4c0-0.2,0-0.5,0-0.7c0-0.1,0-0.3,0-0.4c0-0.2,0.1-0.5,0.1-0.7
							c0-0.2,0-0.3,0.1-0.5c0-0.2,0.1-0.4,0.1-0.6c0.1-0.2,0.1-0.4,0.1-0.6c0.1-0.2,0.1-0.3,0.2-0.5c0.1-0.2,0.1-0.5,0.2-0.7
							c0.1-0.1,0.1-0.3,0.2-0.4c0.1-0.3,0.2-0.5,0.4-0.8c0-0.1,0.1-0.2,0.1-0.3c0.1-0.1,0.2-0.3,0.2-0.4c0.1-0.2,0.2-0.3,0.3-0.5
							c0,0,0,0,0-0.1c0.5-0.8,1-1.6,1.7-2.3c0.9-1.1,1.9-2.1,3.1-3c0.7-0.5,1.4-1,2.1-1.4c0.1-0.1,0.2-0.1,0.3-0.2
							c0.3-0.2,0.6-0.3,0.9-0.5c0.1,0,0.2-0.1,0.2-0.1c0.1,0,0.1-0.1,0.1-0.1c0.3-0.1,0.6-0.2,0.9-0.4c0.1-0.1,0.3-0.1,0.4-0.2
							c0.3-0.1,0.6-0.2,0.9-0.3c0.1,0,0.3-0.1,0.4-0.1c0.3-0.1,0.6-0.2,0.9-0.2c0.1,0,0.2-0.1,0.3-0.1c0,0,0.1,0,0.1,0
							c0.3-0.1,0.6-0.1,0.9-0.2c0.1,0,0.3,0,0.4-0.1c0.3,0,0.6-0.1,0.9-0.1c0.1,0,0.2,0,0.4,0c0.3,0,0.6,0,0.9,0c0.1,0,0.2,0,0.3,0
							c0.3,0,0.6,0,0.9,0.1c0.1,0,0.2,0,0.3,0c0.3,0,0.6,0.1,0.9,0.1c0.1,0,0.2,0,0.2,0.1c0.3,0.1,0.6,0.1,0.9,0.2
							c0.1,0,0.1,0,0.2,0.1c0.3,0.1,0.6,0.2,0.9,0.3c0,0,0,0,0.1,0c1,0.4,1.8,1,2.6,1.7c0,0,0,0,0,0c0.3,0.3,0.5,0.6,0.8,0.9
							C62.3,106.1,60,114.1,53.4,119.2z"/>
					</g>
				</g>
			</g>
		</g>
	</g>
</g>
<g id="Layer_7" class="st0">
	<g class="st1">
		<g class="st3">
			<g>
				<g>
					<linearGradient id="SVGID_22_" gradientUnits="userSpaceOnUse" x1="35.0385" y1="93.6743" x2="35.0385" y2="67.3804">
						<stop  offset="0" style="stop-color:#FFFFFF;stop-opacity:0"/>
						<stop  offset="1" style="stop-color:#F2EDC9"/>
					</linearGradient>
					<path class="st25" d="M66.4,102V80.4c0-2.3-1.9-4.1-4.1-4.1h-3.6v-7c0-0.9-0.7-1.6-1.6-1.6c-0.4,0-0.8,0.2-1.1,0.5h0l-8.1,8.1
						H34.8c-2.3,0-4.1,1.9-4.1,4.1v0.1h-3.6L16.8,70.3h0c-0.4-0.4-0.9-0.6-1.4-0.6c-1.1,0-2,0.9-2,2v8.9H9c-2.9,0-5.2,2.3-5.2,5.2
						v27.3c0,2.9,2.3,5.2,5.2,5.2h34.7c2.9,0,5.2-2.3,5.2-5.2v-7h13.3C64.5,106.1,66.4,104.3,66.4,102z M45.2,86L45.2,86v26.8
						c0,0.9-0.8,1.7-1.7,1.7H9.2c-0.9,0-1.7-0.8-1.7-1.7V86c0-0.9,0.8-1.7,1.7-1.7h6.2c1,0,1.8-0.8,1.9-1.8v-6.6l7.8,7.8l0,0
						c0.3,0.3,0.8,0.5,1.3,0.6h17.1C44.4,84.3,45.2,85.1,45.2,86z"/>
					<linearGradient id="SVGID_23_" gradientUnits="userSpaceOnUse" x1="26.2907" y1="93.6743" x2="26.2907" y2="67.3804">
						<stop  offset="0" style="stop-color:#FFFFFF;stop-opacity:0"/>
						<stop  offset="1" style="stop-color:#F2EDC9"/>
					</linearGradient>
					<rect x="12.2" y="106" class="st26" width="28.2" height="3.8"/>
					<linearGradient id="SVGID_24_" gradientUnits="userSpaceOnUse" x1="26.2907" y1="93.6743" x2="26.2907" y2="67.3804">
						<stop  offset="0" style="stop-color:#FFFFFF;stop-opacity:0"/>
						<stop  offset="1" style="stop-color:#F2EDC9"/>
					</linearGradient>
					<rect x="12.2" y="97.6" class="st27" width="28.2" height="3.8"/>
					<linearGradient id="SVGID_25_" gradientUnits="userSpaceOnUse" x1="26.2907" y1="93.6743" x2="26.2907" y2="67.3804">
						<stop  offset="0" style="stop-color:#FFFFFF;stop-opacity:0"/>
						<stop  offset="1" style="stop-color:#F2EDC9"/>
					</linearGradient>
					<rect x="12.2" y="89.1" class="st28" width="28.2" height="3.8"/>
				</g>
			</g>
		</g>
		<text transform="matrix(1 0 0 1 4.5935 93.9043)" class="st2 st29 st30">Social</text>
		<g>
			<g>
				<g>
					<path class="st2" d="M62.2,25H48.9v-7c0-2.9-2.3-5.2-5.2-5.2H9c-2.9,0-5.2,2.3-5.2,5.2v27.3c0,2.9,2.3,5.2,5.2,5.2h4.5v8.9
						c0,1.1,0.9,2,2,2c0.6,0,1.1-0.2,1.4-0.6h0l10.2-10.2h3.6v0.1c0,2.3,1.9,4.1,4.1,4.1h13.1l8.1,8.1h0c0.3,0.3,0.7,0.5,1.1,0.5
						c0.9,0,1.6-0.7,1.6-1.6v-7h3.6c2.3,0,4.1-1.9,4.1-4.1V29.2C66.4,26.9,64.5,25,62.2,25z M43.5,46.8H26.4c-0.5,0-1,0.2-1.3,0.6
						l0,0l-7.8,7.8v-6.6c0-1-0.9-1.8-1.9-1.8H9.2c-0.9,0-1.7-0.8-1.7-1.7V18.3c0-0.9,0.8-1.7,1.7-1.7h34.3c0.9,0,1.7,0.8,1.7,1.7
						v26.8l0,0C45.2,46.1,44.4,46.8,43.5,46.8z"/>
					<rect x="12.2" y="21.3" class="st2" width="28.2" height="3.8"/>
					<rect x="12.2" y="29.8" class="st2" width="28.2" height="3.8"/>
					<rect x="12.2" y="38.3" class="st2" width="28.2" height="3.8"/>
				</g>
			</g>
		</g>
	</g>
</g>
</svg>
