<svg id="Layer_1" data-name="Layer 1" xmlns="http://www.w3.org/2000/svg" xmlns:xlink="http://www.w3.org/1999/xlink" viewBox="0 0 100 100"><defs><style>.cls-1{fill:#f2edc9;}.cls-2{opacity:0.5;}.cls-3{fill:url(#linear-gradient);}.cls-4{fill:url(#linear-gradient-2);}.cls-5{fill:none;}</style><linearGradient id="linear-gradient" x1="49.76" y1="70.66" x2="49.76" y2="51.09" gradientUnits="userSpaceOnUse"><stop offset="0" stop-color="#fff" stop-opacity="0"/><stop offset="1" stop-color="#f2edc9"/></linearGradient><linearGradient id="linear-gradient-2" x1="49.76" y1="69.65" x2="49.76" y2="51.21" xlink:href="#linear-gradient"/></defs><title>Artboard 1</title><path class="cls-1" d="M61.14,10.28H38.37a4.68,4.68,0,0,0-4.66,4.66V43.15a4.67,4.67,0,0,0,4.66,4.66H61.14a4.67,4.67,0,0,0,4.66-4.66V14.94A4.68,4.68,0,0,0,61.14,10.28Zm.78,30.32a3.11,3.11,0,0,1-3.1,3.1H40.7a3.11,3.11,0,0,1-3.1-3.1V17.5a3.11,3.11,0,0,1,3.1-3.11H58.82a3.11,3.11,0,0,1,3.1,3.11Z"/><path class="cls-1" d="M57.46,27H42.06a1.56,1.56,0,0,0-1.56,1.55V30a1.56,1.56,0,0,0,1.56,1.55h15.4A1.56,1.56,0,0,0,59,30V28.53A1.56,1.56,0,0,0,57.46,27Z"/><path class="cls-1" d="M42.06,20h15.4A1.56,1.56,0,0,1,59,21.54V23a1.55,1.55,0,0,1-1.55,1.55H42.05A1.55,1.55,0,0,1,40.5,23V21.54A1.55,1.55,0,0,1,42.06,20Z"/><path class="cls-1" d="M57.46,34H42.06a1.56,1.56,0,0,0-1.56,1.55v1.43a1.56,1.56,0,0,0,1.56,1.55h15.4A1.56,1.56,0,0,0,59,36.94V35.51A1.55,1.55,0,0,0,57.46,34Z"/><g class="cls-2"><path class="cls-3" d="M33.71,55.93V84.14a4.67,4.67,0,0,0,4.66,4.66H61.14a4.67,4.67,0,0,0,4.66-4.66V55.93a4.68,4.68,0,0,0-4.66-4.66H38.37A4.68,4.68,0,0,0,33.71,55.93Zm3.88,2.56a3.11,3.11,0,0,1,3.1-3.11H58.82a3.11,3.11,0,0,1,3.1,3.11v23.1a3.11,3.11,0,0,1-3.1,3.1H40.7a3.11,3.11,0,0,1-3.1-3.1Z"/><path class="cls-4" d="M42.06,68h15.4A1.56,1.56,0,0,1,59,69.52v1.43a1.56,1.56,0,0,1-1.56,1.55H42.06a1.56,1.56,0,0,1-1.55-1.55V69.52A1.56,1.56,0,0,1,42.06,68Z"/><path class="cls-4" d="M42.06,61h15.4A1.56,1.56,0,0,1,59,62.53V64a1.56,1.56,0,0,1-1.56,1.55H42.06A1.56,1.56,0,0,1,40.5,64V62.53A1.56,1.56,0,0,1,42.06,61Z"/><path class="cls-4" d="M42.06,75h15.4A1.56,1.56,0,0,1,59,76.5v1.43a1.56,1.56,0,0,1-1.56,1.55H42.06a1.56,1.56,0,0,1-1.55-1.55V76.5A1.55,1.55,0,0,1,42.06,75Z"/></g><rect class="cls-5" x="-0.24" y="-0.46" width="100" height="100"/></svg>